NotoSerifTamilSlanted-ExtraCondensedExtraLight.ufo
<glyph name="exclam" format="2">
  <advance width="220.9090909090909"/>
  <unicode hex="0021"/>
  <outline>
    <contour>
      <point x="71.03030303030303" y="175.27272727272728" type="line"/>
      <point x="99.6969696969697" y="175.27272727272728" type="line"/>
      <point x="223.93939393939394" y="714.0" type="line"/>
      <point x="177.8181818181818" y="714.0" type="line"/>
    </contour>
    <contour>
      <point x="54.57575757575757" y="-6.424242424242424" type="curve" smooth="yes"/>
      <point x="73.33333333333333" y="-6.424242424242424"/>
      <point x="92.51515151515152" y="10.636363636363637"/>
      <point x="92.51515151515152" y="47.36363636363637" type="curve" smooth="yes"/>
      <point x="92.51515151515152" y="72.54545454545456"/>
      <point x="79.39393939393939" y="83.66666666666666"/>
      <point x="62.00000000000001" y="83.66666666666666" type="curve" smooth="yes"/>
      <point x="39.3939393939394" y="83.66666666666666"/>
      <point x="22.272727272727273" y="62.6969696969697"/>
      <point x="22.272727272727273" y="30.666666666666664" type="curve" smooth="yes"/>
      <point x="22.272727272727273" y="5.484848484848486"/>
      <point x="34.60606060606061" y="-6.424242424242424"/>
    </contour>
  </outline>
</glyph>
<glyph name="quotedbl" format="2">
  <advance width="257.6363636363636"/>
  <unicode hex="0022"/>
  <outline>
    <contour>
      <point x="98.15151515151514" y="495.6060606060606" type="line"/>
      <point x="122.60606060606061" y="495.6060606060606" type="line"/>
      <point x="179.96969696969694" y="714.0" type="line"/>
      <point x="135.96969696969697" y="714.0" type="line"/>
    </contour>
    <contour>
      <point x="223.42424242424244" y="495.6060606060606" type="line"/>
      <point x="247.8787878787879" y="495.6060606060606" type="line"/>
      <point x="305.24242424242425" y="714.0" type="line"/>
      <point x="261.45454545454544" y="714.0" type="line"/>
    </contour>
  </outline>
</glyph>
<glyph name="numbersign" format="2">
  <advance width="441.4848484848485"/>
  <unicode hex="0023"/>
  <outline>
    <contour>
      <point x="43.57575757575757" y="0.0" type="line"/>
      <point x="76.45454545454547" y="0.0" type="line"/>
      <point x="135.60606060606062" y="215.6060606060606" type="line"/>
      <point x="263.1515151515151" y="215.6060606060606" type="line"/>
      <point x="204.21212121212122" y="0.0" type="line"/>
      <point x="236.8787878787879" y="0.0" type="line"/>
      <point x="295.8181818181818" y="215.6060606060606" type="line"/>
      <point x="383.93939393939394" y="215.6060606060606" type="line"/>
      <point x="389.57575757575756" y="247.8181818181818" type="line"/>
      <point x="305.3636363636363" y="247.8181818181818" type="line"/>
      <point x="368.60606060606057" y="477.9090909090909" type="line"/>
      <point x="453.5454545454546" y="477.9090909090909" type="line"/>
      <point x="458.3939393939394" y="509.90909090909093" type="line"/>
      <point x="377.72727272727275" y="509.90909090909093" type="line"/>
      <point x="434.0909090909091" y="714.0" type="line"/>
      <point x="401.2121212121212" y="714.0" type="line"/>
      <point x="344.8484848484848" y="509.90909090909093" type="line"/>
      <point x="217.3030303030303" y="509.90909090909093" type="line"/>
      <point x="273.66666666666663" y="714.0" type="line"/>
      <point x="240.78787878787878" y="714.0" type="line"/>
      <point x="184.63636363636363" y="509.90909090909093" type="line"/>
      <point x="94.57575757575756" y="509.90909090909093" type="line"/>
      <point x="89.93939393939394" y="477.9090909090909" type="line"/>
      <point x="175.51515151515153" y="477.9090909090909" type="line"/>
      <point x="112.06060606060605" y="247.8181818181818" type="line"/>
      <point x="25.757575757575754" y="247.8181818181818" type="line"/>
      <point x="20.121212121212125" y="215.6060606060606" type="line"/>
      <point x="102.93939393939395" y="215.6060606060606" type="line"/>
    </contour>
    <contour>
      <point x="144.72727272727272" y="247.8181818181818" type="line"/>
      <point x="208.1818181818182" y="477.9090909090909" type="line"/>
      <point x="335.72727272727275" y="477.9090909090909" type="line"/>
      <point x="272.4848484848485" y="247.8181818181818" type="line"/>
    </contour>
  </outline>
</glyph>
<glyph name="percent" format="2">
  <advance width="700.2121212121212"/>
  <unicode hex="0025"/>
  <outline>
    <contour>
      <point x="132.12121212121212" y="0.0" type="line"/>
      <point x="168.6969696969697" y="0.0" type="line"/>
      <point x="602.2121212121212" y="714.0" type="line"/>
      <point x="566.4848484848485" y="714.0" type="line"/>
    </contour>
    <contour>
      <point x="165.48484848484847" y="282.57575757575756" type="curve" smooth="yes"/>
      <point x="275.93939393939394" y="282.57575757575756"/>
      <point x="328.48484848484844" y="459.1818181818182"/>
      <point x="328.48484848484844" y="576.2121212121212" type="curve" smooth="yes"/>
      <point x="328.48484848484844" y="665.0"/>
      <point x="297.4848484848485" y="721.4242424242424"/>
      <point x="234.93939393939394" y="721.4242424242424" type="curve" smooth="yes"/>
      <point x="127.27272727272728" y="721.4242424242424"/>
      <point x="72.7878787878788" y="546.3030303030303"/>
      <point x="72.7878787878788" y="426.2121212121212" type="curve"/>
      <point x="72.7878787878788" y="331.93939393939394"/>
      <point x="106.84848484848484" y="282.57575757575756"/>
    </contour>
    <contour>
      <point x="168.54545454545453" y="310.75757575757575" type="curve" smooth="yes"/>
      <point x="128.15151515151516" y="310.75757575757575"/>
      <point x="109.48484848484848" y="345.90909090909093"/>
      <point x="109.48484848484848" y="421.96969696969694" type="curve" smooth="yes"/>
      <point x="109.48484848484848" y="522.2727272727273"/>
      <point x="152.27272727272728" y="693.4545454545454"/>
      <point x="232.3030303030303" y="693.4545454545454" type="curve" smooth="yes"/>
      <point x="272.6969696969697" y="693.4545454545454"/>
      <point x="291.3636363636363" y="653.0"/>
      <point x="291.3636363636363" y="580.6666666666666" type="curve" smooth="yes"/>
      <point x="291.3636363636363" y="481.93939393939394"/>
      <point x="247.0" y="310.75757575757575"/>
    </contour>
    <contour>
      <point x="501.2424242424242" y="-6.424242424242424" type="curve" smooth="yes"/>
      <point x="613.2727272727274" y="-6.424242424242424"/>
      <point x="664.030303030303" y="170.3939393939394"/>
      <point x="664.030303030303" y="287.21212121212125" type="curve" smooth="yes"/>
      <point x="664.030303030303" y="376.0"/>
      <point x="633.030303030303" y="432.42424242424244"/>
      <point x="570.4848484848484" y="432.42424242424244" type="curve" smooth="yes"/>
      <point x="462.8181818181818" y="432.42424242424244"/>
      <point x="408.54545454545456" y="257.3030303030303"/>
      <point x="408.54545454545456" y="137.2121212121212" type="curve"/>
      <point x="408.54545454545456" y="41.36363636363636"/>
      <point x="444.969696969697" y="-6.424242424242424"/>
    </contour>
    <contour>
      <point x="504.3030303030303" y="21.757575757575754" type="curve" smooth="yes"/>
      <point x="463.69696969696975" y="21.757575757575754"/>
      <point x="445.03030303030306" y="56.90909090909091"/>
      <point x="445.03030303030306" y="133.3939393939394" type="curve" smooth="yes"/>
      <point x="445.03030303030306" y="233.27272727272728"/>
      <point x="488.03030303030306" y="404.45454545454544"/>
      <point x="567.8484848484849" y="404.45454545454544" type="curve" smooth="yes"/>
      <point x="608.4545454545455" y="404.45454545454544"/>
      <point x="627.1212121212121" y="363.78787878787875"/>
      <point x="627.1212121212121" y="291.6666666666667" type="curve" smooth="yes"/>
      <point x="627.1212121212121" y="192.93939393939394"/>
      <point x="584.3333333333333" y="21.757575757575754"/>
    </contour>
  </outline>
</glyph>
<glyph name="quotesingle" format="2">
  <advance width="133.21212121212122"/>
  <unicode hex="0027"/>
  <outline>
    <contour>
      <point x="103.87878787878789" y="520.030303030303" type="line"/>
      <point x="128.33333333333331" y="520.030303030303" type="line"/>
      <point x="179.75757575757578" y="714.0" type="line"/>
      <point x="135.96969696969697" y="714.0" type="line"/>
    </contour>
  </outline>
</glyph>
<glyph name="parenleft" format="2">
  <advance width="235.2121212121212"/>
  <unicode hex="0028"/>
  <outline>
    <contour>
      <point x="128.0" y="-120.69696969696969" type="curve"/>
      <point x="134.27272727272725" y="-93.24242424242425" type="line"/>
      <point x="97.3030303030303" y="-52.39393939393939"/>
      <point x="69.48484848484848" y="47.181818181818194"/>
      <point x="69.48484848484848" y="146.87878787878788" type="curve" smooth="yes"/>
      <point x="69.48484848484848" y="293.4242424242424"/>
      <point x="116.33333333333331" y="550.8787878787879"/>
      <point x="305.6363636363636" y="713.6363636363636" type="curve"/>
      <point x="311.48484848484844" y="742.2424242424242" type="line"/>
      <point x="105.30303030303031" y="604.0"/>
      <point x="28.96969696969697" y="358.8181818181818"/>
      <point x="28.96969696969697" y="153.54545454545456" type="curve" smooth="yes"/>
      <point x="28.96969696969697" y="32.63636363636363"/>
      <point x="64.66666666666666" y="-65.96969696969697"/>
    </contour>
  </outline>
</glyph>
<glyph name="parenright" format="2">
  <advance width="235.2121212121212"/>
  <unicode hex="0029"/>
  <outline>
    <contour>
      <point x="-62.909090909090914" y="-122.60606060606061" type="line"/>
      <point x="143.48484848484847" y="15.848484848484844"/>
      <point x="219.3939393939394" y="261.03030303030306"/>
      <point x="219.3939393939394" y="466.3030303030303" type="curve" smooth="yes"/>
      <point x="219.3939393939394" y="587.2121212121212"/>
      <point x="184.12121212121212" y="685.6060606060606"/>
      <point x="120.57575757575759" y="740.3333333333334" type="curve"/>
      <point x="114.51515151515153" y="713.0909090909091" type="line"/>
      <point x="151.27272727272728" y="672.2424242424242"/>
      <point x="179.0909090909091" y="572.6666666666667"/>
      <point x="179.0909090909091" y="472.969696969697" type="curve" smooth="yes"/>
      <point x="179.0909090909091" y="326.6363636363637"/>
      <point x="132.45454545454547" y="69.18181818181819"/>
      <point x="-56.848484848484844" y="-93.78787878787878" type="curve"/>
    </contour>
  </outline>
</glyph>
<glyph name="asterisk" format="2">
  <advance width="337.93939393939394"/>
  <unicode hex="002A"/>
  <outline>
    <contour>
      <point x="228.63636363636365" y="423.060606060606" type="line"/>
      <point x="244.72727272727272" y="572.6060606060606" type="line"/>
      <point x="338.4242424242424" y="470.5151515151515" type="line"/>
      <point x="365.30303030303025" y="504.0" type="line"/>
      <point x="255.3939393939394" y="588.7878787878788" type="line"/>
      <point x="390.24242424242425" y="618.5454545454545" type="line"/>
      <point x="379.03030303030306" y="661.1515151515152" type="line"/>
      <point x="252.63636363636363" y="607.6666666666666" type="line"/>
      <point x="298.3939393939394" y="751.7272727272727" type="line"/>
      <point x="255.54545454545453" y="761.060606060606" type="line"/>
      <point x="237.24242424242425" y="611.0909090909091" type="line"/>
      <point x="143.96969696969697" y="715.2424242424242" type="line"/>
      <point x="116.87878787878788" y="680.3333333333333" type="line"/>
      <point x="227.0" y="595.1212121212121" type="line"/>
      <point x="92.15151515151514" y="565.1515151515151" type="line"/>
      <point x="103.36363636363636" y="522.7575757575758" type="line"/>
      <point x="229.54545454545453" y="576.4545454545455" type="line"/>
      <point x="185.5757575757576" y="432.1818181818182" type="line"/>
    </contour>
  </outline>
</glyph>
<glyph name="plus" format="2">
  <advance width="425.0"/>
  <unicode hex="002B"/>
  <outline>
    <contour>
      <point x="210.60606060606062" y="143.0" type="line"/>
      <point x="246.54545454545453" y="143.0" type="line"/>
      <point x="246.54545454545453" y="340.8181818181818" type="line"/>
      <point x="392.27272727272725" y="340.8181818181818" type="line"/>
      <point x="392.27272727272725" y="374.96969696969694" type="line"/>
      <point x="246.54545454545453" y="374.96969696969694" type="line"/>
      <point x="246.54545454545453" y="572.0" type="line"/>
      <point x="210.60606060606062" y="572.0" type="line"/>
      <point x="210.60606060606062" y="374.96969696969694" type="line"/>
      <point x="64.3030303030303" y="374.96969696969694" type="line"/>
      <point x="64.3030303030303" y="340.8181818181818" type="line"/>
      <point x="210.60606060606062" y="340.8181818181818" type="line"/>
    </contour>
  </outline>
</glyph>
<glyph name="comma" format="2">
  <advance width="159.78787878787878"/>
  <unicode hex="002C"/>
  <outline>
    <contour>
      <point x="-42.54545454545455" y="-139.69696969696972" type="line"/>
      <point x="49.909090909090914" y="-114.6969696969697"/>
      <point x="75.9090909090909" y="-50.72727272727273"/>
      <point x="75.9090909090909" y="20.72727272727273" type="curve" smooth="yes"/>
      <point x="75.9090909090909" y="60.33333333333333"/>
      <point x="58.93939393939393" y="84.03030303030303"/>
      <point x="36.18181818181819" y="84.03030303030303" type="curve" smooth="yes"/>
      <point x="14.060606060606062" y="84.03030303030303"/>
      <point x="1.0909090909090917" y="68.54545454545456"/>
      <point x="1.0909090909090917" y="46.878787878787875" type="curve" smooth="yes"/>
      <point x="1.0909090909090917" y="12.06060606060606"/>
      <point x="38.21212121212121" y="12.424242424242424"/>
      <point x="38.21212121212121" y="-21.363636363636363" type="curve" smooth="yes"/>
      <point x="38.21212121212121" y="-60.0"/>
      <point x="14.151515151515154" y="-96.0909090909091"/>
      <point x="-42.06060606060606" y="-114.45454545454545" type="curve"/>
    </contour>
  </outline>
</glyph>
<glyph name="hyphen" format="2">
  <advance width="244.84848484848484"/>
  <unicode hex="002D"/>
  <outline>
    <contour>
      <point x="17.848484848484848" y="251.1818181818182" type="line"/>
      <point x="222.69696969696966" y="251.1818181818182" type="line"/>
      <point x="231.03030303030303" y="286.72727272727275" type="line"/>
      <point x="26.18181818181818" y="286.72727272727275" type="line"/>
    </contour>
  </outline>
</glyph>
<glyph name="period" format="2">
  <advance width="159.78787878787878"/>
  <unicode hex="002E"/>
  <outline>
    <contour>
      <point x="40.54545454545455" y="-6.424242424242425" type="curve" smooth="yes"/>
      <point x="59.303030303030305" y="-6.424242424242425"/>
      <point x="78.6969696969697" y="10.636363636363637"/>
      <point x="78.6969696969697" y="47.36363636363637" type="curve" smooth="yes"/>
      <point x="78.6969696969697" y="72.54545454545455"/>
      <point x="65.36363636363636" y="83.66666666666666"/>
      <point x="47.96969696969697" y="83.66666666666666" type="curve" smooth="yes"/>
      <point x="25.363636363636367" y="83.66666666666666"/>
      <point x="8.242424242424244" y="62.69696969696971"/>
      <point x="8.242424242424244" y="30.666666666666668" type="curve" smooth="yes"/>
      <point x="8.242424242424244" y="5.484848484848485"/>
      <point x="20.575757575757578" y="-6.424242424242425"/>
    </contour>
  </outline>
</glyph>
<glyph name="slash" format="2">
  <advance width="227.84848484848484"/>
  <unicode hex="002F"/>
  <outline>
    <contour>
      <point x="-77.27272727272727" y="-121.0" type="line"/>
      <point x="-43.18181818181819" y="-121.0" type="line"/>
      <point x="316.00000000000006" y="760.0" type="line"/>
      <point x="281.48484848484844" y="760.0" type="line"/>
    </contour>
  </outline>
</glyph>
<glyph name="zero" format="2">
  <advance width="431.84848484848493"/>
  <unicode hex="0030"/>
  <outline>
    <contour>
      <point x="167.78787878787878" y="-11.0" type="curve" smooth="yes"/>
      <point x="343.5454545454545" y="-11.0"/>
      <point x="423.54545454545456" y="320.06060606060606"/>
      <point x="423.54545454545456" y="508.6969696969697" type="curve" smooth="yes"/>
      <point x="423.54545454545456" y="648.969696969697"/>
      <point x="377.6666666666667" y="724.0"/>
      <point x="297.03030303030306" y="724.0" type="curve" smooth="yes"/>
      <point x="131.15151515151516" y="724.0"/>
      <point x="42.06060606060606" y="426.54545454545456"/>
      <point x="42.06060606060606" y="210.0" type="curve" smooth="yes"/>
      <point x="42.06060606060606" y="67.78787878787878"/>
      <point x="88.24242424242425" y="-11.0"/>
    </contour>
    <contour>
      <point x="170.27272727272728" y="20.151515151515152" type="curve" smooth="yes"/>
      <point x="112.0909090909091" y="20.151515151515152"/>
      <point x="82.36363636363637" y="87.84848484848484"/>
      <point x="82.36363636363637" y="205.54545454545453" type="curve" smooth="yes"/>
      <point x="82.36363636363637" y="398.48484848484844"/>
      <point x="161.06060606060606" y="693.8484848484849"/>
      <point x="291.3939393939394" y="693.8484848484849" type="curve" smooth="yes"/>
      <point x="353.93939393939394" y="693.8484848484849"/>
      <point x="383.4545454545455" y="626.1515151515151"/>
      <point x="383.4545454545455" y="511.45454545454544" type="curve" smooth="yes"/>
      <point x="383.4545454545455" y="343.1515151515152"/>
      <point x="313.8484848484848" y="20.151515151515152"/>
    </contour>
  </outline>
</glyph>
<glyph name="one" format="2">
  <advance width="431.84848484848493"/>
  <unicode hex="0031"/>
  <outline>
    <contour>
      <point x="43.09090909090909" y="0.0" type="line"/>
      <point x="302.1818181818182" y="0.0" type="line"/>
      <point x="308.03030303030306" y="24.454545454545457" type="line"/>
      <point x="247.9090909090909" y="24.454545454545457" type="line" smooth="yes"/>
      <point x="215.9090909090909" y="24.454545454545457"/>
      <point x="207.66666666666669" y="28.090909090909093"/>
      <point x="207.66666666666669" y="53.78787878787879" type="curve" smooth="yes"/>
      <point x="207.66666666666669" y="61.57575757575757"/>
      <point x="210.45454545454547" y="82.45454545454545"/>
      <point x="215.45454545454547" y="105.45454545454545" type="curve" smooth="yes"/>
      <point x="345.39393939393943" y="718.0" type="line"/>
      <point x="326.3636363636364" y="718.0" type="line"/>
      <point x="277.6969696969697" y="676.2424242424242" type="line" smooth="yes"/>
      <point x="219.42424242424244" y="624.8787878787879"/>
      <point x="173.96969696969697" y="598.6363636363636"/>
      <point x="137.75757575757575" y="589.0" type="curve"/>
      <point x="137.54545454545453" y="576.5454545454545"/>
      <point x="141.45454545454544" y="561.6363636363636"/>
      <point x="162.66666666666666" y="561.6363636363636" type="curve" smooth="yes"/>
      <point x="193.51515151515153" y="561.6363636363636"/>
      <point x="227.72727272727272" y="592.5454545454545"/>
      <point x="293.39393939393943" y="660.9090909090909" type="curve"/>
      <point x="295.39393939393943" y="660.9090909090909" type="line"/>
      <point x="287.75757575757575" y="634.6363636363636"/>
      <point x="272.8181818181818" y="571.030303030303"/>
      <point x="253.87878787878785" y="479.90909090909093" type="curve" smooth="yes"/>
      <point x="174.0909090909091" y="103.54545454545455" type="line" smooth="yes"/>
      <point x="158.5151515151515" y="30.878787878787882"/>
      <point x="150.0" y="24.454545454545457"/>
      <point x="109.27272727272728" y="24.454545454545457" type="curve" smooth="yes"/>
      <point x="48.72727272727273" y="24.454545454545457" type="line"/>
    </contour>
  </outline>
</glyph>
<glyph name="two" format="2">
  <advance width="431.84848484848493"/>
  <unicode hex="0032"/>
  <outline>
    <contour>
      <point x="-3.6363636363636367" y="0.0" type="line"/>
      <point x="318.06060606060606" y="0.0" type="line"/>
      <point x="345.87878787878793" y="116.36363636363636" type="line"/>
      <point x="322.06060606060606" y="116.36363636363636" type="line"/>
      <point x="318.42424242424244" y="103.72727272727272" type="line" smooth="yes"/>
      <point x="302.42424242424244" y="44.45454545454546"/>
      <point x="297.030303030303" y="35.81818181818182"/>
      <point x="240.93939393939394" y="35.81818181818182" type="curve" smooth="yes"/>
      <point x="40.969696969696976" y="35.81818181818182" type="line"/>
      <point x="243.90909090909088" y="261.42424242424244" type="line" smooth="yes"/>
      <point x="357.1818181818182" y="383.8787878787879"/>
      <point x="406.6666666666667" y="475.4848484848485"/>
      <point x="406.6666666666667" y="581.0606060606061" type="curve" smooth="yes"/>
      <point x="406.6666666666667" y="666.0606060606061"/>
      <point x="360.39393939393943" y="724.0"/>
      <point x="269.2727272727273" y="724.0" type="curve" smooth="yes"/>
      <point x="171.1818181818182" y="724.0"/>
      <point x="114.42424242424242" y="654.5757575757576"/>
      <point x="114.42424242424242" y="592.8787878787879" type="curve" smooth="yes"/>
      <point x="114.42424242424242" y="565.2727272727273"/>
      <point x="130.60606060606062" y="556.1515151515151"/>
      <point x="148.33333333333331" y="556.1515151515151" type="curve"/>
      <point x="150.66666666666669" y="641.2424242424242"/>
      <point x="198.4848484848485" y="694.1212121212121"/>
      <point x="266.2121212121212" y="694.1212121212121" type="curve" smooth="yes"/>
      <point x="330.8484848484849" y="694.1212121212121"/>
      <point x="364.8787878787879" y="647.4545454545454"/>
      <point x="364.8787878787879" y="578.8484848484849" type="curve" smooth="yes"/>
      <point x="364.8787878787879" y="494.6363636363636"/>
      <point x="338.72727272727275" y="413.030303030303"/>
      <point x="215.15151515151516" y="275.3030303030303" type="curve" smooth="yes"/>
      <point x="7.272727272727273" y="42.54545454545455" type="line"/>
    </contour>
  </outline>
</glyph>
<glyph name="three" format="2">
  <advance width="431.84848484848493"/>
  <unicode hex="0033"/>
  <outline>
    <contour>
      <point x="135.36363636363637" y="-10.0" type="curve" smooth="yes"/>
      <point x="244.3030303030303" y="-10.0"/>
      <point x="347.72727272727275" y="62.030303030303024"/>
      <point x="347.72727272727275" y="228.27272727272728" type="curve" smooth="yes"/>
      <point x="347.72727272727275" y="306.6969696969697"/>
      <point x="300.57575757575756" y="361.8484848484849"/>
      <point x="250.27272727272725" y="374.78787878787875" type="curve"/>
      <point x="355.969696969697" y="400.57575757575756"/>
      <point x="403.72727272727275" y="488.060606060606"/>
      <point x="403.72727272727275" y="584.6363636363636" type="curve" smooth="yes"/>
      <point x="403.72727272727275" y="670.0606060606061"/>
      <point x="349.8181818181818" y="724.0"/>
      <point x="274.42424242424244" y="724.0" type="curve" smooth="yes"/>
      <point x="185.6060606060606" y="724.0"/>
      <point x="116.42424242424242" y="664.939393939394"/>
      <point x="116.42424242424242" y="574.2727272727273" type="curve" smooth="yes"/>
      <point x="116.42424242424242" y="548.4545454545455"/>
      <point x="131.8181818181818" y="537.030303030303"/>
      <point x="149.12121212121212" y="537.030303030303" type="curve"/>
      <point x="152.72727272727272" y="623.3333333333334"/>
      <point x="184.60606060606062" y="694.1212121212121"/>
      <point x="271.1515151515152" y="694.1212121212121" type="curve" smooth="yes"/>
      <point x="324.39393939393943" y="694.1212121212121"/>
      <point x="362.1515151515151" y="652.3939393939394"/>
      <point x="362.1515151515151" y="584.4242424242424" type="curve" smooth="yes"/>
      <point x="362.1515151515151" y="461.54545454545456"/>
      <point x="287.0" y="390.27272727272725"/>
      <point x="194.57575757575756" y="390.27272727272725" type="curve" smooth="yes"/>
      <point x="168.57575757575756" y="390.27272727272725" type="line"/>
      <point x="160.36363636363635" y="359.96969696969694" type="line"/>
      <point x="192.0" y="359.96969696969694" type="line" smooth="yes"/>
      <point x="260.4242424242424" y="359.96969696969694"/>
      <point x="305.7272727272727" y="299.57575757575756"/>
      <point x="305.7272727272727" y="227.0" type="curve" smooth="yes"/>
      <point x="305.7272727272727" y="90.3939393939394"/>
      <point x="227.54545454545456" y="20.939393939393938"/>
      <point x="138.84848484848484" y="20.939393939393938" type="curve" smooth="yes"/>
      <point x="58.60606060606061" y="20.939393939393938"/>
      <point x="37.54545454545455" y="73.9090909090909"/>
      <point x="38.18181818181818" y="139.21212121212122" type="curve"/>
      <point x="21.606060606060606" y="139.21212121212122"/>
      <point x="2.636363636363635" y="127.81818181818183"/>
      <point x="2.636363636363635" y="100.51515151515153" type="curve" smooth="yes"/>
      <point x="2.636363636363635" y="48.303030303030305"/>
      <point x="35.54545454545455" y="-10.0"/>
    </contour>
  </outline>
</glyph>
<glyph name="four" format="2">
  <advance width="431.84848484848493"/>
  <unicode hex="0034"/>
  <outline>
    <contour>
      <point x="97.75757575757575" y="0.0" type="line"/>
      <point x="337.7575757575758" y="0.0" type="line"/>
      <point x="343.8181818181818" y="24.454545454545457" type="line"/>
      <point x="303.75757575757575" y="24.454545454545457" type="line" smooth="yes"/>
      <point x="271.969696969697" y="24.454545454545457"/>
      <point x="262.3636363636364" y="31.242424242424242"/>
      <point x="262.3636363636364" y="52.78787878787879" type="curve" smooth="yes"/>
      <point x="262.3636363636364" y="65.3030303030303"/>
      <point x="265.1515151515152" y="79.5151515151515"/>
      <point x="267.93939393939394" y="93.81818181818181" type="curve" smooth="yes"/>
      <point x="399.09090909090907" y="714.0" type="line"/>
      <point x="362.8787878787879" y="714.0" type="line"/>
      <point x="7.757575757575758" y="231.27272727272728" type="line"/>
      <point x="2.696969696969699" y="211.03030303030303" type="line"/>
      <point x="403.57575757575756" y="211.03030303030303" type="line"/>
      <point x="413.2121212121212" y="241.33333333333331" type="line"/>
      <point x="34.30303030303031" y="241.33333333333331" type="line"/>
      <point x="41.15151515151515" y="231.5757575757576" type="line"/>
      <point x="301.1515151515151" y="581.6060606060605" type="line" smooth="yes"/>
      <point x="316.2121212121212" y="601.3030303030303"/>
      <point x="340.1818181818182" y="637.3939393939394"/>
      <point x="351.09090909090907" y="658.6363636363636" type="curve"/>
      <point x="340.1818181818182" y="621.0606060606061"/>
      <point x="327.1212121212121" y="567.7575757575758"/>
      <point x="313.54545454545456" y="503.24242424242425" type="curve" smooth="yes"/>
      <point x="227.42424242424244" y="94.87878787878788" type="line" smooth="yes"/>
      <point x="214.4242424242424" y="31.87878787878788"/>
      <point x="204.27272727272725" y="24.454545454545457"/>
      <point x="159.03030303030303" y="24.454545454545457" type="curve" smooth="yes"/>
      <point x="103.39393939393939" y="24.454545454545457" type="line"/>
    </contour>
  </outline>
</glyph>
<glyph name="five" format="2">
  <advance width="431.84848484848493"/>
  <unicode hex="0035"/>
  <outline>
    <contour>
      <point x="138.5151515151515" y="-10.0" type="curve" smooth="yes"/>
      <point x="269.969696969697" y="-10.0"/>
      <point x="354.45454545454544" y="104.42424242424242"/>
      <point x="354.45454545454544" y="249.84848484848484" type="curve" smooth="yes"/>
      <point x="354.45454545454544" y="359.4848484848485"/>
      <point x="300.90909090909093" y="419.6969696969697"/>
      <point x="210.93939393939394" y="419.6969696969697" type="curve" smooth="yes"/>
      <point x="179.66666666666666" y="419.6969696969697"/>
      <point x="151.72727272727275" y="410.9090909090909"/>
      <point x="137.0909090909091" y="403.9090909090909" type="curve"/>
      <point x="214.42424242424244" y="677.969696969697" type="line"/>
      <point x="353.8787878787879" y="677.969696969697" type="line" smooth="yes"/>
      <point x="380.3030303030303" y="677.969696969697"/>
      <point x="386.72727272727275" y="668.969696969697"/>
      <point x="386.72727272727275" y="656.7575757575758" type="curve" smooth="yes"/>
      <point x="386.72727272727275" y="650.7575757575758"/>
      <point x="383.72727272727275" y="629.3333333333334"/>
      <point x="379.3636363636364" y="597.7272727272726" type="curve"/>
      <point x="403.1818181818182" y="597.7272727272726" type="line"/>
      <point x="429.03030303030306" y="714.0" type="line"/>
      <point x="195.36363636363637" y="714.0" type="line"/>
      <point x="97.36363636363636" y="371.8787878787879" type="line"/>
      <point x="115.69696969696969" y="366.75757575757575" type="line"/>
      <point x="142.4242424242424" y="380.1212121212121"/>
      <point x="161.12121212121212" y="388.75757575757575"/>
      <point x="204.27272727272728" y="388.75757575757575" type="curve" smooth="yes"/>
      <point x="267.1515151515152" y="388.75757575757575"/>
      <point x="312.66666666666663" y="346.54545454545456"/>
      <point x="312.66666666666663" y="248.15151515151516" type="curve" smooth="yes"/>
      <point x="312.66666666666663" y="108.27272727272727"/>
      <point x="236.18181818181816" y="20.939393939393938"/>
      <point x="145.15151515151516" y="20.939393939393938" type="curve" smooth="yes"/>
      <point x="73.15151515151516" y="20.939393939393938"/>
      <point x="50.27272727272728" y="71.24242424242425"/>
      <point x="51.27272727272728" y="139.36363636363637" type="curve"/>
      <point x="24.96969696969697" y="139.36363636363637"/>
      <point x="16.000000000000004" y="122.39393939393938"/>
      <point x="16.000000000000004" y="98.93939393939394" type="curve" smooth="yes"/>
      <point x="16.000000000000004" y="49.3030303030303"/>
      <point x="45.54545454545455" y="-10.0"/>
    </contour>
  </outline>
</glyph>
<glyph name="six" format="2">
  <advance width="431.84848484848493"/>
  <unicode hex="0036"/>
  <outline>
    <contour>
      <point x="187.3030303030303" y="-10.0" type="curve" smooth="yes"/>
      <point x="306.4545454545455" y="-10.0"/>
      <point x="375.6666666666667" y="121.33333333333334"/>
      <point x="375.6666666666667" y="268.42424242424244" type="curve" smooth="yes"/>
      <point x="375.6666666666667" y="356.6363636363637"/>
      <point x="337.24242424242425" y="429.06060606060606"/>
      <point x="249.0909090909091" y="429.06060606060606" type="curve" smooth="yes"/>
      <point x="189.93939393939397" y="429.06060606060606"/>
      <point x="145.57575757575756" y="395.6969696969697"/>
      <point x="122.15151515151514" y="373.9090909090909" type="curve"/>
      <point x="163.21212121212122" y="563.1818181818182"/>
      <point x="249.0606060606061" y="694.3333333333334"/>
      <point x="338.66666666666663" y="694.3333333333334" type="curve" smooth="yes"/>
      <point x="392.75757575757575" y="694.3333333333334"/>
      <point x="407.0" y="645.4242424242425"/>
      <point x="406.3636363636364" y="584.8484848484849" type="curve"/>
      <point x="431.93939393939394" y="584.8484848484849"/>
      <point x="444.0303030303031" y="600.4545454545454"/>
      <point x="444.0303030303031" y="623.969696969697" type="curve" smooth="yes"/>
      <point x="444.0303030303031" y="670.8181818181818"/>
      <point x="411.9090909090909" y="724.0"/>
      <point x="341.7878787878788" y="724.0" type="curve" smooth="yes"/>
      <point x="186.72727272727272" y="724.0"/>
      <point x="61.57575757575757" y="459.57575757575756"/>
      <point x="61.57575757575757" y="200.9090909090909" type="curve" smooth="yes"/>
      <point x="61.57575757575757" y="41.54545454545455"/>
      <point x="117.9090909090909" y="-10.0"/>
    </contour>
    <contour>
      <point x="189.78787878787878" y="20.515151515151516" type="curve" smooth="yes"/>
      <point x="137.12121212121212" y="20.515151515151516"/>
      <point x="101.66666666666667" y="81.75757575757575"/>
      <point x="101.66666666666667" y="193.5151515151515" type="curve" smooth="yes"/>
      <point x="101.66666666666667" y="231.4242424242424"/>
      <point x="104.0909090909091" y="275.5151515151515"/>
      <point x="114.30303030303031" y="332.8787878787879" type="curve"/>
      <point x="145.6060606060606" y="367.1818181818182"/>
      <point x="192.33333333333334" y="398.96969696969694"/>
      <point x="243.36363636363635" y="398.96969696969694" type="curve" smooth="yes"/>
      <point x="303.27272727272725" y="398.96969696969694"/>
      <point x="334.93939393939394" y="344.57575757575756"/>
      <point x="334.93939393939394" y="267.42424242424244" type="curve" smooth="yes"/>
      <point x="334.93939393939394" y="133.33333333333334"/>
      <point x="273.3333333333333" y="20.515151515151516"/>
    </contour>
  </outline>
</glyph>
<glyph name="seven" format="2">
  <advance width="431.84848484848493"/>
  <unicode hex="0037"/>
  <outline>
    <contour>
      <point x="87.27272727272728" y="0.0" type="line"/>
      <point x="124.48484848484848" y="0.0" type="line"/>
      <point x="460.6060606060607" y="701.6060606060606" type="line"/>
      <point x="463.24242424242425" y="714.0" type="line"/>
      <point x="133.1818181818182" y="714.0" type="line"/>
      <point x="97.27272727272727" y="576.1818181818182" type="line"/>
      <point x="121.0909090909091" y="576.1818181818182" type="line"/>
      <point x="138.8181818181818" y="637.2121212121212" type="line" smooth="yes"/>
      <point x="148.6060606060606" y="670.2121212121211"/>
      <point x="157.15151515151516" y="678.1818181818182"/>
      <point x="191.66666666666669" y="678.1818181818182" type="curve" smooth="yes"/>
      <point x="417.6363636363636" y="678.1818181818182" type="line"/>
    </contour>
  </outline>
</glyph>
<glyph name="eight" format="2">
  <advance width="431.84848484848493"/>
  <unicode hex="0038"/>
  <outline>
    <contour>
      <point x="181.45454545454547" y="-10.0" type="curve" smooth="yes"/>
      <point x="288.7878787878788" y="-10.0"/>
      <point x="372.1818181818182" y="66.3030303030303"/>
      <point x="372.1818181818182" y="203.12121212121212" type="curve" smooth="yes"/>
      <point x="372.1818181818182" y="278.1212121212121"/>
      <point x="335.7575757575758" y="330.3333333333333"/>
      <point x="261.6363636363636" y="375.27272727272725" type="curve"/>
      <point x="355.5757575757576" y="420.6969696969697"/>
      <point x="426.969696969697" y="480.0"/>
      <point x="426.969696969697" y="585.5757575757576" type="curve" smooth="yes"/>
      <point x="426.969696969697" y="662.6363636363636"/>
      <point x="378.6969696969697" y="724.0"/>
      <point x="288.42424242424244" y="724.0" type="curve" smooth="yes"/>
      <point x="170.63636363636363" y="724.0"/>
      <point x="109.69696969696969" y="632.0"/>
      <point x="109.69696969696969" y="534.6060606060606" type="curve" smooth="yes"/>
      <point x="109.69696969696969" y="468.5151515151515"/>
      <point x="135.33333333333334" y="416.45454545454544"/>
      <point x="195.87878787878788" y="373.6666666666667" type="curve"/>
      <point x="95.72727272727272" y="328.8787878787879"/>
      <point x="16.272727272727273" y="267.0"/>
      <point x="16.272727272727273" y="151.0" type="curve" smooth="yes"/>
      <point x="16.272727272727273" y="58.57575757575758"/>
      <point x="75.54545454545455" y="-10.0"/>
    </contour>
    <contour>
      <point x="181.66666666666666" y="19.878787878787882" type="curve" smooth="yes"/>
      <point x="101.18181818181819" y="19.878787878787882"/>
      <point x="56.151515151515156" y="75.6969696969697"/>
      <point x="56.151515151515156" y="151.21212121212122" type="curve" smooth="yes"/>
      <point x="56.151515151515156" y="256.6666666666667"/>
      <point x="134.66666666666666" y="319.1818181818182"/>
      <point x="221.27272727272725" y="356.7575757575758" type="curve"/>
      <point x="299.66666666666663" y="309.6060606060606"/>
      <point x="332.09090909090907" y="271.5454545454545"/>
      <point x="332.09090909090907" y="196.45454545454547" type="curve" smooth="yes"/>
      <point x="332.09090909090907" y="85.63636363636364"/>
      <point x="263.8484848484849" y="19.878787878787882"/>
    </contour>
    <contour>
      <point x="236.03030303030303" y="392.1818181818182" type="curve"/>
      <point x="167.9090909090909" y="436.27272727272725"/>
      <point x="150.21212121212122" y="479.21212121212125"/>
      <point x="150.21212121212122" y="537.3636363636363" type="curve" smooth="yes"/>
      <point x="150.21212121212122" y="616.8484848484849"/>
      <point x="198.72727272727272" y="693.909090909091"/>
      <point x="287.3636363636363" y="693.909090909091" type="curve" smooth="yes"/>
      <point x="353.1212121212121" y="693.909090909091"/>
      <point x="388.1515151515151" y="644.2424242424242"/>
      <point x="388.1515151515151" y="584.3030303030303" type="curve" smooth="yes"/>
      <point x="388.1515151515151" y="500.4848484848485"/>
      <point x="339.3030303030303" y="441.3333333333333"/>
    </contour>
  </outline>
</glyph>
<glyph name="nine" format="2">
  <advance width="431.84848484848493"/>
  <unicode hex="0039"/>
  <outline>
    <contour>
      <point x="144.63636363636365" y="-10.0" type="curve" smooth="yes"/>
      <point x="305.1212121212121" y="-10.0"/>
      <point x="404.72727272727275" y="278.5151515151515"/>
      <point x="404.72727272727275" y="525.9393939393939" type="curve" smooth="yes"/>
      <point x="404.72727272727275" y="672.0303030303031"/>
      <point x="346.3636363636364" y="724.0"/>
      <point x="275.6969696969697" y="724.0" type="curve" smooth="yes"/>
      <point x="161.21212121212122" y="724.0"/>
      <point x="84.57575757575756" y="596.4848484848485"/>
      <point x="84.57575757575756" y="442.6060606060606" type="curve" smooth="yes"/>
      <point x="84.57575757575756" y="353.96969696969694"/>
      <point x="121.9090909090909" y="278.93939393939394"/>
      <point x="209.4242424242424" y="278.93939393939394" type="curve" smooth="yes"/>
      <point x="268.57575757575756" y="278.93939393939394"/>
      <point x="321.3939393939394" y="315.09090909090907"/>
      <point x="345.45454545454544" y="342.2121212121212" type="curve"/>
      <point x="311.27272727272725" y="163.78787878787878"/>
      <point x="238.0" y="19.878787878787882"/>
      <point x="147.75757575757575" y="19.878787878787882" type="curve" smooth="yes"/>
      <point x="85.57575757575758" y="19.878787878787882"/>
      <point x="72.72727272727272" y="68.78787878787878"/>
      <point x="73.15151515151516" y="127.24242424242426" type="curve"/>
      <point x="50.12121212121212" y="127.24242424242426"/>
      <point x="39.72727272727273" y="111.2121212121212"/>
      <point x="39.72727272727273" y="89.18181818181817" type="curve" smooth="yes"/>
      <point x="39.72727272727273" y="44.03030303030303"/>
      <point x="65.57575757575756" y="-10.0"/>
    </contour>
    <contour>
      <point x="215.15151515151516" y="309.6666666666667" type="curve" smooth="yes"/>
      <point x="155.45454545454547" y="309.6666666666667"/>
      <point x="125.51515151515152" y="367.5151515151515"/>
      <point x="125.51515151515152" y="442.75757575757575" type="curve" smooth="yes"/>
      <point x="125.51515151515152" y="573.8787878787879"/>
      <point x="184.60606060606062" y="693.4848484848485"/>
      <point x="273.6363636363636" y="693.4848484848485" type="curve" smooth="yes"/>
      <point x="325.24242424242425" y="693.4848484848485"/>
      <point x="365.06060606060606" y="646.4545454545455"/>
      <point x="365.06060606060606" y="525.5757575757576" type="curve" smooth="yes"/>
      <point x="365.06060606060606" y="489.1515151515152"/>
      <point x="361.0" y="440.18181818181813"/>
      <point x="353.3636363636364" y="386.42424242424244" type="curve"/>
      <point x="322.2727272727273" y="349.1515151515152"/>
      <point x="268.30303030303025" y="309.6666666666667"/>
    </contour>
  </outline>
</glyph>
<glyph name="colon" format="2">
  <advance width="176.45454545454547"/>
  <unicode hex="003A"/>
  <outline>
    <contour>
      <point x="133.1818181818182" y="451.6969696969697" type="curve" smooth="yes"/>
      <point x="151.93939393939394" y="451.6969696969697"/>
      <point x="171.12121212121212" y="468.75757575757575"/>
      <point x="171.12121212121212" y="505.48484848484844" type="curve" smooth="yes"/>
      <point x="171.12121212121212" y="530.6666666666667"/>
      <point x="158.0" y="541.7878787878788"/>
      <point x="140.60606060606062" y="541.7878787878788" type="curve" smooth="yes"/>
      <point x="118.00000000000001" y="541.7878787878788"/>
      <point x="101.0909090909091" y="520.6060606060605"/>
      <point x="101.0909090909091" y="488.5757575757576" type="curve" smooth="yes"/>
      <point x="101.0909090909091" y="463.6060606060606"/>
      <point x="113.21212121212122" y="451.6969696969697"/>
    </contour>
    <contour>
      <point x="32.939393939393945" y="-6.424242424242425" type="curve" smooth="yes"/>
      <point x="51.6969696969697" y="-6.424242424242425"/>
      <point x="71.0909090909091" y="10.636363636363637"/>
      <point x="71.0909090909091" y="47.36363636363636" type="curve" smooth="yes"/>
      <point x="71.0909090909091" y="72.54545454545455"/>
      <point x="57.75757575757575" y="83.66666666666666"/>
      <point x="40.57575757575758" y="83.66666666666666" type="curve" smooth="yes"/>
      <point x="17.75757575757576" y="83.66666666666666"/>
      <point x="0.8484848484848513" y="62.69696969696971"/>
      <point x="0.8484848484848513" y="30.666666666666668" type="curve" smooth="yes"/>
      <point x="0.8484848484848513" y="5.484848484848485"/>
      <point x="13.181818181818183" y="-6.424242424242425"/>
    </contour>
  </outline>
</glyph>
<glyph name="semicolon" format="2">
  <advance width="176.24242424242425"/>
  <unicode hex="003B"/>
  <outline>
    <contour>
      <point x="-39.0" y="-139.69696969696972" type="line"/>
      <point x="53.24242424242424" y="-114.6969696969697"/>
      <point x="79.45454545454547" y="-50.72727272727273"/>
      <point x="79.45454545454547" y="20.72727272727273" type="curve" smooth="yes"/>
      <point x="79.45454545454547" y="60.33333333333333"/>
      <point x="62.484848484848484" y="84.03030303030303"/>
      <point x="39.727272727272734" y="84.03030303030303" type="curve" smooth="yes"/>
      <point x="17.818181818181824" y="84.03030303030303"/>
      <point x="4.4242424242424265" y="68.75757575757576"/>
      <point x="4.4242424242424265" y="46.878787878787875" type="curve" smooth="yes"/>
      <point x="4.4242424242424265" y="12.06060606060606"/>
      <point x="41.757575757575765" y="12.424242424242424"/>
      <point x="41.757575757575765" y="-21.363636363636363" type="curve" smooth="yes"/>
      <point x="41.757575757575765" y="-60.0"/>
      <point x="17.6969696969697" y="-96.0909090909091"/>
      <point x="-38.515151515151516" y="-114.45454545454545" type="curve"/>
    </contour>
    <contour>
      <point x="133.1818181818182" y="451.6969696969697" type="curve" smooth="yes"/>
      <point x="151.72727272727275" y="451.6969696969697"/>
      <point x="171.12121212121212" y="468.75757575757575"/>
      <point x="171.12121212121212" y="505.48484848484844" type="curve" smooth="yes"/>
      <point x="171.12121212121212" y="530.6666666666667"/>
      <point x="157.78787878787878" y="541.7878787878788"/>
      <point x="140.60606060606062" y="541.7878787878788" type="curve" smooth="yes"/>
      <point x="118.00000000000001" y="541.7878787878788"/>
      <point x="101.0909090909091" y="520.6060606060605"/>
      <point x="101.0909090909091" y="488.5757575757576" type="curve" smooth="yes"/>
      <point x="101.0909090909091" y="463.6060606060606"/>
      <point x="113.21212121212122" y="451.6969696969697"/>
    </contour>
  </outline>
</glyph>
<glyph name="less" format="2">
  <advance width="425.0"/>
  <unicode hex="003C"/>
  <outline>
    <contour>
      <point x="392.27272727272725" y="115.72727272727272" type="line"/>
      <point x="392.27272727272725" y="158.0909090909091" type="line"/>
      <point x="104.84848484848486" y="357.0" type="line"/>
      <point x="392.27272727272725" y="558.121212121212" type="line"/>
      <point x="392.27272727272725" y="600.2727272727274" type="line"/>
      <point x="64.3030303030303" y="371.8484848484849" type="line"/>
      <point x="64.3030303030303" y="343.1515151515151" type="line"/>
    </contour>
  </outline>
</glyph>
<glyph name="equal" format="2">
  <advance width="425.0"/>
  <unicode hex="003D"/>
  <outline>
    <contour>
      <point x="65.0909090909091" y="438.75757575757575" type="line"/>
      <point x="390.90909090909093" y="438.75757575757575" type="line"/>
      <point x="390.90909090909093" y="473.1212121212121" type="line"/>
      <point x="65.0909090909091" y="473.1212121212121" type="line"/>
    </contour>
    <contour>
      <point x="65.0909090909091" y="241.66666666666666" type="line"/>
      <point x="390.90909090909093" y="241.66666666666666" type="line"/>
      <point x="390.90909090909093" y="276.03030303030306" type="line"/>
      <point x="65.0909090909091" y="276.03030303030306" type="line"/>
    </contour>
  </outline>
</glyph>
<glyph name="greater" format="2">
  <advance width="425.0"/>
  <unicode hex="003E"/>
  <outline>
    <contour>
      <point x="64.3030303030303" y="115.72727272727272" type="line"/>
      <point x="392.27272727272725" y="343.1515151515151" type="line"/>
      <point x="392.27272727272725" y="371.8484848484849" type="line"/>
      <point x="64.3030303030303" y="600.2727272727274" type="line"/>
      <point x="64.3030303030303" y="558.121212121212" type="line"/>
      <point x="351.72727272727275" y="357.0" type="line"/>
      <point x="64.3030303030303" y="158.0909090909091" type="line"/>
    </contour>
  </outline>
</glyph>
<glyph name="question" format="2">
  <advance width="365.6060606060606"/>
  <unicode hex="003F"/>
  <outline>
    <contour>
      <point x="118.66666666666669" y="175.27272727272728" type="line"/>
      <point x="147.33333333333334" y="175.27272727272728" type="line"/>
      <point x="180.27272727272728" y="317.7878787878788" type="line"/>
      <point x="294.90909090909093" y="376.1515151515152"/>
      <point x="384.3333333333333" y="447.42424242424244"/>
      <point x="384.3333333333333" y="582.1515151515151" type="curve" smooth="yes"/>
      <point x="384.3333333333333" y="667.6969696969697"/>
      <point x="335.7878787878788" y="724.0"/>
      <point x="255.39393939393938" y="724.0" type="curve" smooth="yes"/>
      <point x="165.51515151515153" y="724.0"/>
      <point x="111.12121212121211" y="654.2727272727274"/>
      <point x="111.12121212121211" y="588.4242424242424" type="curve" smooth="yes"/>
      <point x="111.12121212121211" y="566.0303030303031"/>
      <point x="123.0909090909091" y="548.1818181818181"/>
      <point x="141.0909090909091" y="548.1818181818181" type="curve"/>
      <point x="144.63636363636363" y="624.1818181818182"/>
      <point x="175.72727272727272" y="693.909090909091"/>
      <point x="252.12121212121212" y="693.909090909091" type="curve" smooth="yes"/>
      <point x="307.6666666666667" y="693.909090909091"/>
      <point x="342.75757575757575" y="649.2424242424242"/>
      <point x="342.75757575757575" y="579.9393939393939" type="curve" smooth="yes"/>
      <point x="342.75757575757575" y="457.9090909090909"/>
      <point x="258.0" y="387.3333333333333"/>
      <point x="149.84848484848484" y="338.75757575757575" type="curve"/>
    </contour>
    <contour>
      <point x="107.15151515151516" y="-6.424242424242425" type="curve" smooth="yes"/>
      <point x="126.12121212121212" y="-6.424242424242425"/>
      <point x="145.3030303030303" y="10.636363636363637"/>
      <point x="145.3030303030303" y="47.36363636363636" type="curve" smooth="yes"/>
      <point x="145.3030303030303" y="72.54545454545455"/>
      <point x="132.1818181818182" y="83.66666666666666"/>
      <point x="114.7878787878788" y="83.66666666666666" type="curve" smooth="yes"/>
      <point x="92.18181818181819" y="83.66666666666666"/>
      <point x="75.27272727272728" y="62.69696969696971"/>
      <point x="75.27272727272728" y="30.666666666666668" type="curve" smooth="yes"/>
      <point x="75.27272727272728" y="5.484848484848485"/>
      <point x="87.3939393939394" y="-6.424242424242425"/>
    </contour>
  </outline>
</glyph>
<glyph name="bracketleft" format="2">
  <advance width="246.21212121212125"/>
  <unicode hex="005B"/>
  <outline>
    <contour>
      <point x="-14.545454545454543" y="-128.0" type="line"/>
      <point x="127.39393939393939" y="-128.0" type="line"/>
      <point x="132.45454545454547" y="-103.54545454545455" type="line"/>
      <point x="89.57575757575758" y="-103.54545454545455" type="line" smooth="yes"/>
      <point x="56.78787878787878" y="-103.54545454545455"/>
      <point x="41.878787878787875" y="-98.33333333333333"/>
      <point x="41.878787878787875" y="-71.27272727272727" type="curve" smooth="yes"/>
      <point x="41.878787878787875" y="-59.75757575757575"/>
      <point x="44.45454545454546" y="-42.18181818181818"/>
      <point x="49.606060606060616" y="-20.0" type="curve"/>
      <point x="191.39393939393938" y="650.9393939393939" type="line"/>
      <point x="206.75757575757575" y="724.9696969696969"/>
      <point x="220.63636363636363" y="735.5454545454546"/>
      <point x="267.6666666666667" y="735.5454545454546" type="curve" smooth="yes"/>
      <point x="310.3333333333333" y="735.5454545454546" type="line"/>
      <point x="315.6060606060606" y="760.0" type="line"/>
      <point x="173.66666666666666" y="760.0" type="line"/>
    </contour>
  </outline>
</glyph>
<glyph name="backslash" format="2">
  <advance width="227.84848484848484"/>
  <unicode hex="005C"/>
  <outline>
    <contour>
      <point x="143.57575757575756" y="-121.0" type="line"/>
      <point x="176.03030303030303" y="-121.0" type="line"/>
      <point x="124.48484848484847" y="760.0" type="line"/>
      <point x="92.03030303030303" y="760.0" type="line"/>
    </contour>
  </outline>
</glyph>
<glyph name="bracketright" format="2">
  <advance width="246.21212121212125"/>
  <unicode hex="005D"/>
  <outline>
    <contour>
      <point x="-62.33333333333333" y="-128.0" type="line"/>
      <point x="79.60606060606061" y="-128.0" type="line"/>
      <point x="267.60606060606057" y="760.0" type="line"/>
      <point x="125.87878787878788" y="760.0" type="line"/>
      <point x="120.60606060606061" y="735.5454545454546" type="line"/>
      <point x="163.4848484848485" y="735.5454545454546" type="line" smooth="yes"/>
      <point x="196.0606060606061" y="735.5454545454546"/>
      <point x="211.3939393939394" y="730.3333333333333"/>
      <point x="211.3939393939394" y="703.2727272727273" type="curve" smooth="yes"/>
      <point x="211.3939393939394" y="693.9090909090909"/>
      <point x="207.8181818181818" y="674.3939393939394"/>
      <point x="203.45454545454547" y="652.0" type="curve" smooth="yes"/>
      <point x="61.66666666666667" y="-18.93939393939394" type="line"/>
      <point x="46.303030303030305" y="-92.96969696969697"/>
      <point x="32.42424242424243" y="-103.54545454545455"/>
      <point x="-14.393939393939394" y="-103.54545454545455" type="curve" smooth="yes"/>
      <point x="-57.06060606060606" y="-103.54545454545455" type="line"/>
    </contour>
  </outline>
</glyph>
<glyph name="asciicircum" format="2">
  <advance width="425.0"/>
  <unicode hex="005E"/>
  <outline>
    <contour>
      <point x="53.878787878787875" y="270.1515151515152" type="line"/>
      <point x="90.75757575757575" y="270.1515151515152" type="line"/>
      <point x="227.0" y="656.3030303030303" type="line"/>
      <point x="365.030303030303" y="270.1515151515152" type="line"/>
      <point x="401.9090909090909" y="270.1515151515152" type="line"/>
      <point x="239.63636363636363" y="714.0" type="line"/>
      <point x="214.36363636363635" y="714.0" type="line"/>
    </contour>
  </outline>
</glyph>
<glyph name="underscore" format="2">
  <advance width="363.06060606060606"/>
  <unicode hex="005F"/>
  <outline>
    <contour>
      <point x="-77.42424242424244" y="-130.1818181818182" type="line"/>
      <point x="295.0" y="-130.1818181818182" type="line"/>
      <point x="301.6969696969697" y="-97.96969696969697" type="line"/>
      <point x="-70.72727272727273" y="-97.96969696969697" type="line"/>
    </contour>
  </outline>
</glyph>
<glyph name="braceleft" format="2">
  <advance width="328.6666666666667"/>
  <unicode hex="007B"/>
  <outline>
    <contour>
      <point x="158.06060606060606" y="-131.15151515151516" type="curve" smooth="yes"/>
      <point x="181.12121212121212" y="-131.15151515151516" type="line"/>
      <point x="187.75757575757575" y="-104.12121212121211" type="line"/>
      <point x="169.63636363636365" y="-104.12121212121211" type="line" smooth="yes"/>
      <point x="128.75757575757578" y="-104.12121212121211"/>
      <point x="115.33333333333333" y="-84.12121212121212"/>
      <point x="115.33333333333333" y="-48.484848484848484" type="curve" smooth="yes"/>
      <point x="115.33333333333333" y="-26.818181818181817"/>
      <point x="118.90909090909092" y="-8.454545454545453"/>
      <point x="123.6969696969697" y="14.272727272727273" type="curve" smooth="yes"/>
      <point x="159.69696969696972" y="179.63636363636363" type="line" smooth="yes"/>
      <point x="162.6969696969697" y="195.21212121212122"/>
      <point x="165.69696969696972" y="215.93939393939394"/>
      <point x="165.69696969696972" y="230.57575757575756" type="curve" smooth="yes"/>
      <point x="165.69696969696972" y="271.6363636363637"/>
      <point x="149.0" y="297.1212121212121"/>
      <point x="115.03030303030302" y="311.6363636363636" type="curve"/>
      <point x="115.03030303030302" y="313.8484848484848" type="line"/>
      <point x="164.27272727272728" y="326.6363636363637"/>
      <point x="197.90909090909093" y="355.66666666666663"/>
      <point x="212.6969696969697" y="425.8181818181818" type="curve" smooth="yes"/>
      <point x="254.0" y="619.1818181818181" type="line" smooth="yes"/>
      <point x="271.0" y="700.3939393939395"/>
      <point x="296.2121212121212" y="731.3939393939394"/>
      <point x="346.72727272727275" y="731.3939393939394" type="curve" smooth="yes"/>
      <point x="364.8484848484848" y="731.3939393939394" type="line"/>
      <point x="371.6969696969697" y="760.0" type="line"/>
      <point x="341.75757575757575" y="760.0" type="line" smooth="yes"/>
      <point x="274.1818181818182" y="760.0"/>
      <point x="235.6969696969697" y="722.2424242424242"/>
      <point x="214.4848484848485" y="623.0909090909091" type="curve" smooth="yes"/>
      <point x="172.33333333333334" y="428.030303030303" type="line" smooth="yes"/>
      <point x="158.06060606060606" y="363.1515151515151"/>
      <point x="122.15151515151516" y="331.33333333333337"/>
      <point x="56.54545454545455" y="329.1212121212121" type="curve"/>
      <point x="50.69696969696969" y="301.72727272727275" type="line"/>
      <point x="101.57575757575756" y="298.93939393939394"/>
      <point x="124.9090909090909" y="275.6363636363637"/>
      <point x="124.9090909090909" y="231.72727272727272" type="curve" smooth="yes"/>
      <point x="124.9090909090909" y="218.15151515151513"/>
      <point x="123.12121212121212" y="200.42424242424244"/>
      <point x="120.12121212121212" y="185.84848484848484" type="curve" smooth="yes"/>
      <point x="84.18181818181819" y="17.66666666666667" type="line" smooth="yes"/>
      <point x="78.3939393939394" y="-9.27272727272727"/>
      <point x="75.96969696969697" y="-25.909090909090907"/>
      <point x="75.96969696969697" y="-48.90909090909091" type="curve" smooth="yes"/>
      <point x="75.96969696969697" y="-94.2121212121212"/>
      <point x="100.57575757575758" y="-131.15151515151516"/>
    </contour>
  </outline>
</glyph>
<glyph name="bar" format="2">
  <advance width="427.030303030303"/>
  <unicode hex="007C"/>
  <outline>
    <contour>
      <point x="206.15151515151516" y="-240.0" type="line"/>
      <point x="239.03030303030306" y="-240.0" type="line"/>
      <point x="239.03030303030306" y="760.0" type="line"/>
      <point x="206.15151515151516" y="760.0" type="line"/>
    </contour>
  </outline>
</glyph>
<glyph name="braceright" format="2">
  <advance width="328.45454545454544"/>
  <unicode hex="007D"/>
  <outline>
    <contour>
      <point x="-21.78787878787879" y="-131.36363636363637" type="line"/>
      <point x="8.151515151515152" y="-131.36363636363637" type="line" smooth="yes"/>
      <point x="77.99999999999999" y="-131.36363636363637"/>
      <point x="114.84848484848486" y="-92.60606060606061"/>
      <point x="135.63636363636365" y="5.545454545454546" type="curve" smooth="yes"/>
      <point x="177.36363636363637" y="200.81818181818184" type="line" smooth="yes"/>
      <point x="191.4242424242424" y="265.69696969696975"/>
      <point x="227.75757575757578" y="297.93939393939394"/>
      <point x="293.1515151515152" y="300.1515151515151" type="curve"/>
      <point x="299.2121212121212" y="327.54545454545456" type="line"/>
      <point x="248.33333333333331" y="330.3333333333333"/>
      <point x="224.78787878787878" y="353.2121212121212"/>
      <point x="224.78787878787878" y="397.33333333333337" type="curve" smooth="yes"/>
      <point x="224.78787878787878" y="411.33333333333337"/>
      <point x="226.7878787878788" y="428.42424242424244"/>
      <point x="229.78787878787878" y="443.0" type="curve" smooth="yes"/>
      <point x="266.57575757575756" y="615.6363636363636" type="line" smooth="yes"/>
      <point x="272.1515151515152" y="641.5151515151515"/>
      <point x="273.93939393939394" y="656.878787878788"/>
      <point x="273.93939393939394" y="678.1818181818181" type="curve" smooth="yes"/>
      <point x="273.93939393939394" y="720.3030303030304"/>
      <point x="251.24242424242425" y="760.0"/>
      <point x="193.12121212121212" y="760.0" type="curve" smooth="yes"/>
      <point x="168.78787878787878" y="760.0" type="line"/>
      <point x="162.15151515151516" y="732.9696969696969" type="line"/>
      <point x="180.27272727272728" y="732.9696969696969" type="line" smooth="yes"/>
      <point x="221.15151515151516" y="732.9696969696969"/>
      <point x="234.57575757575756" y="713.3939393939394"/>
      <point x="234.57575757575756" y="678.8181818181819" type="curve" smooth="yes"/>
      <point x="234.57575757575756" y="655.0303030303031"/>
      <point x="231.0" y="637.0909090909091"/>
      <point x="226.21212121212122" y="614.3636363636364" type="curve" smooth="yes"/>
      <point x="190.21212121212122" y="448.78787878787875" type="line" smooth="yes"/>
      <point x="187.2121212121212" y="433.2121212121212"/>
      <point x="184.21212121212122" y="412.90909090909093"/>
      <point x="184.21212121212122" y="398.4848484848485" type="curve" smooth="yes"/>
      <point x="184.21212121212122" y="357.4242424242424"/>
      <point x="200.6969696969697" y="332.3636363636364"/>
      <point x="234.66666666666666" y="317.6363636363637" type="curve"/>
      <point x="234.66666666666666" y="315.2121212121212" type="line"/>
      <point x="185.63636363636365" y="302.42424242424244"/>
      <point x="151.78787878787878" y="273.1818181818182"/>
      <point x="137.0" y="203.24242424242425" type="curve" smooth="yes"/>
      <point x="95.27272727272728" y="7.969696969696971" type="line" smooth="yes"/>
      <point x="78.27272727272727" y="-71.60606060606061"/>
      <point x="54.90909090909091" y="-102.75757575757575"/>
      <point x="4.757575757575756" y="-102.75757575757575" type="curve" smooth="yes"/>
      <point x="-15.15151515151515" y="-102.75757575757575" type="line"/>
    </contour>
  </outline>
</glyph>
<glyph name="asciitilde" format="2">
  <advance width="425.0"/>
  <unicode hex="007E"/>
  <outline>
    <contour>
      <point x="59.18181818181818" y="275.5151515151515" type="curve"/>
      <point x="92.6969696969697" y="275.5151515151515" type="line"/>
      <point x="101.84848484848484" y="353.3636363636364"/>
      <point x="112.48484848484847" y="404.75757575757575"/>
      <point x="150.0" y="404.75757575757575" type="curve" smooth="yes"/>
      <point x="171.0" y="404.75757575757575"/>
      <point x="184.21212121212122" y="388.9090909090909"/>
      <point x="217.93939393939394" y="342.8787878787879" type="curve" smooth="yes"/>
      <point x="253.90909090909093" y="293.75757575757575"/>
      <point x="275.54545454545456" y="276.3030303030303"/>
      <point x="307.9090909090909" y="276.3030303030303" type="curve" smooth="yes"/>
      <point x="375.7575757575758" y="276.3030303030303"/>
      <point x="390.45454545454544" y="366.72727272727275"/>
      <point x="398.03030303030306" y="436.9090909090909" type="curve"/>
      <point x="364.51515151515156" y="436.9090909090909" type="line"/>
      <point x="355.3636363636364" y="359.06060606060606"/>
      <point x="344.3636363636364" y="309.24242424242425"/>
      <point x="307.06060606060606" y="309.24242424242425" type="curve" smooth="yes"/>
      <point x="286.06060606060606" y="309.24242424242425"/>
      <point x="271.8484848484849" y="323.7272727272727"/>
      <point x="238.90909090909093" y="369.3333333333333" type="curve" smooth="yes"/>
      <point x="205.27272727272728" y="415.6363636363636"/>
      <point x="183.4242424242424" y="437.6969696969697"/>
      <point x="149.15151515151513" y="437.6969696969697" type="curve" smooth="yes"/>
      <point x="80.66666666666666" y="437.6969696969697"/>
      <point x="66.75757575757576" y="346.1212121212121"/>
    </contour>
  </outline>
</glyph>
<glyph name="twosuperior" format="2">
  <advance width="316.06060606060606"/>
  <unicode hex="00B2"/>
  <outline>
    <contour>
      <point x="60.00000000000001" y="386.0" type="line"/>
      <point x="276.06060606060606" y="386.0" type="line"/>
      <point x="302.27272727272725" y="481.5151515151515" type="line"/>
      <point x="280.5757575757576" y="481.5151515151515" type="line"/>
      <point x="273.5757575757576" y="460.5151515151515" type="line" smooth="yes"/>
      <point x="261.06060606060606" y="423.54545454545456"/>
      <point x="256.93939393939394" y="416.3636363636364"/>
      <point x="227.21212121212125" y="416.3636363636364" type="curve" smooth="yes"/>
      <point x="111.42424242424242" y="416.3636363636364" type="line"/>
      <point x="205.27272727272728" y="511.7272727272727" type="line" smooth="yes"/>
      <point x="301.4848484848485" y="609.4545454545455"/>
      <point x="333.06060606060606" y="662.7575757575758"/>
      <point x="333.06060606060606" y="722.7575757575758" type="curve" smooth="yes"/>
      <point x="333.06060606060606" y="783.2727272727273"/>
      <point x="295.6363636363637" y="820.8484848484848"/>
      <point x="236.57575757575756" y="820.8484848484848" type="curve" smooth="yes"/>
      <point x="163.72727272727272" y="820.8484848484848"/>
      <point x="120.66666666666666" y="759.6060606060606"/>
      <point x="120.66666666666666" y="720.1212121212121" type="curve" smooth="yes"/>
      <point x="120.66666666666666" y="699.4242424242424"/>
      <point x="128.42424242424244" y="688.5151515151515"/>
      <point x="150.54545454545453" y="688.5151515151515" type="curve"/>
      <point x="152.03030303030303" y="747.0303030303031"/>
      <point x="184.48484848484847" y="793.4545454545455"/>
      <point x="234.09090909090907" y="793.4545454545455" type="curve" smooth="yes"/>
      <point x="270.1818181818182" y="793.4545454545455"/>
      <point x="297.1515151515151" y="771.6060606060605"/>
      <point x="297.1515151515151" y="722.060606060606" type="curve" smooth="yes"/>
      <point x="297.1515151515151" y="659.7575757575758"/>
      <point x="258.6969696969697" y="605.2424242424242"/>
      <point x="174.8181818181818" y="517.7878787878788" type="curve" smooth="yes"/>
      <point x="65.06060606060606" y="403.6666666666667" type="line"/>
    </contour>
  </outline>
</glyph>
<glyph name="threesuperior" format="2">
  <advance width="316.06060606060606"/>
  <unicode hex="00B3"/>
  <outline>
    <contour>
      <point x="171.1818181818182" y="378.42424242424244" type="curve" smooth="yes"/>
      <point x="247.7878787878788" y="378.42424242424244"/>
      <point x="310.27272727272725" y="426.8484848484849"/>
      <point x="310.27272727272725" y="511.6969696969697" type="curve" smooth="yes"/>
      <point x="310.27272727272725" y="560.9090909090909"/>
      <point x="282.06060606060606" y="600.8484848484849"/>
      <point x="236.63636363636365" y="607.8484848484849" type="curve"/>
      <point x="235.84848484848484" y="609.2727272727273" type="line"/>
      <point x="303.3636363636364" y="623.1212121212121"/>
      <point x="343.06060606060606" y="661.8484848484849"/>
      <point x="343.06060606060606" y="727.5454545454545" type="curve" smooth="yes"/>
      <point x="343.06060606060606" y="784.2121212121212"/>
      <point x="304.54545454545456" y="820.8484848484849"/>
      <point x="243.36363636363637" y="820.8484848484849" type="curve" smooth="yes"/>
      <point x="168.30303030303028" y="820.8484848484849"/>
      <point x="122.66666666666666" y="774.5454545454546"/>
      <point x="122.66666666666666" y="727.5454545454546" type="curve" smooth="yes"/>
      <point x="122.66666666666666" y="704.4242424242424"/>
      <point x="131.63636363636365" y="698.5757575757576"/>
      <point x="153.1818181818182" y="698.5757575757576" type="curve"/>
      <point x="155.3030303030303" y="761.1212121212121"/>
      <point x="185.4848484848485" y="793.2424242424242"/>
      <point x="240.3030303030303" y="793.2424242424242" type="curve" smooth="yes"/>
      <point x="281.8484848484849" y="793.2424242424242"/>
      <point x="306.5151515151515" y="767.3636363636364"/>
      <point x="306.5151515151515" y="726.4848484848485" type="curve" smooth="yes"/>
      <point x="306.5151515151515" y="667.6363636363637"/>
      <point x="266.3939393939394" y="622.9090909090909"/>
      <point x="185.87878787878788" y="622.9090909090909" type="curve" smooth="yes"/>
      <point x="159.66666666666669" y="622.9090909090909" type="line"/>
      <point x="154.03030303030303" y="595.5151515151515" type="line"/>
      <point x="180.8181818181818" y="595.5151515151515" type="line" smooth="yes"/>
      <point x="244.84848484848482" y="595.5151515151515"/>
      <point x="273.93939393939394" y="562.5757575757576"/>
      <point x="273.93939393939394" y="511.27272727272725" type="curve" smooth="yes"/>
      <point x="273.93939393939394" y="440.75757575757575"/>
      <point x="229.06060606060603" y="406.8787878787879"/>
      <point x="173.45454545454544" y="406.8787878787879" type="curve" smooth="yes"/>
      <point x="115.57575757575758" y="406.8787878787879"/>
      <point x="96.2121212121212" y="435.5454545454545"/>
      <point x="98.21212121212122" y="502.3333333333333" type="curve"/>
      <point x="79.66666666666667" y="502.3333333333333"/>
      <point x="67.69696969696969" y="490.2121212121212"/>
      <point x="67.69696969696969" y="470.1818181818182" type="curve" smooth="yes"/>
      <point x="67.69696969696969" y="412.78787878787875"/>
      <point x="100.75757575757575" y="378.42424242424244"/>
    </contour>
  </outline>
</glyph>
<glyph name="multiply" format="2">
  <advance width="425.0"/>
  <unicode hex="00D7"/>
  <outline>
    <contour>
      <point x="95.12121212121212" y="150.21212121212122" type="line"/>
      <point x="234.15151515151516" y="334.4848484848485" type="line"/>
      <point x="372.969696969697" y="150.21212121212122" type="line"/>
      <point x="400.2121212121212" y="171.8181818181818" type="line"/>
      <point x="255.75757575757578" y="361.93939393939394" type="line"/>
      <point x="400.2121212121212" y="553.4242424242425" type="line"/>
      <point x="373.75757575757575" y="574.2424242424242" type="line"/>
      <point x="234.15151515151516" y="390.3939393939394" type="line"/>
      <point x="94.33333333333334" y="574.4545454545455" type="line"/>
      <point x="67.87878787878789" y="553.6363636363636" type="line"/>
      <point x="212.54545454545456" y="361.93939393939394" type="line"/>
      <point x="67.87878787878788" y="171.60606060606062" type="line"/>
    </contour>
  </outline>
</glyph>
<glyph name="udatta-deva" format="2">
  <unicode hex="0951"/>
  <anchor x="56.63636363636364" y="544.5454545454545" name="_vedic"/>
  <outline>
    <contour>
      <point x="118.3030303030303" y="905.1818181818181" type="line"/>
      <point x="149.1818181818182" y="905.1818181818181" type="line"/>
      <point x="188.6060606060606" y="1091.5151515151515" type="line"/>
      <point x="157.72727272727272" y="1091.5151515151515" type="line"/>
    </contour>
  </outline>
</glyph>
<glyph name="anudatta-deva" format="2">
  <unicode hex="0952"/>
  <anchor x="-59.0" y="0.0" name="_bottom"/>
  <outline>
    <contour>
      <point x="-339.42424242424244" y="-456.03030303030306" type="line"/>
      <point x="27.78787878787879" y="-456.03030303030306" type="line"/>
      <point x="35.484848484848484" y="-422.90909090909093" type="line"/>
      <point x="-332.5151515151515" y="-422.90909090909093" type="line"/>
    </contour>
  </outline>
</glyph>
<glyph name="danda-deva" format="2">
  <advance width="241.0"/>
  <unicode hex="0964"/>
  <outline>
    <contour>
      <point x="42.42424242424242" y="0.0" type="line"/>
      <point x="83.15151515151516" y="0.0" type="line"/>
      <point x="199.57575757575756" y="544.5454545454545" type="line"/>
      <point x="157.84848484848484" y="544.5454545454545" type="line"/>
    </contour>
  </outline>
</glyph>
<glyph name="dbldanda-deva" format="2">
  <advance width="435.0"/>
  <unicode hex="0965"/>
  <outline>
    <contour>
      <point x="236.4242424242424" y="0.0" type="line"/>
      <point x="277.1515151515152" y="0.0" type="line"/>
      <point x="392.7878787878788" y="544.5454545454545" type="line"/>
      <point x="351.8484848484848" y="544.5454545454545" type="line"/>
    </contour>
    <contour>
      <point x="42.42424242424242" y="0.0" type="line"/>
      <point x="83.15151515151516" y="0.0" type="line"/>
      <point x="199.57575757575756" y="544.5454545454545" type="line"/>
      <point x="157.84848484848484" y="544.5454545454545" type="line"/>
    </contour>
  </outline>
</glyph>
<glyph name="anusvara-tamil" format="2">
  <unicode hex="0B82"/>
  <note>
uni0B82
</note>
  <anchor x="56.63636363636364" y="544.5454545454545" name="_top"/>
  <outline>
    <contour>
      <point x="99.36363636363636" y="646.3939393939394" type="curve" smooth="yes"/>
      <point x="153.06060606060606" y="646.3939393939394"/>
      <point x="189.96969696969694" y="684.8181818181818"/>
      <point x="189.96969696969694" y="737.1515151515151" type="curve" smooth="yes"/>
      <point x="189.96969696969694" y="789.2727272727273"/>
      <point x="153.06060606060606" y="828.6969696969696"/>
      <point x="99.36363636363636" y="828.6969696969696" type="curve" smooth="yes"/>
      <point x="45.66666666666667" y="828.6969696969696"/>
      <point x="8.757575757575758" y="789.2727272727273"/>
      <point x="8.757575757575758" y="737.1515151515151" type="curve" smooth="yes"/>
      <point x="8.757575757575758" y="684.8181818181818"/>
      <point x="45.66666666666667" y="646.3939393939394"/>
    </contour>
    <contour>
      <point x="99.36363636363636" y="677.5454545454545" type="curve" smooth="yes"/>
      <point x="65.27272727272727" y="677.5454545454545"/>
      <point x="41.75757575757576" y="702.8484848484849"/>
      <point x="41.75757575757576" y="737.1515151515151" type="curve" smooth="yes"/>
      <point x="41.75757575757576" y="771.4545454545455"/>
      <point x="65.27272727272727" y="797.5454545454545"/>
      <point x="99.36363636363636" y="797.5454545454545" type="curve" smooth="yes"/>
      <point x="133.45454545454547" y="797.5454545454545"/>
      <point x="156.96969696969697" y="771.4545454545455"/>
      <point x="156.96969696969697" y="737.1515151515151" type="curve" smooth="yes"/>
      <point x="156.96969696969697" y="702.8484848484849"/>
      <point x="133.45454545454547" y="677.5454545454545"/>
    </contour>
  </outline>
</glyph>
<glyph name="visarga-tamil" format="2">
  <advance width="635.7575757575758"/>
  <unicode hex="0B83"/>
  <note>
uni0B83
</note>
  <outline>
    <contour>
      <point x="110.18181818181819" y="0.0" type="curve" smooth="yes"/>
      <point x="208.75757575757575" y="0.0"/>
      <point x="264.1515151515151" y="129.54545454545456"/>
      <point x="264.3636363636364" y="240.66666666666669" type="curve" smooth="yes"/>
      <point x="264.57575757575756" y="315.4848484848485"/>
      <point x="233.03030303030306" y="363.4848484848485"/>
      <point x="177.12121212121212" y="363.4848484848485" type="curve" smooth="yes"/>
      <point x="80.84848484848484" y="363.4848484848485"/>
      <point x="26.575757575757578" y="229.84848484848484"/>
      <point x="26.575757575757578" y="114.60606060606061" type="curve" smooth="yes"/>
      <point x="26.575757575757578" y="47.06060606060606"/>
      <point x="54.33333333333333" y="0.0"/>
    </contour>
    <contour>
      <point x="110.96969696969698" y="31.939393939393938" type="curve" smooth="yes"/>
      <point x="71.3939393939394" y="31.939393939393938"/>
      <point x="54.666666666666664" y="67.30303030303031"/>
      <point x="54.666666666666664" y="115.87878787878788" type="curve" smooth="yes"/>
      <point x="54.666666666666664" y="205.57575757575756"/>
      <point x="96.3939393939394" y="332.33333333333337"/>
      <point x="170.7878787878788" y="332.33333333333337" type="curve" smooth="yes"/>
      <point x="212.0909090909091" y="332.33333333333337"/>
      <point x="229.8787878787879" y="297.6666666666667"/>
      <point x="229.8787878787879" y="244.0909090909091" type="curve" smooth="yes"/>
      <point x="229.8787878787879" y="152.6969696969697"/>
      <point x="189.15151515151516" y="31.939393939393938"/>
    </contour>
    <contour>
      <point x="415.57575757575756" y="0.0" type="curve" smooth="yes"/>
      <point x="514.1515151515151" y="0.0"/>
      <point x="569.5454545454545" y="129.54545454545456"/>
      <point x="569.7575757575758" y="240.66666666666669" type="curve" smooth="yes"/>
      <point x="569.9696969696969" y="315.4848484848485"/>
      <point x="538.4242424242424" y="363.4848484848485"/>
      <point x="482.5151515151515" y="363.4848484848485" type="curve" smooth="yes"/>
      <point x="386.2424242424242" y="363.4848484848485"/>
      <point x="331.969696969697" y="229.84848484848484"/>
      <point x="331.969696969697" y="114.60606060606061" type="curve" smooth="yes"/>
      <point x="331.969696969697" y="47.06060606060606"/>
      <point x="359.72727272727275" y="0.0"/>
    </contour>
    <contour>
      <point x="416.3636363636364" y="31.939393939393938" type="curve" smooth="yes"/>
      <point x="376.78787878787875" y="31.939393939393938"/>
      <point x="360.06060606060606" y="67.30303030303031"/>
      <point x="360.06060606060606" y="115.87878787878788" type="curve" smooth="yes"/>
      <point x="360.06060606060606" y="205.57575757575756"/>
      <point x="401.7878787878788" y="332.33333333333337"/>
      <point x="476.18181818181824" y="332.33333333333337" type="curve" smooth="yes"/>
      <point x="517.4848484848485" y="332.33333333333337"/>
      <point x="535.2727272727274" y="297.6666666666667"/>
      <point x="535.2727272727274" y="244.0909090909091" type="curve" smooth="yes"/>
      <point x="535.2727272727274" y="152.6969696969697"/>
      <point x="494.5454545454545" y="31.939393939393938"/>
    </contour>
    <contour>
      <point x="346.72727272727275" y="405.6969696969697" type="curve" smooth="yes"/>
      <point x="445.30303030303037" y="405.6969696969697"/>
      <point x="500.6969696969697" y="535.2424242424242"/>
      <point x="500.9090909090909" y="646.3636363636364" type="curve" smooth="yes"/>
      <point x="501.1212121212121" y="721.1818181818181"/>
      <point x="469.5757575757576" y="769.1818181818181"/>
      <point x="413.6666666666667" y="769.1818181818181" type="curve" smooth="yes"/>
      <point x="317.3939393939394" y="769.1818181818181"/>
      <point x="263.1212121212121" y="635.5454545454546"/>
      <point x="263.1212121212121" y="520.3030303030304" type="curve" smooth="yes"/>
      <point x="263.1212121212121" y="452.75757575757575"/>
      <point x="290.8787878787879" y="405.6969696969697"/>
    </contour>
    <contour>
      <point x="347.51515151515156" y="437.6363636363636" type="curve" smooth="yes"/>
      <point x="307.93939393939394" y="437.6363636363636"/>
      <point x="291.21212121212125" y="473.0"/>
      <point x="291.21212121212125" y="521.5757575757576" type="curve" smooth="yes"/>
      <point x="291.21212121212125" y="611.2727272727274"/>
      <point x="332.93939393939394" y="738.030303030303"/>
      <point x="407.3333333333333" y="738.030303030303" type="curve" smooth="yes"/>
      <point x="448.6363636363636" y="738.030303030303"/>
      <point x="466.4242424242424" y="703.3636363636364"/>
      <point x="466.4242424242424" y="649.7878787878789" type="curve" smooth="yes"/>
      <point x="466.4242424242424" y="558.3939393939394"/>
      <point x="425.6969696969697" y="437.6363636363636"/>
    </contour>
  </outline>
</glyph>
<glyph name="a-tamil" format="2">
  <advance width="923.5454545454546"/>
  <unicode hex="0B85"/>
  <note>
uni0B85
</note>
  <anchor x="387.1515151515151" y="0.0" name="bottom"/>
  <anchor x="251.5757575757576" y="-84.96969696969697" name="nukta"/>
  <anchor x="503.96969696969694" y="544.5454545454545" name="top"/>
  <anchor x="505.18181818181813" y="544.5454545454545" name="vedic"/>
  <outline>
    <contour>
      <point x="705.3030303030303" y="-146.1818181818182" type="line"/>
      <point x="746.0303030303029" y="-146.1818181818182" type="line"/>
      <point x="893.5757575757576" y="544.5454545454545" type="line"/>
      <point x="852.0606060606061" y="544.5454545454545" type="line"/>
      <point x="771.6363636363637" y="165.4848484848485" type="line"/>
      <point x="55.24242424242425" y="165.4848484848485" type="line" smooth="yes"/>
      <point x="13.060606060606062" y="165.4848484848485"/>
      <point x="-5.424242424242425" y="134.78787878787878"/>
      <point x="-5.424242424242425" y="94.81818181818183" type="curve" smooth="yes"/>
      <point x="-5.424242424242425" y="19.0"/>
      <point x="85.42424242424242" y="-84.96969696969697"/>
      <point x="251.5757575757576" y="-84.96969696969697" type="curve" smooth="yes"/>
      <point x="500.90909090909093" y="-84.96969696969697"/>
      <point x="668.2121212121212" y="88.06060606060606"/>
      <point x="668.2121212121212" y="336.54545454545456" type="curve" smooth="yes"/>
      <point x="668.2121212121212" y="467.3333333333333"/>
      <point x="594.5454545454546" y="552.6969696969696"/>
      <point x="484.4242424242424" y="552.6969696969696" type="curve" smooth="yes"/>
      <point x="367.4848484848485" y="552.6969696969696"/>
      <point x="291.3939393939394" y="464.6060606060606"/>
      <point x="291.3939393939394" y="361.2121212121212" type="curve" smooth="yes"/>
      <point x="291.3939393939394" y="309.3030303030303"/>
      <point x="321.8181818181818" y="261.969696969697"/>
      <point x="376.21212121212125" y="261.969696969697" type="curve" smooth="yes"/>
      <point x="451.33333333333337" y="261.969696969697"/>
      <point x="496.66666666666663" y="327.6969696969697"/>
      <point x="496.66666666666663" y="410.8484848484849" type="curve" smooth="yes"/>
      <point x="496.66666666666663" y="459.3939393939394"/>
      <point x="474.6969696969697" y="510.1515151515151"/>
      <point x="447.39393939393943" y="531.1818181818181" type="curve"/>
      <point x="418.42424242424244" y="528.2424242424242" type="line"/>
      <point x="443.27272727272725" y="501.2121212121212"/>
      <point x="459.3333333333333" y="458.1515151515151"/>
      <point x="459.3333333333333" y="416.8181818181818" type="curve" smooth="yes"/>
      <point x="459.3333333333333" y="354.7272727272727"/>
      <point x="432.90909090909093" y="293.1212121212121"/>
      <point x="375.0909090909091" y="293.1212121212121" type="curve" smooth="yes"/>
      <point x="341.1515151515151" y="293.1212121212121"/>
      <point x="323.21212121212125" y="327.06060606060606"/>
      <point x="323.21212121212125" y="365.21212121212125" type="curve" smooth="yes"/>
      <point x="323.21212121212125" y="445.3636363636364"/>
      <point x="378.3333333333333" y="522.3333333333333"/>
      <point x="478.090909090909" y="522.3333333333333" type="curve" smooth="yes"/>
      <point x="571.6969696969697" y="522.3333333333333"/>
      <point x="626.4848484848485" y="446.1515151515151"/>
      <point x="626.4848484848485" y="335.54545454545456" type="curve" smooth="yes"/>
      <point x="626.4848484848485" y="118.06060606060605"/>
      <point x="481.8181818181818" y="-53.03030303030304"/>
      <point x="254.21212121212122" y="-53.03030303030304" type="curve" smooth="yes"/>
      <point x="110.69696969696969" y="-53.03030303030304"/>
      <point x="27.87878787878788" y="31.666666666666664"/>
      <point x="27.87878787878788" y="98.39393939393939" type="curve" smooth="yes"/>
      <point x="27.87878787878788" y="120.39393939393939"/>
      <point x="38.878787878787875" y="135.9090909090909"/>
      <point x="57.878787878787875" y="135.9090909090909" type="curve" smooth="yes"/>
      <point x="765.3636363636365" y="135.9090909090909" type="line"/>
    </contour>
  </outline>
</glyph>
<glyph name="aa-tamil" format="2">
  <advance width="1003.4848484848485"/>
  <unicode hex="0B86"/>
  <note>
uni0B86
</note>
  <anchor x="436.21212121212125" y="0.0" name="bottom"/>
  <anchor x="239.9090909090909" y="-84.96969696969697" name="nukta"/>
  <anchor x="557.6969696969696" y="544.5454545454545" name="top"/>
  <anchor x="557.909090909091" y="544.5454545454545" name="vedic"/>
  <outline>
    <contour>
      <point x="569.3939393939394" y="-382.21212121212125" type="curve" smooth="yes"/>
      <point x="718.0606060606061" y="-382.21212121212125"/>
      <point x="908.7575757575756" y="-249.21212121212122"/>
      <point x="908.7575757575756" y="-77.75757575757575" type="curve" smooth="yes"/>
      <point x="908.7575757575756" y="-19.363636363636363"/>
      <point x="879.3333333333333" y="10.333333333333336"/>
      <point x="837.1515151515151" y="10.333333333333336" type="curve" smooth="yes"/>
      <point x="795.5454545454546" y="10.333333333333336"/>
      <point x="761.7272727272726" y="-24.96969696969697"/>
      <point x="741.090909090909" y="-95.72727272727272" type="curve"/>
      <point x="752.3636363636363" y="-105.3030303030303" type="line"/>
      <point x="766.3030303030304" y="-47.90909090909091"/>
      <point x="792.090909090909" y="-27.060606060606062"/>
      <point x="823.2424242424242" y="-27.060606060606062" type="curve" smooth="yes"/>
      <point x="847.8787878787879" y="-27.060606060606062"/>
      <point x="867.0303030303029" y="-43.484848484848484"/>
      <point x="867.0303030303029" y="-82.36363636363636" type="curve" smooth="yes"/>
      <point x="867.0303030303029" y="-230.63636363636363"/>
      <point x="702.060606060606" y="-348.6969696969697"/>
      <point x="571.6060606060606" y="-348.6969696969697" type="curve" smooth="yes"/>
      <point x="511.060606060606" y="-348.6969696969697"/>
      <point x="471.33333333333337" y="-321.69696969696975"/>
      <point x="471.33333333333337" y="-270.1212121212121" type="curve" smooth="yes"/>
      <point x="471.33333333333337" y="-217.6060606060606"/>
      <point x="506.4545454545455" y="-187.6060606060606"/>
      <point x="561.7272727272727" y="-160.36363636363637" type="curve"/>
      <point x="551.0909090909091" y="-132.21212121212122" type="line"/>
      <point x="483.27272727272725" y="-165.0909090909091"/>
      <point x="437.39393939393943" y="-202.42424242424244"/>
      <point x="437.39393939393943" y="-272.6060606060606" type="curve" smooth="yes"/>
      <point x="437.39393939393943" y="-338.3636363636364"/>
      <point x="488.5757575757576" y="-382.21212121212125"/>
    </contour>
    <component base="a-tamil"/>
  </outline>
</glyph>
<glyph name="i-tamil" format="2">
  <advance width="709.4545454545455"/>
  <unicode hex="0B87"/>
  <note>
uni0B87
</note>
  <anchor x="284.66666666666663" y="0.0" name="bottom"/>
  <anchor x="230.1818181818182" y="-249.15151515151516" name="nukta"/>
  <anchor x="431.42424242424244" y="780.3333333333334" name="top"/>
  <anchor x="385.030303030303" y="544.5454545454545" name="vedic"/>
  <outline>
    <contour>
      <point x="67.24242424242425" y="-282.030303030303" type="curve" smooth="yes"/>
      <point x="288.03030303030306" y="-282.030303030303"/>
      <point x="539.6060606060605" y="93.0909090909091"/>
      <point x="539.6060606060605" y="360.69696969696975" type="curve" smooth="yes"/>
      <point x="539.6060606060605" y="477.6060606060606"/>
      <point x="483.09090909090907" y="552.6969696969697"/>
      <point x="385.03030303030306" y="552.6969696969697" type="curve" smooth="yes"/>
      <point x="284.33333333333337" y="552.6969696969697"/>
      <point x="210.5757575757576" y="461.57575757575756"/>
      <point x="210.5757575757576" y="360.3030303030303" type="curve" smooth="yes"/>
      <point x="210.5757575757576" y="304.6666666666667"/>
      <point x="239.84848484848487" y="262.1818181818182"/>
      <point x="291.4545454545455" y="262.1818181818182" type="curve" smooth="yes"/>
      <point x="365.1818181818182" y="262.1818181818182"/>
      <point x="411.7272727272727" y="333.0"/>
      <point x="411.7272727272727" y="409.6363636363636" type="curve" smooth="yes"/>
      <point x="411.7272727272727" y="462.8181818181818"/>
      <point x="392.60606060606057" y="506.24242424242425"/>
      <point x="361.7878787878788" y="531.1818181818181" type="curve"/>
      <point x="334.3333333333333" y="526.1818181818182" type="line"/>
      <point x="361.33333333333337" y="497.93939393939394"/>
      <point x="375.8181818181818" y="462.09090909090907"/>
      <point x="375.8181818181818" y="417.60606060606057" type="curve" smooth="yes"/>
      <point x="375.8181818181818" y="356.72727272727275"/>
      <point x="344.5151515151515" y="292.9090909090909"/>
      <point x="289.4848484848485" y="292.9090909090909" type="curve" smooth="yes"/>
      <point x="260.75757575757575" y="292.9090909090909"/>
      <point x="240.8181818181818" y="323.3636363636364"/>
      <point x="240.8181818181818" y="361.72727272727275" type="curve" smooth="yes"/>
      <point x="240.8181818181818" y="441.5454545454545"/>
      <point x="295.6969696969697" y="522.3333333333334"/>
      <point x="378.48484848484844" y="522.3333333333334" type="curve" smooth="yes"/>
      <point x="460.7272727272727" y="522.3333333333334"/>
      <point x="499.1515151515151" y="456.3636363636364"/>
      <point x="499.1515151515151" y="357.8787878787879" type="curve" smooth="yes"/>
      <point x="499.1515151515151" y="115.81818181818183"/>
      <point x="268.2727272727273" y="-250.0909090909091"/>
      <point x="69.09090909090908" y="-250.0909090909091" type="curve" smooth="yes"/>
      <point x="12.878787878787875" y="-250.0909090909091"/>
      <point x="-13.909090909090908" y="-213.72727272727272"/>
      <point x="-13.909090909090908" y="-159.5757575757576" type="curve" smooth="yes"/>
      <point x="-13.909090909090908" y="-27.121212121212125"/>
      <point x="119.45454545454547" y="75.12121212121212"/>
      <point x="272.24242424242425" y="75.12121212121212" type="curve" smooth="yes"/>
      <point x="409.9090909090909" y="75.12121212121212"/>
      <point x="523.969696969697" y="-5.242424242424242"/>
      <point x="523.969696969697" y="-125.00000000000001" type="curve" smooth="yes"/>
      <point x="523.969696969697" y="-203.78787878787878"/>
      <point x="474.66666666666663" y="-250.0909090909091"/>
      <point x="398.6666666666667" y="-250.0909090909091" type="curve" smooth="yes"/>
      <point x="256.0" y="-250.0909090909091"/>
      <point x="104.09090909090908" y="9.181818181818183"/>
      <point x="104.09090909090908" y="302.93939393939394" type="curve" smooth="yes"/>
      <point x="104.09090909090908" y="517.969696969697"/>
      <point x="206.60606060606062" y="737.0303030303031"/>
      <point x="422.939393939394" y="737.0303030303031" type="curve" smooth="yes"/>
      <point x="599.4848484848485" y="737.0303030303031"/>
      <point x="690.6363636363636" y="597.3636363636364"/>
      <point x="643.7878787878788" y="373.18181818181813" type="curve" smooth="yes"/>
      <point x="587.0909090909091" y="103.33333333333333" type="line"/>
      <point x="618.2424242424242" y="103.33333333333333" type="line"/>
      <point x="675.9393939393939" y="374.45454545454544" type="line" smooth="yes"/>
      <point x="729.0" y="622.8181818181818"/>
      <point x="624.8181818181818" y="780.3333333333334"/>
      <point x="431.42424242424244" y="780.3333333333334" type="curve" smooth="yes"/>
      <point x="189.8181818181818" y="780.3333333333334"/>
      <point x="71.72727272727272" y="545.5454545454546"/>
      <point x="71.72727272727272" y="303.3030303030303" type="curve" smooth="yes"/>
      <point x="71.72727272727272" y="-3.0000000000000036"/>
      <point x="229.12121212121212" y="-282.030303030303"/>
      <point x="402.5757575757576" y="-282.030303030303" type="curve" smooth="yes"/>
      <point x="493.6363636363636" y="-282.030303030303"/>
      <point x="557.5454545454545" y="-223.45454545454547"/>
      <point x="557.5454545454545" y="-122.27272727272727" type="curve" smooth="yes"/>
      <point x="557.5454545454545" y="16.78787878787879"/>
      <point x="430.93939393939394" y="106.06060606060606"/>
      <point x="273.24242424242425" y="106.06060606060606" type="curve" smooth="yes"/>
      <point x="102.0" y="106.06060606060606"/>
      <point x="-48.484848484848484" y="-12.212121212121213"/>
      <point x="-48.484848484848484" y="-165.78787878787878" type="curve" smooth="yes"/>
      <point x="-48.484848484848484" y="-234.6969696969697"/>
      <point x="-4.0000000000000036" y="-282.030303030303"/>
    </contour>
  </outline>
</glyph>
<glyph name="ii-tamil" format="2">
  <advance width="551.8787878787879"/>
  <unicode hex="0B88"/>
  <note>
uni0B88
</note>
  <anchor x="233.36363636363637" y="0.0" name="bottom"/>
  <anchor x="233.5757575757576" y="0.0" name="nukta"/>
  <anchor x="352.3636363636364" y="544.5454545454545" name="top"/>
  <anchor x="352.57575757575756" y="544.5454545454545" name="vedic"/>
  <outline>
    <contour>
      <point x="30.181818181818187" y="0.0" type="line"/>
      <point x="62.121212121212125" y="0.0" type="line"/>
      <point x="171.27272727272728" y="514.969696969697" type="line"/>
      <point x="379.030303030303" y="514.969696969697" type="line"/>
      <point x="269.0909090909091" y="0.0" type="line"/>
      <point x="311.3939393939394" y="0.0" type="line"/>
      <point x="420.54545454545456" y="514.969696969697" type="line"/>
      <point x="563.6060606060606" y="514.969696969697" type="line"/>
      <point x="570.0909090909091" y="544.5454545454545" type="line"/>
      <point x="146.39393939393938" y="544.5454545454545" type="line"/>
    </contour>
    <contour>
      <point x="219.4242424242424" y="227.39393939393938" type="curve" smooth="yes"/>
      <point x="239.75757575757572" y="227.39393939393938"/>
      <point x="254.8787878787879" y="242.5151515151515"/>
      <point x="254.8787878787879" y="261.6363636363636" type="curve" smooth="yes"/>
      <point x="254.8787878787879" y="279.96969696969694"/>
      <point x="239.75757575757572" y="296.8787878787879"/>
      <point x="219.4242424242424" y="296.8787878787879" type="curve" smooth="yes"/>
      <point x="199.0909090909091" y="296.8787878787879"/>
      <point x="183.96969696969697" y="279.96969696969694"/>
      <point x="183.96969696969697" y="261.6363636363636" type="curve" smooth="yes"/>
      <point x="183.96969696969697" y="242.5151515151515"/>
      <point x="199.0909090909091" y="227.39393939393938"/>
    </contour>
    <contour>
      <point x="471.2727272727273" y="227.39393939393938" type="curve" smooth="yes"/>
      <point x="491.60606060606057" y="227.39393939393938"/>
      <point x="506.72727272727275" y="242.5151515151515"/>
      <point x="506.72727272727275" y="261.6363636363636" type="curve" smooth="yes"/>
      <point x="506.72727272727275" y="279.96969696969694"/>
      <point x="491.60606060606057" y="296.8787878787879"/>
      <point x="471.2727272727273" y="296.8787878787879" type="curve" smooth="yes"/>
      <point x="450.93939393939394" y="296.8787878787879"/>
      <point x="435.8181818181818" y="279.96969696969694"/>
      <point x="435.8181818181818" y="261.6363636363636" type="curve" smooth="yes"/>
      <point x="435.8181818181818" y="242.5151515151515"/>
      <point x="450.93939393939394" y="227.39393939393938"/>
    </contour>
  </outline>
</glyph>
<glyph name="u-tamil" format="2">
  <advance width="745.909090909091"/>
  <unicode hex="0B89"/>
  <note>
uni0B89
</note>
  <anchor x="332.2121212121212" y="0.0" name="bottom"/>
  <anchor x="332.42424242424244" y="0.0" name="nukta"/>
  <anchor x="450.2727272727273" y="544.5454545454545" name="top"/>
  <anchor x="450.0606060606061" y="544.5454545454545" name="vedic"/>
  <outline>
    <contour>
      <point x="82.51515151515152" y="0.0" type="curve" smooth="yes"/>
      <point x="661.2727272727273" y="0.0" type="line"/>
      <point x="667.5454545454546" y="29.575757575757578" type="line"/>
      <point x="86.36363636363636" y="29.575757575757578" type="line" smooth="yes"/>
      <point x="52.54545454545454" y="29.575757575757578"/>
      <point x="32.6060606060606" y="52.878787878787875"/>
      <point x="32.6060606060606" y="83.9090909090909" type="curve" smooth="yes"/>
      <point x="32.6060606060606" y="121.2121212121212"/>
      <point x="60.54545454545455" y="143.66666666666666"/>
      <point x="96.66666666666667" y="143.66666666666666" type="curve" smooth="yes"/>
      <point x="254.5151515151515" y="143.66666666666666" type="line" smooth="yes"/>
      <point x="388.42424242424244" y="143.66666666666666"/>
      <point x="487.6666666666667" y="243.84848484848484"/>
      <point x="487.6666666666667" y="381.2424242424242" type="curve" smooth="yes"/>
      <point x="487.6666666666667" y="493.06060606060606"/>
      <point x="416.0" y="552.6969696969697"/>
      <point x="320.3636363636364" y="552.6969696969697" type="curve" smooth="yes"/>
      <point x="213.87878787878785" y="552.6969696969697"/>
      <point x="134.75757575757575" y="465.0"/>
      <point x="134.75757575757575" y="360.1515151515152" type="curve" smooth="yes"/>
      <point x="134.75757575757575" y="306.66666666666663"/>
      <point x="164.8181818181818" y="261.969696969697"/>
      <point x="217.15151515151516" y="261.969696969697" type="curve" smooth="yes"/>
      <point x="289.0" y="261.969696969697"/>
      <point x="337.3333333333333" y="324.6969696969697"/>
      <point x="337.3333333333333" y="407.6060606060606" type="curve" smooth="yes"/>
      <point x="337.3333333333333" y="462.8181818181818"/>
      <point x="316.4242424242424" y="506.72727272727275"/>
      <point x="288.1818181818182" y="531.6060606060606" type="curve"/>
      <point x="259.78787878787875" y="527.030303030303" type="line"/>
      <point x="286.78787878787875" y="496.3636363636364"/>
      <point x="301.0" y="456.03030303030306"/>
      <point x="301.0" y="409.8787878787879" type="curve" smooth="yes"/>
      <point x="301.0" y="348.6363636363636"/>
      <point x="269.75757575757575" y="293.1212121212121"/>
      <point x="215.45454545454544" y="293.1212121212121" type="curve" smooth="yes"/>
      <point x="182.72727272727272" y="293.1212121212121"/>
      <point x="165.21212121212122" y="324.8484848484849"/>
      <point x="165.21212121212122" y="362.57575757575756" type="curve" smooth="yes"/>
      <point x="165.21212121212122" y="448.8181818181818"/>
      <point x="225.3030303030303" y="522.3333333333334"/>
      <point x="315.6060606060606" y="522.3333333333334" type="curve" smooth="yes"/>
      <point x="393.6363636363636" y="522.3333333333334"/>
      <point x="445.57575757575756" y="472.45454545454544"/>
      <point x="445.57575757575756" y="382.66666666666663" type="curve" smooth="yes"/>
      <point x="445.57575757575756" y="266.3636363636364"/>
      <point x="369.48484848484844" y="173.8181818181818"/>
      <point x="253.5151515151515" y="173.8181818181818" type="curve" smooth="yes"/>
      <point x="99.3030303030303" y="173.8181818181818" type="line" smooth="yes"/>
      <point x="41.090909090909086" y="173.8181818181818"/>
      <point x="1.666666666666666" y="135.33333333333331"/>
      <point x="1.666666666666666" y="81.06060606060606" type="curve" smooth="yes"/>
      <point x="1.666666666666666" y="37.060606060606055"/>
      <point x="29.09090909090909" y="0.0"/>
    </contour>
  </outline>
</glyph>
<glyph name="uu-tamil" format="2">
  <advance width="1191.5151515151515"/>
  <unicode hex="0B8A"/>
  <note>
uni0B8A
</note>
  <anchor x="580.4242424242425" y="0.0" name="bottom"/>
  <anchor x="581.2121212121212" y="0.0" name="nukta"/>
  <anchor x="699.0606060606061" y="544.5454545454545" name="top"/>
  <anchor x="699.0606060606061" y="544.5454545454545" name="vedic"/>
  <outline>
    <contour>
      <point x="82.51515151515152" y="0.0" type="curve" smooth="yes"/>
      <point x="1112.3030303030305" y="0.0" type="line"/>
      <point x="1118.5757575757575" y="29.575757575757578" type="line"/>
      <point x="86.36363636363636" y="29.575757575757578" type="line" smooth="yes"/>
      <point x="52.54545454545454" y="29.575757575757578"/>
      <point x="32.6060606060606" y="52.878787878787875"/>
      <point x="32.6060606060606" y="83.9090909090909" type="curve" smooth="yes"/>
      <point x="32.6060606060606" y="121.2121212121212"/>
      <point x="60.54545454545455" y="143.66666666666666"/>
      <point x="96.66666666666667" y="143.66666666666666" type="curve" smooth="yes"/>
      <point x="254.5151515151515" y="143.66666666666666" type="line" smooth="yes"/>
      <point x="388.42424242424244" y="143.66666666666666"/>
      <point x="487.6666666666667" y="243.84848484848484"/>
      <point x="487.6666666666667" y="381.2424242424242" type="curve" smooth="yes"/>
      <point x="487.6666666666667" y="493.06060606060606"/>
      <point x="416.0" y="552.6969696969697"/>
      <point x="320.3636363636364" y="552.6969696969697" type="curve" smooth="yes"/>
      <point x="213.87878787878785" y="552.6969696969697"/>
      <point x="134.75757575757575" y="465.0"/>
      <point x="134.75757575757575" y="360.1515151515152" type="curve" smooth="yes"/>
      <point x="134.75757575757575" y="306.66666666666663"/>
      <point x="164.8181818181818" y="261.969696969697"/>
      <point x="217.15151515151516" y="261.969696969697" type="curve" smooth="yes"/>
      <point x="289.0" y="261.969696969697"/>
      <point x="337.3333333333333" y="324.6969696969697"/>
      <point x="337.3333333333333" y="407.6060606060606" type="curve" smooth="yes"/>
      <point x="337.3333333333333" y="462.8181818181818"/>
      <point x="316.4242424242424" y="506.72727272727275"/>
      <point x="288.1818181818182" y="531.6060606060606" type="curve"/>
      <point x="259.78787878787875" y="527.030303030303" type="line"/>
      <point x="286.78787878787875" y="496.3636363636364"/>
      <point x="301.0" y="456.03030303030306"/>
      <point x="301.0" y="409.8787878787879" type="curve" smooth="yes"/>
      <point x="301.0" y="348.6363636363636"/>
      <point x="269.75757575757575" y="293.1212121212121"/>
      <point x="215.45454545454544" y="293.1212121212121" type="curve" smooth="yes"/>
      <point x="182.72727272727272" y="293.1212121212121"/>
      <point x="165.21212121212122" y="324.8484848484849"/>
      <point x="165.21212121212122" y="362.57575757575756" type="curve" smooth="yes"/>
      <point x="165.21212121212122" y="448.8181818181818"/>
      <point x="225.3030303030303" y="522.3333333333334"/>
      <point x="315.6060606060606" y="522.3333333333334" type="curve" smooth="yes"/>
      <point x="393.6363636363636" y="522.3333333333334"/>
      <point x="445.57575757575756" y="472.45454545454544"/>
      <point x="445.57575757575756" y="382.66666666666663" type="curve" smooth="yes"/>
      <point x="445.57575757575756" y="266.3636363636364"/>
      <point x="369.48484848484844" y="173.8181818181818"/>
      <point x="253.5151515151515" y="173.8181818181818" type="curve" smooth="yes"/>
      <point x="99.3030303030303" y="173.8181818181818" type="line" smooth="yes"/>
      <point x="41.090909090909086" y="173.8181818181818"/>
      <point x="1.666666666666666" y="135.33333333333331"/>
      <point x="1.666666666666666" y="81.06060606060606" type="curve" smooth="yes"/>
      <point x="1.666666666666666" y="37.060606060606055"/>
      <point x="29.09090909090909" y="0.0"/>
    </contour>
    <contour>
      <point x="632.7272727272727" y="103.78787878787878" type="curve" smooth="yes"/>
      <point x="708.2121212121212" y="103.78787878787878"/>
      <point x="764.1818181818182" y="177.63636363636363"/>
      <point x="764.1818181818182" y="267.1818181818182" type="curve" smooth="yes"/>
      <point x="764.1818181818182" y="334.09090909090907"/>
      <point x="730.2121212121211" y="375.030303030303"/>
      <point x="675.8484848484849" y="375.030303030303" type="curve" smooth="yes"/>
      <point x="623.2121212121212" y="375.030303030303"/>
      <point x="577.030303030303" y="331.4242424242424"/>
      <point x="548.939393939394" y="264.3939393939394" type="curve"/>
      <point x="553.7878787878788" y="235.48484848484847" type="line"/>
      <point x="582.1212121212121" y="301.2727272727273"/>
      <point x="622.030303030303" y="342.75757575757575"/>
      <point x="666.1212121212121" y="342.75757575757575" type="curve" smooth="yes"/>
      <point x="705.7878787878788" y="342.75757575757575"/>
      <point x="726.3636363636364" y="314.6666666666667"/>
      <point x="726.3636363636364" y="263.3636363636364" type="curve" smooth="yes"/>
      <point x="726.3636363636364" y="198.33333333333334"/>
      <point x="690.060606060606" y="134.72727272727272"/>
      <point x="631.030303030303" y="134.72727272727272" type="curve" smooth="yes"/>
      <point x="582.4242424242425" y="134.72727272727272"/>
      <point x="561.9090909090909" y="185.9090909090909"/>
      <point x="561.909090909091" y="245.75757575757575" type="curve" smooth="yes"/>
      <point x="561.9090909090909" y="377.7878787878788"/>
      <point x="636.3030303030304" y="522.3333333333334"/>
      <point x="757.3939393939394" y="522.3333333333334" type="curve" smooth="yes"/>
      <point x="852.3333333333334" y="522.3333333333334"/>
      <point x="889.6969696969697" y="442.6969696969697"/>
      <point x="867.6969696969696" y="336.2121212121212" type="curve"/>
      <point x="894.5757575757577" y="337.0" type="line"/>
      <point x="921.2121212121212" y="465.75757575757575"/>
      <point x="871.4242424242424" y="552.6969696969697"/>
      <point x="760.4545454545455" y="552.6969696969697" type="curve" smooth="yes"/>
      <point x="623.8181818181818" y="552.6969696969696"/>
      <point x="531.3939393939394" y="397.3939393939394"/>
      <point x="531.3939393939394" y="244.33333333333334" type="curve" smooth="yes"/>
      <point x="531.3939393939394" y="170.42424242424244"/>
      <point x="562.9696969696969" y="103.78787878787878"/>
    </contour>
    <contour>
      <point x="818.9696969696971" y="107.0" type="line"/>
      <point x="859.2727272727274" y="107.0" type="line"/>
      <point x="946.2121212121211" y="515.3939393939394" type="line"/>
      <point x="1090.6666666666667" y="515.3939393939394" type="line"/>
      <point x="1004.3030303030303" y="107.0" type="line"/>
      <point x="1043.6060606060607" y="107.0" type="line"/>
      <point x="1130.7575757575758" y="515.3939393939394" type="line"/>
      <point x="1223.030303030303" y="515.3939393939394" type="line"/>
      <point x="1229.3030303030303" y="544.5454545454545" type="line"/>
      <point x="915.151515151515" y="544.5454545454545" type="line"/>
      <point x="886.0303030303031" y="408.1515151515152" type="line"/>
      <point x="879.1212121212121" y="390.75757575757575" type="line"/>
    </contour>
  </outline>
</glyph>
<glyph name="e-tamil" format="2">
  <advance width="633.4242424242424"/>
  <unicode hex="0B8E"/>
  <note>
uni0B8E
</note>
  <anchor x="268.3636363636364" y="0.0" name="bottom"/>
  <anchor x="269.3636363636364" y="0.0" name="nukta"/>
  <anchor x="386.21212121212125" y="544.5454545454545" name="top"/>
  <anchor x="387.0" y="544.5454545454545" name="vedic"/>
  <outline>
    <contour>
      <point x="149.8181818181818" y="-4.212121212121212" type="curve" smooth="yes"/>
      <point x="223.3030303030303" y="-4.212121212121212"/>
      <point x="286.5454545454545" y="66.0"/>
      <point x="286.5454545454545" y="166.9090909090909" type="curve" smooth="yes"/>
      <point x="286.5454545454545" y="246.75757575757575"/>
      <point x="243.84848484848484" y="287.24242424242425"/>
      <point x="187.93939393939397" y="287.24242424242425" type="curve" smooth="yes"/>
      <point x="123.18181818181817" y="287.24242424242425"/>
      <point x="74.06060606060606" y="234.63636363636365"/>
      <point x="45.84848484848485" y="170.0" type="curve"/>
      <point x="55.45454545454545" y="141.21212121212122" type="line"/>
      <point x="87.69696969696969" y="209.54545454545456"/>
      <point x="125.06060606060606" y="253.33333333333334"/>
      <point x="177.78787878787878" y="253.33333333333334" type="curve" smooth="yes"/>
      <point x="220.45454545454544" y="253.33333333333334"/>
      <point x="246.24242424242425" y="225.54545454545453"/>
      <point x="246.24242424242425" y="160.93939393939394" type="curve" smooth="yes"/>
      <point x="246.24242424242425" y="84.60606060606061"/>
      <point x="202.42424242424244" y="26.93939393939394"/>
      <point x="148.84848484848487" y="26.93939393939394" type="curve" smooth="yes"/>
      <point x="95.69696969696969" y="26.93939393939394"/>
      <point x="63.6060606060606" y="75.21212121212122"/>
      <point x="63.6060606060606" y="161.96969696969697" type="curve" smooth="yes"/>
      <point x="63.6060606060606" y="320.24242424242425"/>
      <point x="149.96969696969697" y="514.969696969697"/>
      <point x="323.27272727272725" y="514.969696969697" type="curve" smooth="yes"/>
      <point x="499.1212121212121" y="514.969696969697" type="line"/>
      <point x="389.969696969697" y="0.0" type="line"/>
      <point x="430.6969696969697" y="0.0" type="line"/>
      <point x="540.6363636363636" y="514.969696969697" type="line"/>
      <point x="660.0" y="514.969696969697" type="line"/>
      <point x="666.2727272727273" y="544.5454545454545" type="line"/>
      <point x="324.54545454545456" y="544.5454545454545" type="line" smooth="yes"/>
      <point x="129.75757575757575" y="544.5454545454545"/>
      <point x="32.3030303030303" y="335.6363636363637"/>
      <point x="32.3030303030303" y="160.96969696969697" type="curve" smooth="yes"/>
      <point x="32.3030303030303" y="56.757575757575765"/>
      <point x="75.57575757575759" y="-4.212121212121212"/>
    </contour>
  </outline>
</glyph>
<glyph name="ai-tamil" format="2">
  <advance width="700.7575757575758"/>
  <unicode hex="0B90"/>
  <note>
uni0B90
</note>
  <anchor x="300.4848484848485" y="0.0" name="bottom"/>
  <anchor x="239.00000000000003" y="-281.8181818181818" name="nukta"/>
  <anchor x="422.1818181818182" y="544.5454545454545" name="top"/>
  <anchor x="421.69696969696975" y="544.5454545454545" name="vedic"/>
  <outline>
    <contour>
      <point x="102.84848484848486" y="-281.8181818181818" type="curve" smooth="yes"/>
      <point x="183.9090909090909" y="-281.8181818181818"/>
      <point x="237.24242424242422" y="-231.24242424242425"/>
      <point x="271.39393939393943" y="-164.75757575757575" type="curve"/>
      <point x="277.7575757575758" y="-229.3939393939394"/>
      <point x="313.0909090909091" y="-281.8181818181818"/>
      <point x="390.78787878787875" y="-281.8181818181818" type="curve" smooth="yes"/>
      <point x="503.5454545454546" y="-281.8181818181818"/>
      <point x="579.6060606060606" y="-174.0"/>
      <point x="579.6060606060606" y="-52.75757575757576" type="curve" smooth="yes"/>
      <point x="579.6060606060606" y="-0.9696969696969706"/>
      <point x="569.7575757575758" y="39.72727272727273"/>
      <point x="555.3939393939394" y="75.0909090909091" type="curve"/>
      <point x="523.3030303030303" y="60.6060606060606" type="line"/>
      <point x="536.8787878787879" y="30.181818181818183"/>
      <point x="545.5151515151515" y="-7.454545454545458"/>
      <point x="545.5151515151515" y="-52.909090909090914" type="curve" smooth="yes"/>
      <point x="545.5151515151515" y="-154.6969696969697"/>
      <point x="484.8484848484848" y="-249.96969696969697"/>
      <point x="392.4848484848485" y="-249.96969696969697" type="curve" smooth="yes"/>
      <point x="312.3939393939394" y="-249.96969696969697"/>
      <point x="290.8181818181818" y="-182.93939393939394"/>
      <point x="310.81818181818187" y="-90.30303030303031" type="curve" smooth="yes"/>
      <point x="326.9090909090909" y="-15.0" type="line"/>
      <point x="285.96969696969694" y="-15.0" type="line"/>
      <point x="270.8787878787879" y="-86.66666666666667" type="line" smooth="yes"/>
      <point x="254.3939393939394" y="-163.24242424242422"/>
      <point x="196.63636363636363" y="-251.24242424242425"/>
      <point x="109.45454545454545" y="-251.24242424242425" type="curve" smooth="yes"/>
      <point x="49.42424242424242" y="-251.24242424242425"/>
      <point x="13.696969696969699" y="-207.5151515151515"/>
      <point x="13.696969696969699" y="-130.75757575757575" type="curve" smooth="yes"/>
      <point x="13.696969696969699" y="29.272727272727273"/>
      <point x="126.30303030303031" y="73.03030303030303"/>
      <point x="326.7272727272727" y="98.60606060606061" type="curve" smooth="yes"/>
      <point x="547.4545454545455" y="127.03030303030303"/>
      <point x="669.9696969696969" y="216.39393939393938"/>
      <point x="669.9696969696969" y="396.78787878787875" type="curve" smooth="yes"/>
      <point x="669.9696969696969" y="495.54545454545456"/>
      <point x="618.3636363636364" y="552.6969696969697"/>
      <point x="541.9393939393939" y="552.6969696969697" type="curve" smooth="yes"/>
      <point x="470.4242424242424" y="552.6969696969697"/>
      <point x="424.93939393939394" y="501.51515151515156"/>
      <point x="396.6060606060606" y="437.6969696969697" type="curve"/>
      <point x="386.7575757575758" y="502.6666666666667"/>
      <point x="340.5151515151515" y="552.6969696969697"/>
      <point x="261.6363636363636" y="552.6969696969697" type="curve" smooth="yes"/>
      <point x="134.84848484848484" y="552.6969696969697"/>
      <point x="57.24242424242425" y="424.1515151515152"/>
      <point x="57.24242424242425" y="297.1212121212121" type="curve" smooth="yes"/>
      <point x="57.24242424242425" y="215.8181818181818"/>
      <point x="88.54545454545456" y="162.3030303030303"/>
      <point x="146.4242424242424" y="162.3030303030303" type="curve" smooth="yes"/>
      <point x="213.48484848484847" y="162.3030303030303"/>
      <point x="263.0909090909091" y="226.87878787878788"/>
      <point x="263.0909090909091" y="305.06060606060606" type="curve" smooth="yes"/>
      <point x="263.0909090909091" y="367.3939393939394"/>
      <point x="232.60606060606062" y="400.969696969697"/>
      <point x="185.96969696969697" y="400.969696969697" type="curve" smooth="yes"/>
      <point x="137.75757575757575" y="400.969696969697"/>
      <point x="97.27272727272727" y="358.69696969696975"/>
      <point x="72.06060606060606" y="289.57575757575756" type="curve"/>
      <point x="79.48484848484847" y="268.3939393939394" type="line"/>
      <point x="111.21212121212123" y="339.030303030303"/>
      <point x="141.72727272727272" y="368.48484848484844"/>
      <point x="174.87878787878788" y="368.48484848484844" type="curve" smooth="yes"/>
      <point x="207.12121212121212" y="368.48484848484844"/>
      <point x="226.12121212121215" y="346.3939393939394"/>
      <point x="226.12121212121215" y="298.72727272727275" type="curve" smooth="yes"/>
      <point x="226.12121212121215" y="246.27272727272728"/>
      <point x="196.39393939393938" y="194.24242424242425"/>
      <point x="146.78787878787878" y="194.24242424242425" type="curve" smooth="yes"/>
      <point x="106.63636363636365" y="194.24242424242425"/>
      <point x="87.75757575757576" y="231.3030303030303"/>
      <point x="87.75757575757576" y="296.8484848484848" type="curve" smooth="yes"/>
      <point x="87.75757575757576" y="398.8484848484849"/>
      <point x="145.84848484848484" y="521.5454545454545"/>
      <point x="256.3030303030303" y="521.5454545454545" type="curve" smooth="yes"/>
      <point x="338.2121212121212" y="521.5454545454545"/>
      <point x="383.60606060606057" y="462.1818181818182"/>
      <point x="362.6060606060606" y="364.4545454545455" type="curve" smooth="yes"/>
      <point x="329.24242424242425" y="209.4848484848485" type="line"/>
      <point x="370.1818181818182" y="209.4848484848485" type="line"/>
      <point x="402.5454545454546" y="364.1515151515152" type="line" smooth="yes"/>
      <point x="417.969696969697" y="436.6969696969697"/>
      <point x="457.42424242424244" y="522.3333333333334"/>
      <point x="535.5454545454545" y="522.3333333333334" type="curve" smooth="yes"/>
      <point x="595.090909090909" y="522.3333333333334"/>
      <point x="628.2424242424242" y="477.2121212121212"/>
      <point x="628.2424242424242" y="396.4848484848485" type="curve" smooth="yes"/>
      <point x="628.2424242424242" y="221.3939393939394"/>
      <point x="514.7272727272727" y="148.42424242424244"/>
      <point x="308.93939393939394" y="122.57575757575758" type="curve" smooth="yes"/>
      <point x="93.60606060606061" y="95.36363636363636"/>
      <point x="-28.030303030303035" y="38.90909090909092"/>
      <point x="-28.030303030303035" y="-131.27272727272725" type="curve" smooth="yes"/>
      <point x="-28.030303030303035" y="-226.9090909090909"/>
      <point x="25.303030303030305" y="-281.8181818181818"/>
    </contour>
  </outline>
</glyph>
<glyph name="o-tamil" format="2">
  <advance width="709.8484848484849"/>
  <unicode hex="0B92"/>
  <note>
uni0B92
</note>
  <anchor x="302.03030303030306" y="0.0" name="bottom"/>
  <anchor x="229.03030303030306" y="-335.0" name="nukta"/>
  <anchor x="410.66666666666663" y="544.5454545454545" name="top"/>
  <anchor x="410.66666666666663" y="544.5454545454545" name="vedic"/>
  <outline>
    <contour>
      <point x="163.12121212121212" y="-256.969696969697" type="curve" smooth="yes"/>
      <point x="283.8484848484849" y="-256.969696969697"/>
      <point x="340.5757575757576" y="-116.0909090909091"/>
      <point x="468.8787878787879" y="-116.0909090909091" type="curve" smooth="yes"/>
      <point x="482.75757575757575" y="-116.0909090909091" type="line"/>
      <point x="489.2424242424242" y="-85.72727272727272" type="line"/>
      <point x="466.1515151515152" y="-85.72727272727272" type="line" smooth="yes"/>
      <point x="314.1212121212121" y="-85.72727272727272"/>
      <point x="313.93939393939394" y="65.96969696969697"/>
      <point x="416.969696969697" y="210.63636363636363" type="curve"/>
      <point x="420.39393939393943" y="208.42424242424244" type="line"/>
      <point x="370.8787878787878" y="95.69696969696969"/>
      <point x="378.7878787878788" y="-5.0"/>
      <point x="473.3636363636363" y="-5.0" type="curve" smooth="yes"/>
      <point x="580.5757575757575" y="-5.0"/>
      <point x="652.7575757575758" y="122.39393939393939"/>
      <point x="652.7575757575758" y="263.0" type="curve" smooth="yes"/>
      <point x="652.7575757575758" y="444.42424242424244"/>
      <point x="541.1515151515151" y="552.6969696969697"/>
      <point x="380.1212121212121" y="552.6969696969697" type="curve" smooth="yes"/>
      <point x="188.27272727272725" y="552.6969696969697"/>
      <point x="32.303030303030305" y="366.6363636363636"/>
      <point x="32.303030303030305" y="172.27272727272728" type="curve" smooth="yes"/>
      <point x="32.303030303030305" y="57.030303030303024"/>
      <point x="75.57575757575756" y="-4.212121212121212"/>
      <point x="149.39393939393938" y="-4.212121212121212" type="curve" smooth="yes"/>
      <point x="223.09090909090907" y="-4.212121212121212"/>
      <point x="285.27272727272725" y="66.0"/>
      <point x="285.27272727272725" y="166.9090909090909" type="curve" smooth="yes"/>
      <point x="285.27272727272725" y="246.75757575757575"/>
      <point x="243.21212121212122" y="287.24242424242425"/>
      <point x="187.30303030303028" y="287.24242424242425" type="curve" smooth="yes"/>
      <point x="122.54545454545455" y="287.24242424242425"/>
      <point x="74.06060606060606" y="234.63636363636365"/>
      <point x="45.84848484848485" y="170.0" type="curve"/>
      <point x="55.45454545454546" y="141.21212121212122" type="line"/>
      <point x="87.69696969696969" y="209.54545454545456"/>
      <point x="124.42424242424241" y="253.33333333333334"/>
      <point x="177.15151515151516" y="253.33333333333334" type="curve" smooth="yes"/>
      <point x="219.8181818181818" y="253.33333333333334"/>
      <point x="244.96969696969694" y="225.54545454545453"/>
      <point x="244.96969696969694" y="160.93939393939394" type="curve" smooth="yes"/>
      <point x="244.96969696969694" y="84.60606060606061"/>
      <point x="201.78787878787878" y="26.93939393939394"/>
      <point x="148.4242424242424" y="26.93939393939394" type="curve" smooth="yes"/>
      <point x="95.6969696969697" y="26.93939393939394"/>
      <point x="63.6060606060606" y="75.48484848484848"/>
      <point x="63.6060606060606" y="173.27272727272728" type="curve" smooth="yes"/>
      <point x="63.6060606060606" y="344.5151515151515"/>
      <point x="205.969696969697" y="522.3333333333334"/>
      <point x="375.0" y="522.3333333333334" type="curve" smooth="yes"/>
      <point x="515.7272727272727" y="522.3333333333334"/>
      <point x="611.0909090909091" y="421.60606060606057"/>
      <point x="611.0909090909091" y="259.4848484848485" type="curve" smooth="yes"/>
      <point x="611.0909090909091" y="147.75757575757575"/>
      <point x="559.4848484848485" y="26.93939393939394"/>
      <point x="474.45454545454544" y="26.93939393939394" type="curve" smooth="yes"/>
      <point x="396.42424242424244" y="26.93939393939394"/>
      <point x="409.8787878787879" y="142.8181818181818"/>
      <point x="464.969696969697" y="245.0606060606061" type="curve"/>
      <point x="424.72727272727275" y="265.3939393939394" type="line"/>
      <point x="305.93939393939394" y="118.81818181818181"/>
      <point x="264.0" y="-52.60606060606061"/>
      <point x="398.57575757575756" y="-99.06060606060606" type="curve"/>
      <point x="398.3636363636364" y="-103.27272727272728" type="line"/>
      <point x="303.6060606060606" y="-122.69696969696969"/>
      <point x="251.4848484848485" y="-221.90909090909093"/>
      <point x="163.0" y="-221.90909090909093" type="curve" smooth="yes"/>
      <point x="117.12121212121211" y="-221.90909090909093"/>
      <point x="94.12121212121212" y="-193.54545454545456"/>
      <point x="94.12121212121212" y="-157.39393939393938" type="curve" smooth="yes"/>
      <point x="94.12121212121212" y="-121.60606060606061"/>
      <point x="113.4848484848485" y="-98.24242424242425"/>
      <point x="147.90909090909093" y="-71.39393939393939" type="curve"/>
      <point x="130.51515151515153" y="-48.57575757575758" type="line"/>
      <point x="88.66666666666667" y="-81.06060606060606"/>
      <point x="61.39393939393939" y="-113.69696969696969"/>
      <point x="61.39393939393939" y="-163.6060606060606" type="curve" smooth="yes"/>
      <point x="61.39393939393939" y="-214.21212121212125"/>
      <point x="98.57575757575758" y="-256.969696969697"/>
    </contour>
  </outline>
</glyph>
<glyph name="oo-tamil" format="2">
  <advance width="709.8484848484849"/>
  <unicode hex="0B93"/>
  <note>
uni0B93
</note>
  <anchor x="296.66666666666663" y="0.0" name="bottom"/>
  <anchor x="244.54545454545456" y="-236.33333333333331" name="nukta"/>
  <anchor x="405.09090909090907" y="544.5454545454545" name="top"/>
  <anchor x="405.09090909090907" y="544.5454545454545" name="vedic"/>
  <outline>
    <contour>
      <point x="158.45454545454544" y="-259.72727272727275" type="curve" smooth="yes"/>
      <point x="279.18181818181813" y="-259.72727272727275"/>
      <point x="340.57575757575756" y="-116.0909090909091"/>
      <point x="468.8787878787879" y="-116.0909090909091" type="curve" smooth="yes"/>
      <point x="482.75757575757575" y="-116.0909090909091" type="line"/>
      <point x="489.2424242424242" y="-85.72727272727272" type="line"/>
      <point x="466.1515151515151" y="-85.72727272727272" type="line" smooth="yes"/>
      <point x="314.1212121212121" y="-85.72727272727272"/>
      <point x="313.93939393939394" y="65.96969696969697"/>
      <point x="416.969696969697" y="210.63636363636363" type="curve"/>
      <point x="420.39393939393943" y="208.42424242424244" type="line"/>
      <point x="370.8787878787878" y="95.69696969696969"/>
      <point x="378.7878787878788" y="-5.0"/>
      <point x="473.3636363636363" y="-5.0" type="curve" smooth="yes"/>
      <point x="580.5757575757575" y="-5.0"/>
      <point x="652.7575757575758" y="122.39393939393939"/>
      <point x="652.7575757575758" y="263.0" type="curve" smooth="yes"/>
      <point x="652.7575757575758" y="444.42424242424244"/>
      <point x="541.1515151515151" y="552.6969696969697"/>
      <point x="380.1212121212121" y="552.6969696969697" type="curve" smooth="yes"/>
      <point x="188.27272727272725" y="552.6969696969697"/>
      <point x="32.303030303030305" y="366.6363636363636"/>
      <point x="32.303030303030305" y="172.27272727272728" type="curve" smooth="yes"/>
      <point x="32.303030303030305" y="57.030303030303024"/>
      <point x="75.57575757575756" y="-4.212121212121212"/>
      <point x="149.39393939393938" y="-4.212121212121212" type="curve" smooth="yes"/>
      <point x="223.09090909090907" y="-4.212121212121212"/>
      <point x="285.27272727272725" y="66.0"/>
      <point x="285.27272727272725" y="166.9090909090909" type="curve" smooth="yes"/>
      <point x="285.27272727272725" y="246.75757575757575"/>
      <point x="243.21212121212122" y="287.24242424242425"/>
      <point x="187.30303030303028" y="287.24242424242425" type="curve" smooth="yes"/>
      <point x="122.54545454545455" y="287.24242424242425"/>
      <point x="74.06060606060606" y="234.63636363636365"/>
      <point x="45.84848484848485" y="170.0" type="curve"/>
      <point x="55.45454545454546" y="141.21212121212122" type="line"/>
      <point x="87.69696969696969" y="209.54545454545456"/>
      <point x="124.42424242424241" y="253.33333333333334"/>
      <point x="177.15151515151516" y="253.33333333333334" type="curve" smooth="yes"/>
      <point x="219.8181818181818" y="253.33333333333334"/>
      <point x="244.96969696969694" y="225.54545454545453"/>
      <point x="244.96969696969694" y="160.93939393939394" type="curve" smooth="yes"/>
      <point x="244.96969696969694" y="84.60606060606061"/>
      <point x="201.78787878787878" y="26.93939393939394"/>
      <point x="148.4242424242424" y="26.93939393939394" type="curve" smooth="yes"/>
      <point x="95.6969696969697" y="26.93939393939394"/>
      <point x="63.6060606060606" y="75.48484848484848"/>
      <point x="63.6060606060606" y="173.27272727272728" type="curve" smooth="yes"/>
      <point x="63.6060606060606" y="344.5151515151515"/>
      <point x="205.969696969697" y="522.3333333333334"/>
      <point x="375.0" y="522.3333333333334" type="curve" smooth="yes"/>
      <point x="515.7272727272727" y="522.3333333333334"/>
      <point x="611.0909090909091" y="421.60606060606057"/>
      <point x="611.0909090909091" y="259.4848484848485" type="curve" smooth="yes"/>
      <point x="611.0909090909091" y="147.75757575757575"/>
      <point x="559.4848484848485" y="26.93939393939394"/>
      <point x="474.45454545454544" y="26.93939393939394" type="curve" smooth="yes"/>
      <point x="396.42424242424244" y="26.93939393939394"/>
      <point x="409.8787878787879" y="142.8181818181818"/>
      <point x="464.969696969697" y="245.0606060606061" type="curve"/>
      <point x="424.72727272727275" y="265.3939393939394" type="line"/>
      <point x="305.93939393939394" y="118.81818181818181"/>
      <point x="264.0" y="-52.60606060606061"/>
      <point x="398.57575757575756" y="-99.06060606060606" type="curve"/>
      <point x="398.3636363636363" y="-103.27272727272728" type="line"/>
      <point x="303.6060606060606" y="-122.69696969696969"/>
      <point x="246.81818181818178" y="-225.51515151515153"/>
      <point x="158.33333333333334" y="-225.51515151515153" type="curve" smooth="yes"/>
      <point x="111.3939393939394" y="-225.51515151515153"/>
      <point x="88.51515151515152" y="-193.36363636363637"/>
      <point x="88.51515151515152" y="-158.0" type="curve" smooth="yes"/>
      <point x="88.51515151515152" y="-124.21212121212122"/>
      <point x="110.51515151515153" y="-95.84848484848484"/>
      <point x="147.1818181818182" y="-95.84848484848484" type="curve" smooth="yes"/>
      <point x="178.6969696969697" y="-95.84848484848484"/>
      <point x="194.12121212121215" y="-115.00000000000001"/>
      <point x="197.1212121212121" y="-138.75757575757575" type="curve"/>
      <point x="215.63636363636363" y="-131.69696969696972"/>
      <point x="229.1212121212121" y="-115.15151515151514"/>
      <point x="229.1212121212121" y="-96.03030303030303" type="curve" smooth="yes"/>
      <point x="229.1212121212121" y="-67.48484848484848"/>
      <point x="197.12121212121215" y="-51.21212121212121"/>
      <point x="164.21212121212122" y="-51.21212121212121" type="curve" smooth="yes"/>
      <point x="104.51515151515152" y="-51.21212121212121"/>
      <point x="59.84848484848485" y="-100.9090909090909"/>
      <point x="59.84848484848485" y="-162.21212121212122" type="curve" smooth="yes"/>
      <point x="59.84848484848485" y="-212.24242424242425"/>
      <point x="95.12121212121212" y="-259.72727272727275"/>
    </contour>
  </outline>
</glyph>
<glyph name="ca-tamil" format="2">
  <advance width="487.7575757575757"/>
  <unicode hex="0B9A"/>
  <note>
uni0B9A
</note>
  <anchor x="202.60606060606062" y="0.0" name="bottom"/>
  <anchor x="463.030303030303" y="544.5454545454545" name="imatra"/>
  <anchor x="202.39393939393938" y="0.0" name="nukta"/>
  <anchor x="356.7878787878788" y="544.5454545454545" name="top"/>
  <anchor x="328.6969696969697" y="544.5454545454545" name="vedic"/>
  <outline>
    <contour>
      <point x="154.54545454545456" y="-4.0" type="curve" smooth="yes"/>
      <point x="232.03030303030303" y="-4.0"/>
      <point x="288.030303030303" y="41.515151515151516"/>
      <point x="312.45454545454544" y="160.0" type="curve" smooth="yes"/>
      <point x="335.5454545454545" y="272.45454545454544" type="line"/>
      <point x="451.9090909090909" y="272.45454545454544" type="line"/>
      <point x="458.18181818181813" y="302.8181818181818" type="line"/>
      <point x="342.03030303030306" y="302.8181818181818" type="line"/>
      <point x="387.33333333333337" y="514.969696969697" type="line"/>
      <point x="503.48484848484844" y="514.969696969697" type="line"/>
      <point x="509.969696969697" y="544.5454545454545" type="line"/>
      <point x="194.15151515151516" y="544.5454545454545" type="line"/>
      <point x="139.5151515151515" y="284.42424242424244" type="line"/>
      <point x="170.66666666666669" y="284.42424242424244" type="line"/>
      <point x="219.60606060606062" y="514.969696969697" type="line"/>
      <point x="346.3939393939394" y="514.969696969697" type="line"/>
      <point x="302.09090909090907" y="302.8181818181818" type="line"/>
      <point x="182.72727272727272" y="302.8181818181818" type="line" smooth="yes"/>
      <point x="81.93939393939394" y="302.8181818181818"/>
      <point x="24.666666666666664" y="220.33333333333331"/>
      <point x="24.666666666666664" y="135.63636363636363" type="curve" smooth="yes"/>
      <point x="24.666666666666664" y="62.36363636363636"/>
      <point x="74.0" y="-4.0"/>
    </contour>
    <contour>
      <point x="156.42424242424244" y="26.93939393939394" type="curve" smooth="yes"/>
      <point x="90.81818181818181" y="26.93939393939394"/>
      <point x="60.393939393939384" y="80.75757575757576"/>
      <point x="60.393939393939384" y="139.84848484848487" type="curve" smooth="yes"/>
      <point x="60.393939393939384" y="209.36363636363637"/>
      <point x="99.06060606060605" y="272.45454545454544"/>
      <point x="180.66666666666669" y="272.45454545454544" type="curve" smooth="yes"/>
      <point x="294.8181818181818" y="272.45454545454544" type="line"/>
      <point x="271.8787878787879" y="158.45454545454547" type="line" smooth="yes"/>
      <point x="252.66666666666669" y="61.515151515151516"/>
      <point x="209.84848484848484" y="26.93939393939394"/>
    </contour>
  </outline>
</glyph>
<glyph name="nya-tamil" format="2">
  <advance width="891.1515151515151"/>
  <unicode hex="0B9E"/>
  <note>
uni0B9E
</note>
  <anchor x="423.1515151515151" y="0.0" name="bottom"/>
  <anchor x="777.7575757575758" y="544.5454545454545" name="imatra"/>
  <anchor x="377.18181818181813" y="-261.45454545454544" name="nukta"/>
  <anchor x="555.5757575757576" y="544.5454545454545" name="top"/>
  <anchor x="517.6666666666666" y="544.5454545454545" name="vedic"/>
  <outline>
    <contour>
      <point x="376.12121212121207" y="-261.45454545454544" type="curve" smooth="yes"/>
      <point x="639.1818181818182" y="-261.45454545454544"/>
      <point x="832.6060606060606" y="-57.51515151515151"/>
      <point x="832.6060606060606" y="201.42424242424244" type="curve" smooth="yes"/>
      <point x="832.6060606060606" y="279.33333333333337"/>
      <point x="794.3939393939395" y="331.6060606060606"/>
      <point x="733.6363636363636" y="331.6060606060606" type="curve" smooth="yes"/>
      <point x="673.3030303030303" y="331.6060606060606"/>
      <point x="628.8181818181819" y="279.21212121212125"/>
      <point x="609.6666666666666" y="189.45454545454544" type="curve" smooth="yes"/>
      <point x="605.1818181818181" y="168.45454545454544" type="line"/>
      <point x="619.090909090909" y="168.45454545454544" type="line"/>
      <point x="623.5757575757575" y="188.24242424242425" type="line" smooth="yes"/>
      <point x="638.3030303030304" y="251.15151515151516"/>
      <point x="674.3939393939394" y="299.3333333333333"/>
      <point x="721.6363636363636" y="299.3333333333333" type="curve" smooth="yes"/>
      <point x="767.1515151515151" y="299.3333333333333"/>
      <point x="790.4545454545455" y="260.3939393939394"/>
      <point x="790.4545454545455" y="198.36363636363635" type="curve" smooth="yes"/>
      <point x="790.4545454545455" y="-32.6060606060606"/>
      <point x="617.0" y="-229.51515151515153"/>
      <point x="377.33333333333326" y="-229.51515151515153" type="curve" smooth="yes"/>
      <point x="178.72727272727275" y="-229.51515151515153"/>
      <point x="63.18181818181819" y="-76.2121212121212"/>
      <point x="63.18181818181819" y="128.12121212121212" type="curve" smooth="yes"/>
      <point x="63.18181818181819" y="309.2121212121212"/>
      <point x="138.39393939393938" y="468.39393939393943"/>
      <point x="279.6060606060606" y="623.4545454545455" type="curve"/>
      <point x="256.6363636363636" y="643.2121212121212" type="line"/>
      <point x="111.42424242424244" y="483.2121212121212"/>
      <point x="29.303030303030297" y="316.93939393939394"/>
      <point x="29.303030303030297" y="125.27272727272728" type="curve" smooth="yes"/>
      <point x="29.303030303030297" y="-86.12121212121211"/>
      <point x="152.84848484848484" y="-261.45454545454544"/>
    </contour>
    <component base="e-tamil" xOffset="153.03030303030303"/>
  </outline>
</glyph>
<glyph name="tta-tamil" format="2">
  <advance width="637.6363636363636"/>
  <unicode hex="0B9F"/>
  <note>
uni0B9F
</note>
  <anchor x="293.1515151515152" y="0.0" name="bottom"/>
  <anchor x="293.1515151515152" y="0.0" name="nukta"/>
  <anchor x="420.30303030303025" y="544.5454545454545" name="top"/>
  <anchor x="409.18181818181824" y="544.5454545454545" name="vedic"/>
  <outline>
    <contour>
      <point x="30.181818181818187" y="0.0" type="line"/>
      <point x="558.4848484848484" y="0.0" type="line"/>
      <point x="564.7575757575758" y="29.575757575757578" type="line"/>
      <point x="77.96969696969698" y="29.575757575757578" type="line"/>
      <point x="187.33333333333334" y="544.5454545454545" type="line"/>
      <point x="146.39393939393938" y="544.5454545454545" type="line"/>
    </contour>
  </outline>
</glyph>
<glyph name="nna-tamil" format="2">
  <advance width="1196.6666666666667"/>
  <unicode hex="0BA3"/>
  <note>
uni0BA3
</note>
  <anchor x="583.2121212121212" y="0.0" name="bottom"/>
  <anchor x="1154.1515151515152" y="544.5454545454545" name="imatra"/>
  <anchor x="582.7878787878789" y="0.0" name="nukta"/>
  <anchor x="695.5151515151515" y="544.5454545454545" name="top"/>
  <anchor x="674.6969696969696" y="544.5454545454545" name="vedic"/>
  <outline>
    <contour>
      <point x="434.54545454545456" y="-5.0" type="curve" smooth="yes"/>
      <point x="526.060606060606" y="-5.0"/>
      <point x="596.5757575757576" y="101.42424242424242"/>
      <point x="596.5757575757576" y="244.45454545454544" type="curve" smooth="yes"/>
      <point x="596.5757575757576" y="434.2121212121212"/>
      <point x="502.27272727272725" y="553.4848484848485"/>
      <point x="343.1818181818182" y="553.4848484848485" type="curve" smooth="yes"/>
      <point x="161.96969696969694" y="553.4848484848485"/>
      <point x="31.090909090909086" y="351.3030303030303"/>
      <point x="31.090909090909086" y="160.96969696969697" type="curve" smooth="yes"/>
      <point x="31.090909090909086" y="56.757575757575765"/>
      <point x="74.36363636363636" y="-4.212121212121212"/>
      <point x="148.60606060606062" y="-4.212121212121212" type="curve" smooth="yes"/>
      <point x="222.0909090909091" y="-4.212121212121212"/>
      <point x="285.3333333333333" y="66.0"/>
      <point x="285.3333333333333" y="166.9090909090909" type="curve" smooth="yes"/>
      <point x="285.3333333333333" y="246.75757575757575"/>
      <point x="242.63636363636363" y="287.24242424242425"/>
      <point x="186.72727272727275" y="287.24242424242425" type="curve" smooth="yes"/>
      <point x="121.96969696969695" y="287.24242424242425"/>
      <point x="72.84848484848484" y="234.63636363636365"/>
      <point x="44.63636363636364" y="170.0" type="curve"/>
      <point x="54.242424242424235" y="141.21212121212122" type="line"/>
      <point x="86.48484848484848" y="209.54545454545456"/>
      <point x="123.84848484848484" y="253.33333333333334"/>
      <point x="176.57575757575756" y="253.33333333333334" type="curve" smooth="yes"/>
      <point x="219.24242424242422" y="253.33333333333334"/>
      <point x="245.03030303030306" y="225.54545454545453"/>
      <point x="245.03030303030306" y="160.93939393939394" type="curve" smooth="yes"/>
      <point x="245.03030303030306" y="84.60606060606061"/>
      <point x="201.21212121212122" y="26.93939393939394"/>
      <point x="147.63636363636365" y="26.93939393939394" type="curve" smooth="yes"/>
      <point x="94.48484848484847" y="26.93939393939394"/>
      <point x="62.39393939393939" y="75.21212121212122"/>
      <point x="62.39393939393939" y="161.96969696969697" type="curve" smooth="yes"/>
      <point x="62.39393939393939" y="329.1818181818182"/>
      <point x="176.66666666666666" y="523.1212121212121"/>
      <point x="339.75757575757575" y="523.1212121212121" type="curve" smooth="yes"/>
      <point x="484.0" y="523.1212121212121"/>
      <point x="555.060606060606" y="411.0"/>
      <point x="555.060606060606" y="239.03030303030306" type="curve" smooth="yes"/>
      <point x="555.060606060606" y="117.81818181818181"/>
      <point x="501.1515151515151" y="26.93939393939394"/>
      <point x="432.63636363636357" y="26.93939393939394" type="curve" smooth="yes"/>
      <point x="393.33333333333337" y="26.93939393939394"/>
      <point x="371.4545454545455" y="64.72727272727273"/>
      <point x="371.4545454545455" y="138.96969696969697" type="curve" smooth="yes"/>
      <point x="371.4545454545455" y="315.03030303030306"/>
      <point x="501.1515151515152" y="523.1212121212121"/>
      <point x="671.6060606060606" y="523.1212121212121" type="curve" smooth="yes"/>
      <point x="814.7272727272726" y="523.1212121212121"/>
      <point x="862.5757575757575" y="399.0"/>
      <point x="862.5757575757575" y="250.66666666666666" type="curve" smooth="yes"/>
      <point x="862.5757575757575" y="126.30303030303031"/>
      <point x="806.6666666666666" y="26.93939393939394"/>
      <point x="738.5757575757575" y="26.93939393939394" type="curve" smooth="yes"/>
      <point x="699.2727272727273" y="26.93939393939394"/>
      <point x="678.969696969697" y="63.45454545454546"/>
      <point x="678.969696969697" y="135.33333333333334" type="curve" smooth="yes"/>
      <point x="678.969696969697" y="313.51515151515156"/>
      <point x="822.2121212121212" y="514.969696969697"/>
      <point x="1004.7575757575758" y="514.969696969697" type="curve" smooth="yes"/>
      <point x="1223.2424242424242" y="514.969696969697" type="line"/>
      <point x="1229.5151515151517" y="544.5454545454545" type="line"/>
      <point x="1008.030303030303" y="544.5454545454545" type="line" smooth="yes"/>
      <point x="802.0909090909091" y="544.5454545454545"/>
      <point x="648.030303030303" y="333.48484848484844"/>
      <point x="648.030303030303" y="126.75757575757575" type="curve" smooth="yes"/>
      <point x="648.030303030303" y="40.27272727272727"/>
      <point x="683.030303030303" y="-5.0"/>
      <point x="740.4848484848485" y="-5.0" type="curve" smooth="yes"/>
      <point x="832.2121212121212" y="-5.0"/>
      <point x="904.0909090909092" y="109.6969696969697"/>
      <point x="904.0909090909092" y="256.09090909090907" type="curve" smooth="yes"/>
      <point x="904.0909090909092" y="417.96969696969694"/>
      <point x="839.5757575757575" y="553.4848484848485"/>
      <point x="674.6666666666667" y="553.4848484848485" type="curve" smooth="yes"/>
      <point x="482.939393939394" y="553.4848484848485"/>
      <point x="340.5151515151515" y="335.0"/>
      <point x="340.5151515151515" y="130.3939393939394" type="curve" smooth="yes"/>
      <point x="340.5151515151515" y="41.54545454545455"/>
      <point x="377.0909090909091" y="-5.0"/>
    </contour>
    <contour>
      <point x="955.5757575757575" y="0.0" type="line"/>
      <point x="996.8787878787878" y="0.0" type="line"/>
      <point x="1108.8787878787878" y="528.2121212121212" type="line"/>
      <point x="1068.3636363636363" y="528.2121212121212" type="line"/>
    </contour>
  </outline>
</glyph>
<glyph name="na-tamil" format="2">
  <advance width="561.4848484848484"/>
  <unicode hex="0BA8"/>
  <note>
uni0BA8
</note>
  <anchor x="227.57575757575756" y="0.0" name="bottom"/>
  <anchor x="454.3333333333333" y="544.5454545454545" name="imatra"/>
  <anchor x="206.87878787878788" y="-157.36363636363637" name="nukta"/>
  <anchor x="355.8787878787879" y="544.5454545454545" name="top"/>
  <anchor x="354.06060606060606" y="544.5454545454545" name="vedic"/>
  <outline>
    <contour>
      <point x="31.06060606060606" y="-196.78787878787878" type="curve"/>
      <point x="40.33333333333333" y="-144.54545454545453"/>
      <point x="65.96969696969697" y="-118.51515151515152"/>
      <point x="115.33333333333334" y="-118.51515151515152" type="curve" smooth="yes"/>
      <point x="215.7878787878788" y="-118.51515151515152" type="line" smooth="yes"/>
      <point x="389.4848484848485" y="-118.51515151515152"/>
      <point x="506.51515151515156" y="19.545454545454547"/>
      <point x="506.51515151515156" y="210.15151515151516" type="curve" smooth="yes"/>
      <point x="506.51515151515156" y="284.81818181818187"/>
      <point x="472.8787878787879" y="331.6060606060606"/>
      <point x="413.39393939393943" y="331.6060606060606" type="curve" smooth="yes"/>
      <point x="372.6060606060606" y="331.6060606060606"/>
      <point x="344.6060606060606" y="306.03030303030306"/>
      <point x="322.8787878787879" y="274.1515151515152" type="curve"/>
      <point x="373.969696969697" y="514.969696969697" type="line"/>
      <point x="482.2727272727273" y="514.969696969697" type="line"/>
      <point x="488.7575757575757" y="544.5454545454545" type="line"/>
      <point x="148.54545454545453" y="544.5454545454545" type="line"/>
      <point x="33.121212121212125" y="0.0" type="line"/>
      <point x="65.06060606060606" y="0.0" type="line"/>
      <point x="174.21212121212122" y="514.969696969697" type="line"/>
      <point x="334.030303030303" y="514.969696969697" type="line"/>
      <point x="223.8787878787879" y="0.0" type="line"/>
      <point x="264.60606060606057" y="0.0" type="line"/>
      <point x="305.45454545454544" y="191.45454545454547" type="line" smooth="yes"/>
      <point x="316.030303030303" y="241.9090909090909"/>
      <point x="351.06060606060606" y="298.4848484848485"/>
      <point x="402.1212121212122" y="298.4848484848485" type="curve" smooth="yes"/>
      <point x="443.7878787878788" y="298.4848484848485"/>
      <point x="463.3636363636364" y="264.45454545454544"/>
      <point x="463.3636363636364" y="206.66666666666666" type="curve" smooth="yes"/>
      <point x="463.3636363636364" y="39.18181818181819"/>
      <point x="373.0909090909091" y="-88.06060606060606"/>
      <point x="215.7878787878788" y="-88.06060606060606" type="curve" smooth="yes"/>
      <point x="99.57575757575756" y="-88.06060606060606" type="line" smooth="yes"/>
      <point x="42.36363636363636" y="-88.06060606060606"/>
      <point x="-6.151515151515154" y="-113.69696969696969"/>
      <point x="-6.151515151515154" y="-157.4848484848485" type="curve" smooth="yes"/>
      <point x="-6.151515151515154" y="-182.8787878787879"/>
      <point x="9.757575757575754" y="-196.78787878787878"/>
    </contour>
  </outline>
</glyph>
<glyph name="pa-tamil" format="2">
  <advance width="643.3636363636363"/>
  <unicode hex="0BAA"/>
  <note>
uni0BAA
</note>
  <anchor x="263.8181818181818" y="0.0" name="bottom"/>
  <anchor x="606.0303030303031" y="544.5454545454545" name="imatra"/>
  <anchor x="263.8181818181818" y="0.0" name="nukta"/>
  <anchor x="382.1818181818182" y="544.5454545454545" name="top"/>
  <anchor x="379.45454545454544" y="544.5454545454545" name="vedic"/>
  <outline>
    <contour>
      <point x="30.181818181818187" y="0.0" type="line"/>
      <point x="496.969696969697" y="0.0" type="line"/>
      <point x="612.6060606060606" y="544.5454545454545" type="line"/>
      <point x="572.090909090909" y="544.5454545454545" type="line"/>
      <point x="462.72727272727275" y="29.575757575757578" type="line"/>
      <point x="77.96969696969698" y="29.575757575757578" type="line"/>
      <point x="187.33333333333334" y="544.5454545454545" type="line"/>
      <point x="146.39393939393938" y="544.5454545454545" type="line"/>
    </contour>
  </outline>
</glyph>
<glyph name="ma-tamil" format="2">
  <advance width="650.5151515151515"/>
  <unicode hex="0BAE"/>
  <note>
uni0BAE
</note>
  <anchor x="272.1212121212121" y="0.0" name="bottom"/>
  <anchor x="639.8787878787879" y="544.5454545454545" name="imatra"/>
  <anchor x="272.3333333333333" y="0.0" name="nukta"/>
  <anchor x="408.72727272727275" y="544.5454545454545" name="top"/>
  <anchor x="401.3333333333333" y="544.5454545454545" name="vedic"/>
  <outline>
    <contour>
      <point x="30.181818181818187" y="0.0" type="line"/>
      <point x="419.7272727272727" y="0.0" type="line" smooth="yes"/>
      <point x="547.4848484848484" y="0.0"/>
      <point x="602.2727272727273" y="167.63636363636363"/>
      <point x="602.2727272727273" y="334.2727272727273" type="curve" smooth="yes"/>
      <point x="602.2727272727273" y="474.8484848484848"/>
      <point x="555.3636363636364" y="552.6969696969697"/>
      <point x="479.3939393939394" y="552.6969696969697" type="curve" smooth="yes"/>
      <point x="412.06060606060606" y="552.6969696969697"/>
      <point x="374.1515151515151" y="506.57575757575756"/>
      <point x="355.3636363636364" y="417.7878787878788" type="curve" smooth="yes"/>
      <point x="273.06060606060606" y="29.575757575757578" type="line"/>
      <point x="77.96969696969698" y="29.575757575757578" type="line"/>
      <point x="187.33333333333334" y="544.5454545454545" type="line"/>
      <point x="146.39393939393938" y="544.5454545454545" type="line"/>
    </contour>
    <contour>
      <point x="314.5757575757576" y="29.575757575757578" type="line"/>
      <point x="396.30303030303025" y="418.0" type="line" smooth="yes"/>
      <point x="412.4545454545455" y="494.3333333333333"/>
      <point x="435.3333333333333" y="520.4848484848485"/>
      <point x="480.78787878787875" y="520.4848484848485" type="curve" smooth="yes"/>
      <point x="535.3333333333333" y="520.4848484848485"/>
      <point x="569.1212121212121" y="455.0"/>
      <point x="569.1212121212121" y="326.8484848484849" type="curve" smooth="yes"/>
      <point x="569.1212121212121" y="186.3030303030303"/>
      <point x="517.1515151515151" y="29.575757575757578"/>
      <point x="420.0" y="29.575757575757578" type="curve" smooth="yes"/>
    </contour>
  </outline>
</glyph>
<glyph name="ya-tamil" format="2">
  <advance width="681.6666666666667"/>
  <unicode hex="0BAF"/>
  <note>
uni0BAF
</note>
  <anchor x="294.96969696969694" y="0.0" name="bottom"/>
  <anchor x="650.2727272727273" y="544.5454545454545" name="imatra"/>
  <anchor x="295.60606060606057" y="0.0" name="nukta"/>
  <anchor x="413.5757575757576" y="544.5454545454545" name="top"/>
  <anchor x="401.57575757575756" y="544.5454545454545" name="vedic"/>
  <outline>
    <contour>
      <point x="134.15151515151516" y="-5.0" type="curve" smooth="yes"/>
      <point x="174.6060606060606" y="-5.0"/>
      <point x="206.60606060606062" y="19.333333333333332"/>
      <point x="227.12121212121212" y="50.0" type="curve"/>
      <point x="216.12121212121212" y="0.0" type="line"/>
      <point x="535.2727272727273" y="0.0" type="line"/>
      <point x="651.6969696969696" y="544.5454545454545" type="line"/>
      <point x="610.7575757575758" y="544.5454545454545" type="line"/>
      <point x="501.60606060606057" y="29.575757575757578" type="line"/>
      <point x="260.4848484848485" y="29.575757575757578" type="line"/>
      <point x="369.6363636363636" y="544.5454545454545" type="line"/>
      <point x="328.9090909090909" y="544.5454545454545" type="line"/>
      <point x="241.12121212121212" y="127.03030303030303" type="line" smooth="yes"/>
      <point x="229.12121212121212" y="69.81818181818183"/>
      <point x="191.66666666666669" y="28.424242424242426"/>
      <point x="147.0" y="28.424242424242426" type="curve" smooth="yes"/>
      <point x="101.75757575757575" y="28.424242424242426"/>
      <point x="81.96969696969697" y="68.51515151515152"/>
      <point x="97.33333333333333" y="139.18181818181816" type="curve" smooth="yes"/>
      <point x="184.33333333333331" y="544.5454545454545" type="line"/>
      <point x="144.1818181818182" y="544.5454545454545" type="line"/>
      <point x="58.606060606060616" y="143.45454545454547" type="line" smooth="yes"/>
      <point x="38.18181818181819" y="48.909090909090914"/>
      <point x="74.03030303030303" y="-5.0"/>
    </contour>
  </outline>
</glyph>
<glyph name="ra-tamil" format="2">
  <advance width="493.21212121212125"/>
  <unicode hex="0BB0"/>
  <note>
uni0BB0
</note>
  <anchor x="199.1818181818182" y="0.0" name="bottom"/>
  <anchor x="477.2424242424242" y="544.5454545454545" name="imatra"/>
  <anchor x="161.12121212121212" y="-172.21212121212122" name="nukta"/>
  <anchor x="328.45454545454544" y="544.5454545454545" name="top"/>
  <anchor x="332.93939393939394" y="544.5454545454545" name="vedic"/>
  <outline>
    <contour>
      <point x="89.75757575757576" y="-196.9090909090909" type="line"/>
      <point x="274.21212121212125" y="4.515151515151516" type="line"/>
      <point x="383.0909090909091" y="514.969696969697" type="line"/>
      <point x="519.7878787878788" y="514.969696969697" type="line"/>
      <point x="526.060606060606" y="544.5454545454545" type="line"/>
      <point x="146.39393939393938" y="544.5454545454545" type="line"/>
      <point x="30.181818181818187" y="0.0" type="line"/>
      <point x="62.54545454545455" y="0.0" type="line"/>
      <point x="171.6969696969697" y="514.969696969697" type="line"/>
      <point x="342.3636363636364" y="514.969696969697" type="line"/>
      <point x="234.21212121212122" y="6.727272727272727" type="line"/>
      <point x="67.57575757575758" y="-176.0909090909091" type="line"/>
    </contour>
  </outline>
</glyph>
<glyph name="rra-tamil" format="2">
  <advance width="619.8181818181819"/>
  <unicode hex="0BB1"/>
  <note>
uni0BB1
</note>
  <anchor x="247.9090909090909" y="0.0" name="bottom"/>
  <anchor x="223.3939393939394" y="-145.42424242424244" name="nukta"/>
  <anchor x="361.93939393939394" y="544.5454545454545" name="top"/>
  <anchor x="376.69696969696975" y="544.5454545454545" name="vedic"/>
  <outline>
    <contour>
      <point x="34.0" y="-193.6060606060606" type="curve"/>
      <point x="43.27272727272727" y="-141.36363636363635"/>
      <point x="69.69696969696969" y="-114.54545454545456"/>
      <point x="119.06060606060606" y="-114.54545454545456" type="curve" smooth="yes"/>
      <point x="213.6363636363636" y="-114.54545454545456" type="line" smooth="yes"/>
      <point x="439.27272727272725" y="-114.54545454545456"/>
      <point x="578.090909090909" y="108.15151515151516"/>
      <point x="578.090909090909" y="361.1515151515151" type="curve" smooth="yes"/>
      <point x="578.090909090909" y="489.6666666666667"/>
      <point x="518.8787878787879" y="552.6969696969697"/>
      <point x="442.4848484848485" y="552.6969696969697" type="curve" smooth="yes"/>
      <point x="381.6363636363636" y="552.6969696969697"/>
      <point x="346.0" y="513.4848484848485"/>
      <point x="324.1515151515151" y="477.2727272727273" type="curve"/>
      <point x="315.72727272727275" y="515.4242424242424"/>
      <point x="290.30303030303025" y="552.4848484848485"/>
      <point x="235.3939393939394" y="552.4848484848485" type="curve" smooth="yes"/>
      <point x="178.75757575757575" y="552.4848484848485"/>
      <point x="135.42424242424244" y="508.90909090909093"/>
      <point x="118.21212121212122" y="427.6363636363637" type="curve" smooth="yes"/>
      <point x="27.21212121212121" y="0.0" type="line"/>
      <point x="59.151515151515156" y="0.0" type="line"/>
      <point x="149.15151515151516" y="425.57575757575756" type="line" smooth="yes"/>
      <point x="162.5151515151515" y="489.6060606060606"/>
      <point x="188.45454545454547" y="522.1212121212121"/>
      <point x="234.54545454545456" y="522.1212121212121" type="curve" smooth="yes"/>
      <point x="286.2121212121212" y="522.1212121212121"/>
      <point x="303.1515151515151" y="474.24242424242425"/>
      <point x="290.3636363636364" y="413.7272727272727" type="curve" smooth="yes"/>
      <point x="202.57575757575756" y="0.0" type="line"/>
      <point x="243.3030303030303" y="0.0" type="line"/>
      <point x="331.7272727272727" y="415.48484848484844" type="line" smooth="yes"/>
      <point x="346.8787878787879" y="484.66666666666663"/>
      <point x="389.33333333333337" y="522.3333333333334"/>
      <point x="439.0" y="522.3333333333334" type="curve" smooth="yes"/>
      <point x="491.939393939394" y="522.3333333333334"/>
      <point x="536.4242424242424" y="484.2121212121212"/>
      <point x="536.4242424242424" y="362.6666666666667" type="curve" smooth="yes"/>
      <point x="536.4242424242424" y="126.81818181818181"/>
      <point x="412.06060606060606" y="-84.87878787878788"/>
      <point x="212.96969696969694" y="-84.87878787878788" type="curve" smooth="yes"/>
      <point x="102.5151515151515" y="-84.87878787878788" type="line" smooth="yes"/>
      <point x="45.303030303030305" y="-84.87878787878788"/>
      <point x="-3.212121212121212" y="-110.51515151515152"/>
      <point x="-3.212121212121212" y="-154.3030303030303" type="curve" smooth="yes"/>
      <point x="-3.212121212121212" y="-179.69696969696972"/>
      <point x="12.696969696969695" y="-193.6060606060606"/>
    </contour>
  </outline>
</glyph>
<glyph name="la-tamil" format="2">
  <advance width="738.4545454545454"/>
  <unicode hex="0BB2"/>
  <note>
uni0BB2
</note>
  <anchor x="318.969696969697" y="0.0" name="bottom"/>
  <anchor x="318.969696969697" y="0.0" name="nukta"/>
  <anchor x="440.48484848484844" y="544.5454545454545" name="top"/>
  <anchor x="427.30303030303025" y="544.5454545454545" name="vedic"/>
  <outline>
    <contour>
      <point x="149.6060606060606" y="-4.212121212121212" type="curve" smooth="yes"/>
      <point x="223.09090909090907" y="-4.212121212121212"/>
      <point x="286.33333333333337" y="66.0"/>
      <point x="286.33333333333337" y="166.9090909090909" type="curve" smooth="yes"/>
      <point x="286.33333333333337" y="246.75757575757575"/>
      <point x="243.63636363636363" y="287.24242424242425"/>
      <point x="187.72727272727272" y="287.24242424242425" type="curve" smooth="yes"/>
      <point x="122.96969696969697" y="287.24242424242425"/>
      <point x="73.84848484848484" y="234.63636363636365"/>
      <point x="45.63636363636363" y="170.0" type="curve"/>
      <point x="55.24242424242424" y="141.21212121212122" type="line"/>
      <point x="87.48484848484848" y="209.54545454545456"/>
      <point x="124.84848484848486" y="253.33333333333334"/>
      <point x="177.57575757575756" y="253.33333333333334" type="curve" smooth="yes"/>
      <point x="220.24242424242425" y="253.33333333333334"/>
      <point x="246.03030303030303" y="225.54545454545453"/>
      <point x="246.03030303030303" y="160.93939393939394" type="curve" smooth="yes"/>
      <point x="246.03030303030303" y="84.60606060606061"/>
      <point x="202.2121212121212" y="26.93939393939394"/>
      <point x="148.63636363636363" y="26.93939393939394" type="curve" smooth="yes"/>
      <point x="95.48484848484848" y="26.93939393939394"/>
      <point x="63.3939393939394" y="75.21212121212122"/>
      <point x="63.3939393939394" y="161.96969696969697" type="curve" smooth="yes"/>
      <point x="63.3939393939394" y="327.06060606060606"/>
      <point x="160.33333333333331" y="522.3333333333334"/>
      <point x="319.57575757575756" y="522.3333333333334" type="curve" smooth="yes"/>
      <point x="418.63636363636357" y="522.3333333333334"/>
      <point x="445.96969696969694" y="444.75757575757575"/>
      <point x="422.1212121212121" y="340.0" type="curve" smooth="yes"/>
      <point x="377.8787878787879" y="145.93939393939394" type="line" smooth="yes"/>
      <point x="358.6666666666667" y="61.51515151515152"/>
      <point x="378.8787878787879" y="-3.1515151515151514"/>
      <point x="459.90909090909093" y="-3.1515151515151514" type="curve" smooth="yes"/>
      <point x="588.6666666666666" y="-3.1515151515151514"/>
      <point x="698.7878787878788" y="163.3939393939394"/>
      <point x="698.7878787878788" y="367.2727272727273" type="curve" smooth="yes"/>
      <point x="698.7878787878788" y="442.57575757575756"/>
      <point x="684.3636363636364" y="493.1212121212121"/>
      <point x="661.7272727272727" y="549.5454545454545" type="curve"/>
      <point x="627.8484848484849" y="534.4242424242424" type="line"/>
      <point x="647.4848484848485" y="486.93939393939394"/>
      <point x="665.2727272727273" y="431.7878787878788"/>
      <point x="665.2727272727273" y="363.0" type="curve" smooth="yes"/>
      <point x="665.2727272727273" y="189.45454545454547"/>
      <point x="570.8484848484849" y="28.272727272727273"/>
      <point x="469.00000000000006" y="28.272727272727273" type="curve" smooth="yes"/>
      <point x="409.1818181818182" y="28.272727272727273"/>
      <point x="404.60606060606057" y="77.42424242424244"/>
      <point x="419.3939393939394" y="144.15151515151516" type="curve" smooth="yes"/>
      <point x="462.06060606060606" y="337.06060606060606" type="line" smooth="yes"/>
      <point x="490.5454545454546" y="465.5757575757576"/>
      <point x="443.1212121212122" y="552.6969696969697"/>
      <point x="324.9090909090909" y="552.6969696969697" type="curve" smooth="yes"/>
      <point x="145.63636363636365" y="552.6969696969697"/>
      <point x="32.09090909090909" y="349.1818181818182"/>
      <point x="32.09090909090909" y="160.96969696969697" type="curve" smooth="yes"/>
      <point x="32.09090909090909" y="56.757575757575765"/>
      <point x="75.36363636363636" y="-4.212121212121212"/>
    </contour>
  </outline>
</glyph>
<glyph name="va-tamil" format="2">
  <advance width="821.4545454545455"/>
  <unicode hex="0BB5"/>
  <note>
uni0BB5
</note>
  <anchor x="365.939393939394" y="0.0" name="bottom"/>
  <anchor x="759.3030303030303" y="544.5454545454545" name="imatra"/>
  <anchor x="365.939393939394" y="0.0" name="nukta"/>
  <anchor x="468.66666666666663" y="544.5454545454545" name="top"/>
  <anchor x="459.69696969696963" y="544.5454545454545" name="vedic"/>
  <outline>
    <contour>
      <point x="149.39393939393938" y="-4.212121212121212" type="curve" smooth="yes"/>
      <point x="222.87878787878785" y="-4.212121212121212"/>
      <point x="286.1212121212121" y="66.0"/>
      <point x="286.1212121212121" y="166.9090909090909" type="curve" smooth="yes"/>
      <point x="286.1212121212121" y="246.75757575757575"/>
      <point x="243.4242424242424" y="287.24242424242425"/>
      <point x="187.5151515151515" y="287.24242424242425" type="curve" smooth="yes"/>
      <point x="122.75757575757575" y="287.24242424242425"/>
      <point x="73.63636363636364" y="234.63636363636365"/>
      <point x="45.42424242424242" y="170.0" type="curve"/>
      <point x="55.03030303030303" y="141.21212121212122" type="line"/>
      <point x="87.27272727272728" y="209.54545454545456"/>
      <point x="124.63636363636365" y="253.33333333333334"/>
      <point x="177.36363636363637" y="253.33333333333334" type="curve" smooth="yes"/>
      <point x="220.03030303030306" y="253.33333333333334"/>
      <point x="245.8181818181818" y="225.54545454545453"/>
      <point x="245.8181818181818" y="160.93939393939394" type="curve" smooth="yes"/>
      <point x="245.8181818181818" y="84.60606060606061"/>
      <point x="202.0" y="26.93939393939394"/>
      <point x="148.4242424242424" y="26.93939393939394" type="curve" smooth="yes"/>
      <point x="95.27272727272727" y="26.93939393939394"/>
      <point x="63.18181818181819" y="75.21212121212122"/>
      <point x="63.18181818181819" y="161.96969696969697" type="curve" smooth="yes"/>
      <point x="63.18181818181819" y="327.06060606060606"/>
      <point x="168.60606060606062" y="523.1212121212121"/>
      <point x="330.7272727272727" y="523.1212121212121" type="curve" smooth="yes"/>
      <point x="435.4848484848485" y="523.1212121212121"/>
      <point x="487.3333333333333" y="453.8181818181818"/>
      <point x="487.3333333333333" y="336.030303030303" type="curve" smooth="yes"/>
      <point x="487.3333333333333" y="225.36363636363637"/>
      <point x="436.2424242424242" y="115.18181818181819"/>
      <point x="356.6363636363637" y="23.454545454545457" type="curve"/>
      <point x="367.78787878787875" y="0.0" type="line"/>
      <point x="675.060606060606" y="0.0" type="line"/>
      <point x="791.4848484848485" y="544.5454545454545" type="line"/>
      <point x="749.969696969697" y="544.5454545454545" type="line"/>
      <point x="640.8181818181819" y="29.575757575757578" type="line"/>
      <point x="398.909090909091" y="29.575757575757578" type="line"/>
      <point x="477.27272727272725" y="120.45454545454545"/>
      <point x="529.4242424242424" y="222.6969696969697"/>
      <point x="529.4242424242424" y="340.0" type="curve" smooth="yes"/>
      <point x="529.4242424242424" y="474.7272727272727"/>
      <point x="456.2121212121212" y="553.4848484848485"/>
      <point x="335.6363636363636" y="553.4848484848485" type="curve" smooth="yes"/>
      <point x="153.4848484848485" y="553.4848484848485"/>
      <point x="31.878787878787882" y="349.1818181818182"/>
      <point x="31.878787878787882" y="160.96969696969697" type="curve" smooth="yes"/>
      <point x="31.878787878787882" y="56.757575757575765"/>
      <point x="75.15151515151514" y="-4.212121212121212"/>
    </contour>
  </outline>
</glyph>
<glyph name="sa-tamil" format="2">
  <advance width="934.2727272727274"/>
  <unicode hex="0BB8"/>
  <note>
uni0BB8
</note>
  <anchor x="417.06060606060606" y="0.0" name="bottom"/>
  <anchor x="417.06060606060606" y="0.0" name="nukta"/>
  <anchor x="524.2727272727273" y="544.5454545454545" name="top"/>
  <anchor x="522.0303030303031" y="544.5454545454545" name="vedic"/>
  <outline>
    <contour>
      <point x="361.8787878787879" y="0.0" type="line"/>
      <point x="402.60606060606057" y="0.0" type="line"/>
      <point x="495.75757575757575" y="438.60606060606057" type="line" smooth="yes"/>
      <point x="507.5454545454545" y="493.3333333333333"/>
      <point x="538.0" y="522.1212121212121"/>
      <point x="580.4242424242424" y="522.1212121212121" type="curve" smooth="yes"/>
      <point x="627.1515151515152" y="522.1212121212121"/>
      <point x="646.5757575757576" y="483.1818181818182"/>
      <point x="633.2121212121211" y="420.3636363636364" type="curve" smooth="yes"/>
      <point x="573.6969696969696" y="145.15151515151516" type="line" smooth="yes"/>
      <point x="555.2727272727273" y="60.727272727272734"/>
      <point x="574.6969696969696" y="-3.1515151515151514"/>
      <point x="655.7272727272727" y="-3.1515151515151514" type="curve" smooth="yes"/>
      <point x="784.4848484848485" y="-3.1515151515151514"/>
      <point x="894.6060606060606" y="163.3939393939394"/>
      <point x="894.6060606060606" y="367.2727272727273" type="curve" smooth="yes"/>
      <point x="894.6060606060606" y="442.57575757575756"/>
      <point x="880.1818181818182" y="493.1212121212121"/>
      <point x="857.5454545454546" y="549.5454545454545" type="curve"/>
      <point x="823.6666666666667" y="534.4242424242425" type="line"/>
      <point x="843.3030303030304" y="486.93939393939394"/>
      <point x="861.0909090909092" y="431.7878787878788"/>
      <point x="861.0909090909092" y="363.0" type="curve" smooth="yes"/>
      <point x="861.0909090909092" y="189.45454545454547"/>
      <point x="766.6666666666666" y="28.272727272727273"/>
      <point x="664.8181818181819" y="28.272727272727273" type="curve" smooth="yes"/>
      <point x="605.0" y="28.272727272727273"/>
      <point x="600.4242424242425" y="77.42424242424242"/>
      <point x="615.2121212121212" y="144.15151515151516" type="curve" smooth="yes"/>
      <point x="673.090909090909" y="414.8181818181818" type="line" smooth="yes"/>
      <point x="689.3030303030304" y="491.3030303030303"/>
      <point x="658.8181818181818" y="552.6969696969697"/>
      <point x="586.3030303030303" y="552.6969696969697" type="curve" smooth="yes"/>
      <point x="528.4242424242424" y="552.6969696969697"/>
      <point x="481.66666666666663" y="506.7878787878788"/>
      <point x="468.030303030303" y="444.8181818181818" type="curve" smooth="yes"/>
      <point x="454.7575757575757" y="383.5151515151515" type="line"/>
      <point x="442.969696969697" y="383.5151515151515" type="line"/>
    </contour>
    <contour>
      <point x="148.03030303030303" y="-4.212121212121212" type="curve" smooth="yes"/>
      <point x="221.51515151515153" y="-4.212121212121212"/>
      <point x="286.3333333333333" y="66.0"/>
      <point x="286.3333333333333" y="166.9090909090909" type="curve" smooth="yes"/>
      <point x="286.3333333333333" y="246.75757575757575"/>
      <point x="243.63636363636365" y="287.24242424242425"/>
      <point x="187.7272727272727" y="287.24242424242425" type="curve" smooth="yes"/>
      <point x="122.96969696969697" y="287.24242424242425"/>
      <point x="73.84848484848484" y="234.63636363636365"/>
      <point x="45.63636363636364" y="170.0" type="curve"/>
      <point x="55.24242424242425" y="141.21212121212122" type="line"/>
      <point x="87.48484848484848" y="209.54545454545456"/>
      <point x="124.84848484848484" y="253.33333333333334"/>
      <point x="177.5757575757576" y="253.33333333333334" type="curve" smooth="yes"/>
      <point x="220.24242424242425" y="253.33333333333334"/>
      <point x="246.030303030303" y="225.54545454545453"/>
      <point x="246.030303030303" y="160.93939393939394" type="curve" smooth="yes"/>
      <point x="246.030303030303" y="84.60606060606061"/>
      <point x="200.63636363636365" y="26.93939393939394"/>
      <point x="147.06060606060606" y="26.93939393939394" type="curve" smooth="yes"/>
      <point x="93.9090909090909" y="26.93939393939394"/>
      <point x="63.39393939393939" y="75.21212121212122"/>
      <point x="63.39393939393939" y="161.96969696969697" type="curve" smooth="yes"/>
      <point x="63.39393939393939" y="327.06060606060606"/>
      <point x="160.33333333333331" y="522.3333333333334"/>
      <point x="319.57575757575756" y="522.3333333333334" type="curve" smooth="yes"/>
      <point x="414.2727272727273" y="522.3333333333334"/>
      <point x="458.8181818181818" y="460.12121212121207"/>
      <point x="435.3939393939394" y="344.8484848484848" type="curve"/>
      <point x="465.54545454545456" y="345.1212121212121" type="line"/>
      <point x="490.8181818181818" y="473.09090909090907"/>
      <point x="438.30303030303025" y="552.6969696969697"/>
      <point x="324.90909090909093" y="552.6969696969697" type="curve" smooth="yes"/>
      <point x="145.63636363636363" y="552.6969696969697"/>
      <point x="32.09090909090909" y="349.1818181818182"/>
      <point x="32.09090909090909" y="160.96969696969697" type="curve" smooth="yes"/>
      <point x="32.09090909090909" y="56.757575757575765"/>
      <point x="73.78787878787878" y="-4.212121212121212"/>
    </contour>
  </outline>
</glyph>
<glyph name="aaMatra-tamil" format="2">
  <advance width="505.51515151515156"/>
  <unicode hex="0BBE"/>
  <note>
uni0BBE
</note>
  <anchor x="211.0909090909091" y="0.0" name="bottom"/>
  <anchor x="210.87878787878788" y="0.0" name="nukta"/>
  <anchor x="320.5151515151515" y="544.5454545454545" name="top"/>
  <anchor x="320.5151515151515" y="544.5454545454545" name="vedic"/>
  <outline>
    <contour>
      <point x="30.181818181818187" y="0.0" type="line"/>
      <point x="62.54545454545455" y="0.0" type="line"/>
      <point x="171.6969696969697" y="514.969696969697" type="line"/>
      <point x="354.66666666666663" y="514.969696969697" type="line"/>
      <point x="245.51515151515153" y="0.0" type="line"/>
      <point x="286.24242424242425" y="0.0" type="line"/>
      <point x="396.18181818181824" y="514.969696969697" type="line"/>
      <point x="532.0909090909091" y="514.969696969697" type="line"/>
      <point x="538.3636363636364" y="544.5454545454545" type="line"/>
      <point x="146.39393939393938" y="544.5454545454545" type="line"/>
    </contour>
  </outline>
</glyph>
<glyph name="iMatra-tamil" format="2">
  <advance width="170.33333333333331"/>
  <unicode hex="0BBF"/>
  <note>
uni0BBF
</note>
  <anchor x="-9.636363636363637" y="788.2121212121212" name="top"/>
  <outline>
    <contour>
      <point x="0.7272727272727249" y="0.0" type="line"/>
      <point x="32.666666666666664" y="0.0" type="line"/>
      <point x="153.51515151515153" y="566.3939393939394" type="line" smooth="yes"/>
      <point x="180.36363636363637" y="694.2121212121212"/>
      <point x="117.54545454545455" y="788.2121212121212"/>
      <point x="-9.636363636363637" y="788.2121212121212" type="curve" smooth="yes"/>
      <point x="-115.45454545454547" y="788.2121212121212"/>
      <point x="-182.06060606060606" y="709.8787878787879"/>
      <point x="-182.06060606060606" y="625.9393939393939" type="curve" smooth="yes"/>
      <point x="-182.06060606060606" y="559.7272727272726"/>
      <point x="-131.6969696969697" y="514.969696969697"/>
      <point x="-77.63636363636364" y="514.969696969697" type="curve" smooth="yes"/>
      <point x="-71.84848484848486" y="514.969696969697" type="line"/>
      <point x="-65.36363636363637" y="544.5454545454545" type="line"/>
      <point x="-69.57575757575758" y="544.5454545454545" type="line" smooth="yes"/>
      <point x="-112.81818181818183" y="544.5454545454545"/>
      <point x="-148.48484848484847" y="576.8484848484848"/>
      <point x="-148.48484848484847" y="625.7272727272727" type="curve" smooth="yes"/>
      <point x="-148.48484848484847" y="683.3636363636364"/>
      <point x="-103.0" y="745.3333333333333"/>
      <point x="-12.545454545454545" y="745.3333333333333" type="curve" smooth="yes"/>
      <point x="95.60606060606061" y="745.3333333333333"/>
      <point x="141.72727272727272" y="664.1515151515151"/>
      <point x="117.93939393939394" y="552.6363636363636" type="curve" smooth="yes"/>
    </contour>
  </outline>
</glyph>
<glyph name="iiMatra-tamil" format="2">
  <unicode hex="0BC0"/>
  <note>
uni0BC0
</note>
  <anchor x="56.63636363636364" y="544.5454545454545" name="_imatra"/>
  <anchor x="110.93939393939394" y="874.1212121212121" name="top"/>
  <outline>
    <contour>
      <point x="42.090909090909086" y="517.6060606060606" type="curve" smooth="yes"/>
      <point x="51.36363636363636" y="517.6060606060606" type="line"/>
      <point x="56.63636363636364" y="544.5454545454545" type="line"/>
      <point x="50.36363636363636" y="544.5454545454545" type="line" smooth="yes"/>
      <point x="-9.151515151515152" y="544.5454545454545"/>
      <point x="-34.0" y="588.9696969696969"/>
      <point x="-34.0" y="666.0" type="curve" smooth="yes"/>
      <point x="-34.0" y="749.3333333333334"/>
      <point x="17.242424242424242" y="845.3333333333334"/>
      <point x="108.0909090909091" y="845.3333333333334" type="curve" smooth="yes"/>
      <point x="162.8181818181818" y="845.3333333333334"/>
      <point x="195.48484848484847" y="806.1818181818181"/>
      <point x="195.48484848484847" y="751.3636363636364" type="curve" smooth="yes"/>
      <point x="195.48484848484847" y="697.4242424242424"/>
      <point x="166.96969696969697" y="647.3333333333334"/>
      <point x="116.87878787878789" y="647.3333333333334" type="curve" smooth="yes"/>
      <point x="45.57575757575757" y="647.3333333333334"/>
      <point x="61.57575757575758" y="772.1515151515151"/>
      <point x="114.36363636363637" y="854.1515151515151" type="curve"/>
      <point x="89.33333333333333" y="858.1515151515151" type="line"/>
      <point x="20.21212121212121" y="756.1818181818181"/>
      <point x="17.121212121212118" y="617.7575757575758"/>
      <point x="118.15151515151514" y="617.7575757575758" type="curve" smooth="yes"/>
      <point x="183.63636363636363" y="617.7575757575758"/>
      <point x="234.24242424242422" y="676.5454545454545"/>
      <point x="234.24242424242422" y="749.1515151515152" type="curve" smooth="yes"/>
      <point x="234.24242424242422" y="824.6969696969696"/>
      <point x="186.69696969696972" y="874.1212121212121"/>
      <point x="110.93939393939394" y="874.1212121212121" type="curve" smooth="yes"/>
      <point x="2.9696969696969697" y="874.1212121212121"/>
      <point x="-68.3030303030303" y="768.3636363636364"/>
      <point x="-68.3030303030303" y="664.1515151515151" type="curve" smooth="yes"/>
      <point x="-68.3030303030303" y="575.6666666666666"/>
      <point x="-29.484848484848488" y="517.6060606060606"/>
    </contour>
  </outline>
</glyph>
<glyph name="uuMatra-tamil" format="2">
  <advance width="605.1515151515151"/>
  <unicode hex="0BC2"/>
  <note>
uni0BC2
</note>
  <anchor x="391.99999999999994" y="780.0" name="top"/>
  <outline>
    <contour>
      <point x="237.66666666666666" y="0.7878787878787878" type="curve" smooth="yes"/>
      <point x="453.5454545454545" y="0.7878787878787878"/>
      <point x="603.7272727272727" y="228.5454545454545"/>
      <point x="603.7272727272727" y="511.51515151515144" type="curve" smooth="yes"/>
      <point x="603.7272727272727" y="680.0"/>
      <point x="520.6969696969696" y="780.0"/>
      <point x="392.0" y="780.0" type="curve" smooth="yes"/>
      <point x="248.66666666666666" y="780.0"/>
      <point x="183.54545454545453" y="664.6666666666666"/>
      <point x="159.9090909090909" y="550.030303030303" type="curve" smooth="yes"/>
      <point x="125.12121212121212" y="382.42424242424244" type="line" smooth="yes"/>
      <point x="105.84848484848483" y="288.1818181818182"/>
      <point x="140.5151515151515" y="225.8181818181818"/>
      <point x="222.30303030303028" y="225.8181818181818" type="curve" smooth="yes"/>
      <point x="277.5454545454545" y="225.8181818181818"/>
      <point x="337.81818181818187" y="255.15151515151518"/>
      <point x="358.030303030303" y="349.8484848484849" type="curve" smooth="yes"/>
      <point x="400.03030303030306" y="544.5454545454545" type="line"/>
      <point x="-131.36363636363637" y="544.5454545454545" type="line"/>
      <point x="-114.24242424242425" y="514.969696969697" type="line"/>
      <point x="352.2424242424242" y="514.969696969697" type="line"/>
      <point x="317.5151515151515" y="353.6363636363636" type="line" smooth="yes"/>
      <point x="302.3636363636363" y="282.24242424242425"/>
      <point x="262.8181818181818" y="258.3939393939394"/>
      <point x="220.030303030303" y="258.3939393939394" type="curve" smooth="yes"/>
      <point x="160.63636363636365" y="258.3939393939394"/>
      <point x="141.27272727272728" y="306.06060606060606"/>
      <point x="156.27272727272728" y="379.4242424242424" type="curve" smooth="yes"/>
      <point x="191.84848484848487" y="550.030303030303" type="line" smooth="yes"/>
      <point x="212.84848484848484" y="651.1818181818182"/>
      <point x="271.2121212121212" y="749.8484848484849"/>
      <point x="387.0909090909091" y="749.8484848484849" type="curve" smooth="yes"/>
      <point x="499.3333333333333" y="749.8484848484849"/>
      <point x="561.6363636363636" y="658.7575757575758"/>
      <point x="561.6363636363636" y="513.6969696969697" type="curve" smooth="yes"/>
      <point x="561.6363636363636" y="254.45454545454544"/>
      <point x="427.72727272727275" y="31.151515151515152"/>
      <point x="236.45454545454544" y="31.151515151515152" type="curve" smooth="yes"/>
      <point x="150.24242424242425" y="31.151515151515152"/>
      <point x="95.60606060606061" y="67.93939393939394"/>
      <point x="49.33333333333333" y="132.8181818181818" type="curve"/>
      <point x="20.818181818181817" y="110.84848484848486" type="line"/>
      <point x="70.87878787878788" y="43.96969696969697"/>
      <point x="136.0" y="0.7878787878787878"/>
    </contour>
  </outline>
</glyph>
<glyph name="eMatra-tamil" format="2">
  <advance width="597.9090909090909"/>
  <unicode hex="0BC6"/>
  <note>
uni0BC6
</note>
  <outline>
    <contour>
      <point x="175.27272727272728" y="-4.212121212121212" type="curve" smooth="yes"/>
      <point x="258.4848484848485" y="-4.212121212121212"/>
      <point x="326.3939393939394" y="67.57575757575758"/>
      <point x="326.3939393939394" y="168.48484848484847" type="curve" smooth="yes"/>
      <point x="326.3939393939394" y="248.33333333333334"/>
      <point x="279.39393939393943" y="293.8181818181818"/>
      <point x="217.9090909090909" y="293.8181818181818" type="curve" smooth="yes"/>
      <point x="150.0" y="293.8181818181818"/>
      <point x="97.15151515151516" y="233.21212121212122"/>
      <point x="62.63636363636364" y="155.18181818181816" type="curve"/>
      <point x="73.81818181818181" y="126.39393939393939" type="line"/>
      <point x="112.36363636363637" y="208.12121212121212"/>
      <point x="154.66666666666666" y="259.9090909090909"/>
      <point x="207.39393939393938" y="259.9090909090909" type="curve" smooth="yes"/>
      <point x="254.7878787878788" y="259.9090909090909"/>
      <point x="286.0909090909091" y="227.96969696969694"/>
      <point x="286.0909090909091" y="162.5151515151515" type="curve" smooth="yes"/>
      <point x="286.0909090909091" y="86.18181818181819"/>
      <point x="236.54545454545456" y="26.93939393939394"/>
      <point x="173.87878787878788" y="26.93939393939394" type="curve" smooth="yes"/>
      <point x="117.57575757575758" y="26.93939393939394"/>
      <point x="77.36363636363636" y="87.51515151515152"/>
      <point x="77.36363636363636" y="197.72727272727275" type="curve" smooth="yes"/>
      <point x="77.36363636363636" y="429.7878787878788"/>
      <point x="195.45454545454547" y="760.4545454545454"/>
      <point x="410.2121212121212" y="760.4545454545454" type="curve" smooth="yes"/>
      <point x="530.8181818181818" y="760.4545454545454"/>
      <point x="572.3939393939394" y="677.7272727272727"/>
      <point x="542.7575757575758" y="538.5454545454545" type="curve" smooth="yes"/>
      <point x="428.5151515151515" y="0.0" type="line"/>
      <point x="460.45454545454544" y="0.0" type="line"/>
      <point x="577.909090909091" y="555.5454545454546" type="line" smooth="yes"/>
      <point x="607.3939393939394" y="696.5454545454545"/>
      <point x="549.3333333333334" y="803.1818181818181"/>
      <point x="416.54545454545456" y="803.1818181818181" type="curve" smooth="yes"/>
      <point x="178.03030303030303" y="803.1818181818181"/>
      <point x="46.484848484848484" y="457.60606060606057"/>
      <point x="46.484848484848484" y="196.0" type="curve" smooth="yes"/>
      <point x="46.484848484848484" y="68.33333333333334"/>
      <point x="97.66666666666666" y="-4.212121212121212"/>
    </contour>
  </outline>
</glyph>
<glyph name="eeMatra-tamil" format="2">
  <advance width="445.75757575757575"/>
  <unicode hex="0BC7"/>
  <note>
uni0BC7
</note>
  <outline>
    <contour>
      <point x="217.93939393939397" y="-4.212121212121212" type="curve" smooth="yes"/>
      <point x="300.4848484848485" y="-4.212121212121212"/>
      <point x="371.81818181818187" y="65.63636363636363"/>
      <point x="371.81818181818187" y="171.1212121212121" type="curve" smooth="yes"/>
      <point x="371.81818181818187" y="246.03030303030303"/>
      <point x="329.54545454545456" y="288.3030303030303"/>
      <point x="275.6363636363637" y="288.3030303030303" type="curve" smooth="yes"/>
      <point x="194.93939393939394" y="288.3030303030303"/>
      <point x="142.60606060606062" y="195.0"/>
      <point x="113.5151515151515" y="83.45454545454545" type="curve"/>
      <point x="132.12121212121212" y="58.24242424242424" type="line"/>
      <point x="164.87878787878788" y="171.6969696969697"/>
      <point x="205.3030303030303" y="254.39393939393938"/>
      <point x="265.90909090909093" y="254.39393939393938" type="curve" smooth="yes"/>
      <point x="307.0" y="254.39393939393938"/>
      <point x="331.5151515151515" y="225.45454545454547"/>
      <point x="331.5151515151515" y="165.57575757575756" type="curve" smooth="yes"/>
      <point x="331.5151515151515" y="85.0909090909091"/>
      <point x="280.75757575757575" y="26.93939393939394"/>
      <point x="217.60606060606062" y="26.93939393939394" type="curve" smooth="yes"/>
      <point x="115.24242424242425" y="26.93939393939394"/>
      <point x="92.93939393939394" y="178.36363636363635"/>
      <point x="92.93939393939394" y="276.57575757575756" type="curve" smooth="yes"/>
      <point x="92.93939393939394" y="475.9090909090909"/>
      <point x="214.36363636363637" y="756.4848484848485"/>
      <point x="363.1818181818182" y="756.4848484848485" type="curve" smooth="yes"/>
      <point x="412.8484848484848" y="756.4848484848485"/>
      <point x="446.51515151515156" y="730.2727272727274"/>
      <point x="446.51515151515156" y="665.5151515151515" type="curve" smooth="yes"/>
      <point x="446.51515151515156" y="599.2727272727273"/>
      <point x="405.33333333333337" y="529.8181818181819"/>
      <point x="347.969696969697" y="529.8181818181819" type="curve" smooth="yes"/>
      <point x="278.0" y="529.8181818181819"/>
      <point x="276.93939393939394" y="643.4848484848485"/>
      <point x="292.3636363636364" y="749.3333333333334" type="curve"/>
      <point x="265.1212121212121" y="731.2121212121212" type="line"/>
      <point x="244.90909090909093" y="610.3333333333333"/>
      <point x="260.8787878787879" y="495.69696969696975"/>
      <point x="348.57575757575756" y="495.69696969696975" type="curve" smooth="yes"/>
      <point x="426.909090909091" y="495.69696969696975"/>
      <point x="485.6060606060606" y="575.1212121212121"/>
      <point x="485.6060606060606" y="666.0303030303031" type="curve" smooth="yes"/>
      <point x="485.6060606060606" y="746.939393939394"/>
      <point x="438.48484848484856" y="788.2121212121211"/>
      <point x="369.93939393939394" y="788.2121212121211" type="curve" smooth="yes"/>
      <point x="194.96969696969697" y="788.2121212121211"/>
      <point x="61.42424242424243" y="496.6666666666667"/>
      <point x="61.42424242424243" y="274.939393939394" type="curve" smooth="yes"/>
      <point x="61.42424242424243" y="159.27272727272728"/>
      <point x="94.48484848484848" y="-4.212121212121212"/>
    </contour>
  </outline>
</glyph>
<glyph name="aiMatra-tamil" format="2">
  <advance width="896.2424242424242"/>
  <unicode hex="0BC8"/>
  <note>
uni0BC8
</note>
  <outline>
    <contour>
      <point x="679.090909090909" y="-8.787878787878787" type="line"/>
      <point x="794.5454545454545" y="77.2121212121212"/>
      <point x="854.3636363636364" y="206.87878787878788"/>
      <point x="854.3636363636364" y="334.57575757575756" type="curve" smooth="yes"/>
      <point x="854.3636363636364" y="462.6060606060606"/>
      <point x="785.0" y="552.6969696969697"/>
      <point x="661.4545454545455" y="552.6969696969697" type="curve" smooth="yes"/>
      <point x="490.03030303030306" y="552.6969696969697"/>
      <point x="340.5151515151515" y="333.48484848484844"/>
      <point x="340.5151515151515" y="126.75757575757576" type="curve" smooth="yes"/>
      <point x="340.5151515151515" y="40.27272727272728"/>
      <point x="377.0909090909091" y="-5.0"/>
      <point x="434.5454545454545" y="-5.0" type="curve" smooth="yes"/>
      <point x="526.0606060606061" y="-5.0"/>
      <point x="596.5757575757576" y="102.6969696969697"/>
      <point x="596.5757575757576" y="244.45454545454544" type="curve" smooth="yes"/>
      <point x="596.5757575757576" y="434.2121212121212"/>
      <point x="502.27272727272725" y="552.6969696969697"/>
      <point x="343.1818181818182" y="552.6969696969697" type="curve" smooth="yes"/>
      <point x="161.96969696969697" y="552.6969696969697"/>
      <point x="31.090909090909093" y="351.30303030303025"/>
      <point x="31.090909090909093" y="160.969696969697" type="curve" smooth="yes"/>
      <point x="31.090909090909093" y="56.757575757575765"/>
      <point x="74.36363636363636" y="-4.212121212121212"/>
      <point x="148.6060606060606" y="-4.212121212121212" type="curve" smooth="yes"/>
      <point x="222.09090909090907" y="-4.212121212121212"/>
      <point x="285.33333333333337" y="66.0"/>
      <point x="285.33333333333337" y="166.9090909090909" type="curve" smooth="yes"/>
      <point x="285.33333333333337" y="246.75757575757575"/>
      <point x="242.63636363636363" y="287.24242424242425"/>
      <point x="186.72727272727272" y="287.24242424242425" type="curve" smooth="yes"/>
      <point x="121.96969696969697" y="287.24242424242425"/>
      <point x="72.84848484848484" y="234.63636363636365"/>
      <point x="44.63636363636363" y="170.0" type="curve"/>
      <point x="54.24242424242424" y="141.21212121212122" type="line"/>
      <point x="86.48484848484848" y="209.54545454545456"/>
      <point x="123.84848484848486" y="253.33333333333334"/>
      <point x="176.57575757575756" y="253.33333333333334" type="curve" smooth="yes"/>
      <point x="219.24242424242425" y="253.33333333333334"/>
      <point x="245.03030303030303" y="225.54545454545453"/>
      <point x="245.03030303030303" y="160.93939393939394" type="curve" smooth="yes"/>
      <point x="245.03030303030303" y="84.60606060606061"/>
      <point x="201.2121212121212" y="26.93939393939394"/>
      <point x="147.63636363636363" y="26.93939393939394" type="curve" smooth="yes"/>
      <point x="94.48484848484847" y="26.93939393939394"/>
      <point x="62.3939393939394" y="75.21212121212122"/>
      <point x="62.3939393939394" y="161.96969696969697" type="curve" smooth="yes"/>
      <point x="62.3939393939394" y="329.1818181818182"/>
      <point x="176.66666666666666" y="522.3333333333334"/>
      <point x="339.75757575757575" y="522.3333333333334" type="curve" smooth="yes"/>
      <point x="483.99999999999994" y="522.3333333333334"/>
      <point x="555.060606060606" y="411.0"/>
      <point x="555.060606060606" y="239.03030303030303" type="curve" smooth="yes"/>
      <point x="555.060606060606" y="117.81818181818181"/>
      <point x="501.1515151515151" y="26.93939393939394"/>
      <point x="432.6363636363636" y="26.93939393939394" type="curve" smooth="yes"/>
      <point x="393.33333333333337" y="26.93939393939394"/>
      <point x="371.45454545454544" y="63.45454545454545"/>
      <point x="371.45454545454544" y="135.33333333333334" type="curve" smooth="yes"/>
      <point x="371.45454545454544" y="313.5151515151515"/>
      <point x="510.5757575757576" y="522.3333333333334"/>
      <point x="658.1818181818181" y="522.3333333333334" type="curve" smooth="yes"/>
      <point x="760.9090909090909" y="522.3333333333334"/>
      <point x="812.2727272727273" y="446.72727272727275"/>
      <point x="812.2727272727273" y="336.21212121212125" type="curve" smooth="yes"/>
      <point x="812.2727272727273" y="219.15151515151516"/>
      <point x="761.2727272727274" y="99.45454545454545"/>
      <point x="660.1818181818182" y="15.969696969696972" type="curve"/>
    </contour>
  </outline>
</glyph>
<glyph name="halant-tamil" format="2">
  <unicode hex="0BCD"/>
  <note>
uni0BCD
</note>
  <anchor x="56.63636363636364" y="544.5454545454545" name="_top"/>
  <outline>
    <contour>
      <point x="85.21212121212122" y="633.6666666666666" type="curve" smooth="yes"/>
      <point x="107.54545454545453" y="633.6666666666666"/>
      <point x="124.66666666666666" y="650.7878787878788"/>
      <point x="124.66666666666666" y="671.9090909090909" type="curve" smooth="yes"/>
      <point x="124.66666666666666" y="692.2424242424242"/>
      <point x="107.54545454545453" y="711.1515151515152"/>
      <point x="85.21212121212122" y="711.1515151515152" type="curve" smooth="yes"/>
      <point x="62.87878787878788" y="711.1515151515152"/>
      <point x="45.75757575757576" y="692.2424242424242"/>
      <point x="45.75757575757576" y="671.9090909090909" type="curve" smooth="yes"/>
      <point x="45.75757575757576" y="650.7878787878788"/>
      <point x="62.87878787878788" y="633.6666666666666"/>
    </contour>
  </outline>
</glyph>
<glyph name="om-tamil" format="2">
  <advance width="709.8484848484849"/>
  <unicode hex="0BD0"/>
  <note>
uni0BD0
</note>
  <outline>
    <contour>
      <point x="133.1212121212121" y="-293.0" type="curve" smooth="yes"/>
      <point x="288.8484848484848" y="-293.0"/>
      <point x="344.81818181818187" y="-116.0909090909091"/>
      <point x="475.24242424242425" y="-116.0909090909091" type="curve" smooth="yes"/>
      <point x="487.0" y="-116.0909090909091" type="line"/>
      <point x="493.48484848484844" y="-85.72727272727272" type="line"/>
      <point x="472.51515151515156" y="-85.72727272727272" type="line" smooth="yes"/>
      <point x="319.8484848484849" y="-85.72727272727272"/>
      <point x="314.3636363636364" y="66.39393939393939"/>
      <point x="416.969696969697" y="210.63636363636363" type="curve"/>
      <point x="420.39393939393943" y="208.42424242424244" type="line"/>
      <point x="371.30303030303025" y="97.39393939393939"/>
      <point x="377.93939393939394" y="-5.0"/>
      <point x="473.3636363636363" y="-5.0" type="curve" smooth="yes"/>
      <point x="580.5757575757575" y="-5.0"/>
      <point x="652.7575757575758" y="122.39393939393939"/>
      <point x="652.7575757575758" y="263.0" type="curve" smooth="yes"/>
      <point x="652.7575757575758" y="444.42424242424244"/>
      <point x="541.1515151515151" y="552.6969696969697"/>
      <point x="380.1212121212121" y="552.6969696969697" type="curve" smooth="yes"/>
      <point x="188.27272727272728" y="552.6969696969697"/>
      <point x="32.72727272727273" y="368.75757575757575"/>
      <point x="32.72727272727273" y="174.39393939393938" type="curve" smooth="yes"/>
      <point x="32.72727272727273" y="59.15151515151514"/>
      <point x="76.0" y="-2.090909090909091"/>
      <point x="149.8181818181818" y="-2.090909090909091" type="curve" smooth="yes"/>
      <point x="223.51515151515153" y="-2.090909090909091"/>
      <point x="285.69696969696975" y="68.12121212121212"/>
      <point x="285.69696969696975" y="169.03030303030303" type="curve" smooth="yes"/>
      <point x="285.69696969696975" y="248.87878787878788"/>
      <point x="243.63636363636363" y="289.3636363636364"/>
      <point x="187.72727272727272" y="289.3636363636364" type="curve" smooth="yes"/>
      <point x="122.96969696969697" y="289.3636363636364"/>
      <point x="74.48484848484848" y="236.75757575757575"/>
      <point x="46.272727272727266" y="172.12121212121212" type="curve"/>
      <point x="55.87878787878788" y="143.33333333333334" type="line"/>
      <point x="88.12121212121212" y="211.66666666666669"/>
      <point x="124.84848484848486" y="255.45454545454544"/>
      <point x="177.57575757575756" y="255.45454545454544" type="curve" smooth="yes"/>
      <point x="220.24242424242425" y="255.45454545454544"/>
      <point x="245.3939393939394" y="227.66666666666666"/>
      <point x="245.3939393939394" y="163.06060606060606" type="curve" smooth="yes"/>
      <point x="245.3939393939394" y="86.72727272727273"/>
      <point x="202.2121212121212" y="29.060606060606055"/>
      <point x="148.84848484848487" y="29.060606060606055" type="curve" smooth="yes"/>
      <point x="96.12121212121211" y="29.060606060606055"/>
      <point x="64.03030303030303" y="77.60606060606061"/>
      <point x="64.03030303030303" y="175.3939393939394" type="curve" smooth="yes"/>
      <point x="64.03030303030303" y="346.6363636363636"/>
      <point x="205.969696969697" y="522.3333333333334"/>
      <point x="375.0" y="522.3333333333334" type="curve" smooth="yes"/>
      <point x="515.7272727272726" y="522.3333333333334"/>
      <point x="611.0909090909091" y="421.60606060606057"/>
      <point x="611.0909090909091" y="259.4848484848485" type="curve" smooth="yes"/>
      <point x="611.0909090909091" y="147.75757575757575"/>
      <point x="559.4848484848485" y="26.93939393939394"/>
      <point x="474.45454545454544" y="26.93939393939394" type="curve" smooth="yes"/>
      <point x="396.0" y="26.93939393939394"/>
      <point x="410.3030303030303" y="143.66666666666666"/>
      <point x="464.969696969697" y="245.0606060606061" type="curve"/>
      <point x="424.72727272727275" y="265.3939393939394" type="line"/>
      <point x="307.21212121212125" y="120.0909090909091"/>
      <point x="267.8181818181818" y="-51.96969696969697"/>
      <point x="404.939393939394" y="-99.06060606060606" type="curve"/>
      <point x="404.72727272727275" y="-103.27272727272727" type="line"/>
      <point x="309.96969696969694" y="-122.69696969696972"/>
      <point x="260.030303030303" y="-259.0"/>
      <point x="130.27272727272725" y="-259.0" type="curve" smooth="yes"/>
      <point x="54.696969696969695" y="-259.0"/>
      <point x="22.303030303030305" y="-204.33333333333334"/>
      <point x="44.36363636363636" y="-138.0" type="curve"/>
      <point x="14.696969696969695" y="-134.15151515151516" type="line"/>
      <point x="-15.060606060606066" y="-223.36363636363637"/>
      <point x="33.63636363636364" y="-293.0"/>
    </contour>
    <contour>
      <point x="74.66666666666666" y="-206.24242424242425" type="line"/>
      <point x="100.06060606060606" y="-206.24242424242425" type="line"/>
      <point x="130.4848484848485" y="-65.27272727272728" type="line"/>
      <point x="104.30303030303031" y="-65.27272727272728" type="line"/>
    </contour>
    <contour>
      <point x="83.51515151515153" y="-206.24242424242425" type="line"/>
      <point x="213.969696969697" y="-206.24242424242425" type="line"/>
      <point x="219.6060606060606" y="-181.63636363636365" type="line"/>
      <point x="88.36363636363636" y="-181.63636363636365" type="line"/>
    </contour>
    <contour>
      <point x="135.5757575757576" y="-206.24242424242425" type="line"/>
      <point x="160.54545454545456" y="-206.24242424242425" type="line"/>
      <point x="179.969696969697" y="-112.3939393939394" type="line" smooth="yes"/>
      <point x="182.96969696969697" y="-97.03030303030302"/>
      <point x="191.12121212121212" y="-88.66666666666666"/>
      <point x="203.4848484848485" y="-88.66666666666666" type="curve" smooth="yes"/>
      <point x="216.69696969696972" y="-88.66666666666666"/>
      <point x="221.0606060606061" y="-100.66666666666669"/>
      <point x="218.0606060606061" y="-116.24242424242422" type="curve" smooth="yes"/>
      <point x="199.0606060606061" y="-206.24242424242425" type="line"/>
      <point x="225.66666666666669" y="-206.24242424242425" type="line"/>
      <point x="243.66666666666666" y="-120.03030303030302" type="line" smooth="yes"/>
      <point x="251.66666666666666" y="-83.6060606060606"/>
      <point x="234.09090909090907" y="-63.060606060606055"/>
      <point x="206.33333333333334" y="-63.060606060606055" type="curve" smooth="yes"/>
      <point x="180.84848484848484" y="-63.060606060606055"/>
      <point x="161.42424242424244" y="-80.12121212121212"/>
      <point x="154.7878787878788" y="-111.45454545454544" type="curve" smooth="yes"/>
    </contour>
    <contour>
      <point x="183.6969696969697" y="-53.121212121212125" type="curve" smooth="yes"/>
      <point x="194.96969696969697" y="-53.121212121212125"/>
      <point x="204.03030303030303" y="-44.06060606060606"/>
      <point x="204.03030303030303" y="-33.0" type="curve" smooth="yes"/>
      <point x="204.03030303030303" y="-22.93939393939394"/>
      <point x="194.96969696969697" y="-13.09090909090909"/>
      <point x="183.6969696969697" y="-13.09090909090909" type="curve" smooth="yes"/>
      <point x="172.4242424242424" y="-13.09090909090909"/>
      <point x="162.57575757575756" y="-22.93939393939394"/>
      <point x="162.57575757575756" y="-33.0" type="curve" smooth="yes"/>
      <point x="162.57575757575756" y="-44.06060606060606"/>
      <point x="172.4242424242424" y="-53.121212121212125"/>
    </contour>
  </outline>
</glyph>
<glyph name="zero-tamil" format="2">
  <advance width="436.8484848484849"/>
  <unicode hex="0BE6"/>
  <note>
uni0BE6
</note>
  <outline>
    <contour>
      <point x="163.66666666666669" y="-4.212121212121212" type="curve" smooth="yes"/>
      <point x="310.3030303030303" y="-4.212121212121212"/>
      <point x="398.3333333333333" y="192.27272727272728"/>
      <point x="398.3333333333333" y="371.1212121212121" type="curve" smooth="yes"/>
      <point x="398.3333333333333" y="483.27272727272725"/>
      <point x="351.93939393939394" y="551.9090909090909"/>
      <point x="264.3333333333333" y="551.9090909090909" type="curve" smooth="yes"/>
      <point x="116.48484848484847" y="551.9090909090909"/>
      <point x="36.72727272727273" y="343.90909090909093"/>
      <point x="36.72727272727273" y="169.72727272727272" type="curve" smooth="yes"/>
      <point x="36.72727272727273" y="66.12121212121212"/>
      <point x="76.03030303030303" y="-4.212121212121212"/>
    </contour>
    <contour>
      <point x="162.60606060606062" y="29.484848484848484" type="curve" smooth="yes"/>
      <point x="94.0909090909091" y="29.484848484848484"/>
      <point x="69.51515151515152" y="87.84848484848484"/>
      <point x="69.51515151515152" y="169.57575757575756" type="curve" smooth="yes"/>
      <point x="69.51515151515152" y="319.45454545454544"/>
      <point x="135.39393939393938" y="519.2121212121211"/>
      <point x="257.57575757575756" y="519.2121212121211" type="curve" smooth="yes"/>
      <point x="327.8181818181818" y="519.2121212121211"/>
      <point x="358.3939393939394" y="462.75757575757575"/>
      <point x="358.3939393939394" y="372.39393939393943" type="curve" smooth="yes"/>
      <point x="358.3939393939394" y="224.12121212121212"/>
      <point x="288.93939393939394" y="29.484848484848484"/>
    </contour>
  </outline>
</glyph>
